SplineFontDB: 3.0
FontName: Rambla-Bold
FullName: Rambla Bold
FamilyName: Rambla
Weight: Bold
Copyright: Copyright (c) 2011-2012, Martin Sommaruga (martin@estudiotrama.com), with Reserved Font Name 'Rambla'
Version: 1.001
ItalicAngle: 0
UnderlinePosition: -50
UnderlineWidth: 50
Ascent: 800
Descent: 200
sfntRevision: 0x00010042
LayerCount: 2
Layer: 0 1 "Back"  1
Layer: 1 1 "Fore"  0
XUID: [1021 313 286325276 11250271]
FSType: 0
OS2Version: 3
OS2_WeightWidthSlopeOnly: 0
OS2_UseTypoMetrics: 1
CreationTime: 1320398520
ModificationTime: 1351749400
PfmFamily: 17
TTFWeight: 700
TTFWidth: 5
LineGap: 0
VLineGap: 0
Panose: 2 0 8 6 2 0 0 2 0 4
OS2TypoAscent: 929
OS2TypoAOffset: 0
OS2TypoDescent: -295
OS2TypoDOffset: 0
OS2TypoLinegap: 0
OS2WinAscent: 929
OS2WinAOffset: 0
OS2WinDescent: 295
OS2WinDOffset: 0
HheadAscent: 929
HheadAOffset: 0
HheadDescent: -295
HheadDOffset: 0
OS2SubXSize: 650
OS2SubYSize: 600
OS2SubXOff: 0
OS2SubYOff: 75
OS2SupXSize: 650
OS2SupYSize: 600
OS2SupXOff: 0
OS2SupYOff: 350
OS2StrikeYSize: 50
OS2StrikeYPos: 310
OS2Vendor: 'PYRS'
OS2CodePages: 20000001.00000000
OS2UnicodeRanges: 8000002f.4000004a.00000000.00000000
Lookup: 258 0 0 "'kern' Horizontal Kerning lookup 0"  {"'kern' Horizontal Kerning lookup 0 per glyph data 0"  "'kern' Horizontal Kerning lookup 0 kerning class 1"  } ['kern' ('DFLT' <'dflt' > ) ]
DEI: 91125
KernClass2: 71+ 57 "'kern' Horizontal Kerning lookup 0 kerning class 1" 
 5 space
 29 guillemotright guilsinglright
 4 four
 40 comma period quotesinglbase quotedblbase
 15 colon semicolon
 5 seven
 4 nine
 24 quoteright quotedblright
 22 quoteleft quotedblleft
 5 slash
 9 backslash
 12 questiondown
 28 hyphen uni00AD endash emdash
 8 asterisk
 27 guillemotleft guilsinglleft
 10 registered
 9 ampersand
 20 quotedbl quotesingle
 10 exclamdown
 9 trademark
 50 A Agrave Aacute Acircumflex Atilde Adieresis Aring
 1 F
 43 E AE Egrave Eacute Ecircumflex Edieresis OE
 8 L Lslash
 48 H I N Igrave Iacute Icircumflex Idieresis Ntilde
 1 T

StartChar: exclam
Encoding: 33 33 4
Width: 248
GlyphClass: 2
Flags: W
LayerCount: 2
Fore
SplineSet
197 702 m 1,0,-1
 175 216 l 1,1,-1
 70 216 l 1,2,-1
 51 702 l 1,3,-1
 197 702 l 1,0,-1
67 134 m 128,-1,5
 91 158 91 158 125 158 c 128,-1,6
 159 158 159 158 183 134 c 128,-1,7
 207 110 207 110 207 76.5 c 128,-1,8
 207 43 207 43 183 18 c 128,-1,9
 159 -7 159 -7 125 -7 c 128,-1,10
 91 -7 91 -7 67 17.5 c 128,-1,11
 43 42 43 42 43 76 c 128,-1,4
 43 110 43 110 67 134 c 128,-1,5
EndSplineSet
EndChar

StartChar: quotedbl
Encoding: 34 34 5
Width: 389
GlyphClass: 2
Flags: W
LayerCount: 2
Fore
SplineSet
40 700 m 1,0,-1
 166 700 l 1,1,-1
 148 449 l 1,2,-1
 58 449 l 1,3,-1
 40 700 l 1,0,-1
223 700 m 1,4,-1
 349 700 l 1,5,-1
 331 449 l 1,6,-1
 241 449 l 1,7,-1
 223 700 l 1,4,-1
EndSplineSet
EndChar

StartChar: numbersign
Encoding: 35 35 6
Width: 642
GlyphClass: 2
Flags: W
LayerCount: 2
Fore
SplineSet
355 277 m 1,0,-1
 372 372 l 1,1,-1
 267 372 l 1,2,-1
 250 277 l 1,3,-1
 355 277 l 1,0,-1
601 172 m 1,4,-1
 447 172 l 1,5,-1
 415 -13 l 1,6,-1
 304 -13 l 1,7,-1
 336 172 l 1,8,-1
 231 172 l 1,9,-1
 199 -13 l 1,10,-1
 88 -13 l 1,11,-1
 120 172 l 1,12,-1
 38 172 l 1,13,-1
 38 277 l 1,14,-1
 139 277 l 1,15,-1
 156 372 l 1,16,-1
 44 372 l 1,17,-1
 44 476 l 1,18,-1
 174 476 l 1,19,-1
 209 668 l 1,20,-1
 319 668 l 1,21,-1
 285 476 l 1,22,-1
 390 476 l 1,23,-1
 425 668 l 1,24,-1
 535 668 l 1,25,-1
 501 476 l 1,26,-1
 601 476 l 1,27,-1
 601 372 l 1,28,-1
 483 372 l 1,29,-1
 466 277 l 1,30,-1
 601 277 l 1,31,-1
 601 172 l 1,4,-1
EndSplineSet
EndChar

StartChar: dollar
Encoding: 36 36 7
Width: 493
GlyphClass: 2
Flags: W
LayerCount: 2
Fore
SplineSet
237 110 m 0,0,1
 330 110 330 110 330 182 c 0,2,3
 330 217 330 217 299 242 c 128,-1,4
 268 267 268 267 215 291.5 c 128,-1,5
 162 316 162 316 139.5 329 c 128,-1,6
 117 342 117 342 90 366 c 0,7,8
 39 411 39 411 39 491.5 c 128,-1,9
 39 572 39 572 85.5 619 c 128,-1,10
 132 666 132 666 208 677 c 1,11,-1
 204 786 l 1,12,-1
 295 786 l 1,13,-1
 291 679 l 1,14,15
 355 674 355 674 442 643 c 1,16,-1
 402 534 l 1,17,18
 320 563 320 563 262 563 c 0,19,20
 179 563 179 563 178 497 c 0,21,22
 178 470 178 470 196 456.5 c 128,-1,23
 214 443 214 443 222 437.5 c 128,-1,24
 230 432 230 432 254.5 419.5 c 128,-1,25
 279 407 279 407 300 395.5 c 128,-1,26
 321 384 321 384 338.5 373.5 c 128,-1,27
 356 363 356 363 385 341 c 128,-1,28
 414 319 414 319 430 300 c 0,29,30
 469 250 469 250 469 179.5 c 128,-1,31
 469 109 469 109 422 56.5 c 128,-1,32
 375 4 375 4 292 -9 c 1,33,-1
 296 -111 l 1,34,-1
 205 -111 l 1,35,-1
 208 -11 l 1,36,37
 100 -2 100 -2 26 33 c 1,38,-1
 63 152 l 1,39,40
 155 110 155 110 237 110 c 0,0,1
EndSplineSet
EndChar

StartChar: uni0025
Encoding: 37 37 8
Width: 810
GlyphClass: 2
Flags: W
LayerCount: 2
Fore
SplineSet
291 0 m 1,0,-1
 161 0 l 1,1,-1
 514 691 l 1,2,-1
 643 691 l 1,3,-1
 291 0 l 1,0,-1
64 362.5 m 128,-1,5
 25 402 25 402 25 510 c 0,6,7
 25 622 25 622 77 664 c 0,8,9
 121 700 121 700 185 700 c 128,-1,10
 249 700 249 700 288 659.5 c 128,-1,11
 327 619 327 619 327 511 c 0,12,13
 327 400 327 400 276 358 c 0,14,15
 232 323 232 323 167.5 323 c 128,-1,4
 103 323 103 323 64 362.5 c 128,-1,5
176 633 m 128,-1,17
 148 633 148 633 133.5 606.5 c 128,-1,18
 119 580 119 580 119 509.5 c 128,-1,19
 119 439 119 439 133.5 414 c 128,-1,20
 148 389 148 389 176 389 c 128,-1,21
 204 389 204 389 218.5 414.5 c 128,-1,22
 233 440 233 440 233 510 c 128,-1,23
 233 580 233 580 218.5 606.5 c 128,-1,16
 204 633 204 633 176 633 c 128,-1,17
523 29.5 m 128,-1,25
 484 69 484 69 484 177 c 0,26,27
 484 289 484 289 536 332 c 1,28,29
 580 367 580 367 644 367 c 128,-1,30
 708 367 708 367 747 326.5 c 128,-1,31
 786 286 786 286 786 178 c 0,32,33
 786 67 786 67 734 25 c 0,34,35
 691 -10 691 -10 626.5 -10 c 128,-1,24
 562 -10 562 -10 523 29.5 c 128,-1,25
635 300 m 128,-1,37
 607 300 607 300 592.5 273.5 c 128,-1,38
 578 247 578 247 578 176.5 c 128,-1,39
 578 106 578 106 592.5 81 c 128,-1,40
 607 56 607 56 635 56 c 128,-1,41
 663 56 663 56 677.5 81.5 c 128,-1,42
 692 107 692 107 692 177 c 128,-1,43
 692 247 692 247 677.5 273.5 c 128,-1,36
 663 300 663 300 635 300 c 128,-1,37
EndSplineSet
EndChar

StartChar: ampersand
Encoding: 38 38 9
Width: 677
GlyphClass: 2
Flags: W
LayerCount: 2
Fore
SplineSet
182 264 m 128,-1,1
 162 231 162 231 162 192.5 c 128,-1,2
 162 154 162 154 189.5 124.5 c 128,-1,3
 217 95 217 95 276.5 95 c 128,-1,4
 336 95 336 95 383 139 c 1,5,-1
 237 314 l 1,6,0
 202 297 202 297 182 264 c 128,-1,1
160 645 m 128,-1,8
 209 683 209 683 285 683 c 128,-1,9
 361 683 361 683 462 646 c 1,10,-1
 429 549 l 1,11,12
 352 582 352 582 295.5 582 c 128,-1,13
 239 582 239 582 239 530 c 0,14,15
 239 493 239 493 287 436 c 2,16,-1
 458 230 l 1,17,18
 501 314 501 314 509 426 c 1,19,-1
 617 426 l 1,20,21
 611 261 611 261 528 151 c 1,22,23
 581 105 581 105 673 60 c 1,24,-1
 620 -33 l 1,25,26
 583 -17 583 -17 532.5 11.5 c 128,-1,27
 482 40 482 40 450 65 c 1,28,29
 376 -13 376 -13 270 -13 c 128,-1,30
 164 -13 164 -13 99.5 39 c 128,-1,31
 35 91 35 91 35 190 c 0,32,33
 35 317 35 317 178 390 c 1,34,35
 111 476 111 476 111 541.5 c 128,-1,7
 111 607 111 607 160 645 c 128,-1,8
EndSplineSet
EndChar

StartChar: quotesingle
Encoding: 39 39 10
Width: 206
GlyphClass: 2
Flags: W
LayerCount: 2
Fore
SplineSet
40 700 m 1,0,-1
 166 700 l 1,1,-1
 148 449 l 1,2,-1
 58 449 l 1,3,-1
 40 700 l 1,0,-1
EndSplineSet
EndChar

StartChar: parenleft
Encoding: 40 40 11
Width: 302
GlyphClass: 2
Flags: W
LayerCount: 2
Fore
SplineSet
197 -133 m 1,0,1
 31 94 31 94 31 309.5 c 128,-1,2
 31 525 31 525 197 752 c 1,3,-1
 284 692 l 1,4,5
 164 487 164 487 164 308 c 128,-1,6
 164 129 164 129 284 -73 c 1,7,-1
 197 -133 l 1,0,1
EndSplineSet
EndChar

StartChar: parenright
Encoding: 41 41 12
Width: 302
GlyphClass: 2
Flags: W
LayerCount: 2
Fore
SplineSet
105 752 m 1,0,1
 271 525 271 525 271 309.5 c 128,-1,2
 271 94 271 94 105 -133 c 1,3,-1
 18 -73 l 1,4,5
 138 129 138 129 138 308 c 128,-1,6
 138 487 138 487 18 692 c 1,7,-1
 105 752 l 1,0,1
EndSplineSet
EndChar

StartChar: asterisk
Encoding: 42 42 13
Width: 393
GlyphClass: 2
Flags: W
LayerCount: 2
Fore
SplineSet
260 527 m 1,0,-1
 358 489 l 1,1,-1
 307 407 l 1,2,-1
 233 473 l 1,3,-1
 243 368 l 1,4,-1
 148 368 l 1,5,-1
 158 476 l 1,6,-1
 83 407 l 1,7,-1
 34 491 l 1,8,-1
 132 526 l 1,9,-1
 35 562 l 1,10,-1
 82 649 l 1,11,-1
 158 579 l 1,12,-1
 148 686 l 1,13,-1
 242 686 l 1,14,-1
 233 580 l 1,15,-1
 308 648 l 1,16,-1
 358 562 l 1,17,-1
 260 527 l 1,0,-1
EndSplineSet
EndChar

StartChar: plus
Encoding: 43 43 14
Width: 483
GlyphClass: 2
Flags: W
LayerCount: 2
Fore
SplineSet
297 77 m 1,0,-1
 186 77 l 1,1,-1
 186 223 l 1,2,-1
 37 223 l 1,3,-1
 37 333 l 1,4,-1
 186 333 l 1,5,-1
 186 478 l 1,6,-1
 297 478 l 1,7,-1
 297 333 l 1,8,-1
 446 333 l 1,9,-1
 446 223 l 1,10,-1
 297 223 l 1,11,-1
 297 77 l 1,0,-1
EndSplineSet
EndChar

StartChar: comma
Encoding: 44 44 15
Width: 218
GlyphClass: 2
Flags: W
LayerCount: 2
Fore
SplineSet
172 59 m 0,0,1
 172 -46 172 -46 83 -128 c 1,2,-1
 -20 -128 l 1,3,4
 62 -33 62 -33 62 44 c 0,5,6
 62 77 62 77 45 116 c 1,7,-1
 160 116 l 1,8,9
 172 90 172 90 172 59 c 0,0,1
EndSplineSet
EndChar

StartChar: hyphen
Encoding: 45 45 16
Width: 509
GlyphClass: 2
Flags: W
LayerCount: 2
Fore
SplineSet
458 332 m 1,0,-1
 458 223 l 1,1,-1
 51 223 l 1,2,-1
 51 332 l 1,3,-1
 458 332 l 1,0,-1
EndSplineSet
EndChar

StartChar: period
Encoding: 46 46 17
Width: 242
GlyphClass: 2
Flags: W
LayerCount: 2
Fore
SplineSet
63 134 m 128,-1,1
 87 158 87 158 121 158 c 128,-1,2
 155 158 155 158 179 134 c 128,-1,3
 203 110 203 110 203 76.5 c 128,-1,4
 203 43 203 43 179 18 c 128,-1,5
 155 -7 155 -7 121 -7 c 128,-1,6
 87 -7 87 -7 63 17.5 c 128,-1,7
 39 42 39 42 39 76 c 128,-1,0
 39 110 39 110 63 134 c 128,-1,1
EndSplineSet
EndChar

StartChar: slash
Encoding: 47 47 18
Width: 426
GlyphClass: 2
Flags: W
LayerCount: 2
Fore
SplineSet
408 731 m 1,0,-1
 125 -118 l 1,1,-1
 18 -89 l 1,2,-1
 303 762 l 1,3,-1
 408 731 l 1,0,-1
EndSplineSet
EndChar

StartChar: zero
Encoding: 48 48 19
Width: 546
GlyphClass: 2
Flags: W
LayerCount: 2
Fore
SplineSet
369.5 4 m 128,-1,1
 328 -13 328 -13 260 -13 c 128,-1,2
 192 -13 192 -13 144 16 c 0,3,4
 43 78 43 78 43 332 c 0,5,6
 43 585 43 585 148 650 c 0,7,8
 197 681 197 681 275 681 c 0,9,10
 392 681 392 681 447.5 605 c 128,-1,11
 503 529 503 529 503 335 c 0,12,13
 503 137 503 137 442 60 c 0,14,0
 411 21 411 21 369.5 4 c 128,-1,1
273 562 m 128,-1,16
 222 562 222 562 200.5 512.5 c 128,-1,17
 179 463 179 463 179 333.5 c 128,-1,18
 179 204 179 204 200.5 154.5 c 128,-1,19
 222 105 222 105 273 105 c 128,-1,20
 324 105 324 105 345.5 154.5 c 128,-1,21
 367 204 367 204 367 333.5 c 128,-1,22
 367 463 367 463 345.5 512.5 c 128,-1,15
 324 562 324 562 273 562 c 128,-1,16
EndSplineSet
EndChar

StartChar: one
Encoding: 49 49 20
Width: 377
GlyphClass: 2
Flags: W
LayerCount: 2
Fore
SplineSet
313 1 m 1,0,-1
 174 1 l 1,1,-1
 174 536 l 1,2,-1
 51 483 l 1,3,-1
 7 582 l 1,4,-1
 205 668 l 1,5,-1
 313 668 l 1,6,-1
 313 1 l 1,0,-1
EndSplineSet
EndChar

StartChar: two
Encoding: 50 50 21
Width: 482
GlyphClass: 2
Flags: W
LayerCount: 2
Fore
SplineSet
27 0 m 1,0,-1
 27 105 l 1,1,2
 135 223 135 223 204.5 306.5 c 128,-1,3
 274 390 274 390 289.5 417.5 c 128,-1,4
 305 445 305 445 305 484 c 128,-1,5
 305 523 305 523 282 545 c 128,-1,6
 259 567 259 567 206.5 567 c 128,-1,7
 154 567 154 567 84 537 c 1,8,-1
 53 637 l 1,9,10
 144 682 144 682 233.5 682 c 128,-1,11
 323 682 323 682 376 630 c 128,-1,12
 429 578 429 578 429 492 c 0,13,14
 429 439 429 439 407 394.5 c 128,-1,15
 385 350 385 350 338.5 288 c 128,-1,16
 292 226 292 226 193 116 c 1,17,-1
 451 116 l 1,18,-1
 442 0 l 1,19,-1
 27 0 l 1,0,-1
EndSplineSet
EndChar

StartChar: three
Encoding: 51 51 22
Width: 489
GlyphClass: 2
Flags: W
LayerCount: 2
Fore
SplineSet
286 489 m 0,0,1
 286 524 286 524 261.5 541 c 128,-1,2
 237 558 237 558 188.5 558 c 128,-1,3
 140 558 140 558 66 528 c 1,4,-1
 34 635 l 1,5,6
 132 680 132 680 224 680 c 128,-1,7
 316 680 316 680 368 632.5 c 128,-1,8
 420 585 420 585 420 505 c 0,9,10
 420 465 420 465 401.5 427 c 128,-1,11
 383 389 383 389 345 365 c 1,12,13
 452 319 452 319 452 212.5 c 128,-1,14
 452 106 452 106 388.5 46.5 c 128,-1,15
 325 -13 325 -13 215 -13 c 0,16,17
 134 -13 134 -13 27 25 c 1,18,-1
 57 136 l 1,19,20
 147 104 147 104 204 104 c 0,21,22
 318 104 318 104 318 207 c 0,23,24
 318 253 318 253 287 280 c 128,-1,25
 256 307 256 307 196 307 c 2,26,-1
 127 307 l 1,27,-1
 127 408 l 1,28,-1
 186 408 l 2,29,30
 286 408 286 408 286 489 c 0,0,1
EndSplineSet
EndChar

StartChar: four
Encoding: 52 52 23
Width: 568
GlyphClass: 2
Flags: W
LayerCount: 2
Fore
SplineSet
545 176 m 1,0,-1
 441 176 l 1,1,-1
 441 0 l 1,2,-1
 308 0 l 1,3,-1
 308 176 l 1,4,-1
 19 176 l 1,5,-1
 19 250 l 1,6,-1
 285 669 l 1,7,-1
 441 669 l 1,8,-1
 441 271 l 1,9,-1
 545 271 l 1,10,-1
 545 176 l 1,0,-1
308 271 m 1,11,-1
 307 505 l 1,12,-1
 166 271 l 1,13,-1
 308 271 l 1,11,-1
EndSplineSet
EndChar

StartChar: five
Encoding: 53 53 24
Width: 483
GlyphClass: 2
Flags: W
LayerCount: 2
Fore
SplineSet
220 105 m 0,0,1
 263 105 263 105 290 133.5 c 128,-1,2
 317 162 317 162 317 219.5 c 128,-1,3
 317 277 317 277 292 303.5 c 128,-1,4
 267 330 267 330 223 330 c 128,-1,5
 179 330 179 330 138 289 c 1,6,-1
 65 324 l 1,7,-1
 65 669 l 1,8,-1
 414 669 l 1,9,-1
 414 554 l 1,10,-1
 182 554 l 1,11,-1
 182 427 l 1,12,13
 214 450 214 450 264 450 c 0,14,15
 345 450 345 450 398 391.5 c 128,-1,16
 451 333 451 333 451 229 c 128,-1,17
 451 125 451 125 393 56 c 128,-1,18
 335 -13 335 -13 231.5 -13 c 128,-1,19
 128 -13 128 -13 28 48 c 1,20,-1
 71 147 l 1,21,22
 155 105 155 105 220 105 c 0,0,1
EndSplineSet
EndChar

StartChar: six
Encoding: 54 54 25
Width: 499
GlyphClass: 2
Flags: W
LayerCount: 2
Fore
SplineSet
253 -12 m 0,0,1
 41 -12 41 -12 41 283 c 0,2,3
 41 474 41 474 116 577 c 128,-1,4
 191 680 191 680 314 680 c 0,5,6
 377 680 377 680 439 652 c 1,7,-1
 408 545 l 1,8,9
 373 558 373 558 323.5 558 c 128,-1,10
 274 558 274 558 239 523 c 128,-1,11
 204 488 204 488 191 413 c 1,12,13
 211 431 211 431 238.5 440 c 128,-1,14
 266 449 266 449 285 449 c 0,15,16
 369 449 369 449 418 395 c 128,-1,17
 467 341 467 341 467 234.5 c 128,-1,18
 467 128 467 128 412 58 c 128,-1,19
 357 -12 357 -12 253 -12 c 0,0,1
199 149 m 128,-1,21
 218 104 218 104 255.5 104 c 128,-1,22
 293 104 293 104 313 137.5 c 128,-1,23
 333 171 333 171 333 227 c 128,-1,24
 333 283 333 283 313.5 308 c 128,-1,25
 294 333 294 333 256.5 333.5 c 128,-1,26
 219 334 219 334 180 311 c 1,27,20
 180 194 180 194 199 149 c 128,-1,21
EndSplineSet
EndChar

StartChar: seven
Encoding: 55 55 26
Width: 433
GlyphClass: 2
Flags: W
LayerCount: 2
Fore
SplineSet
22 554 m 1,0,-1
 22 669 l 1,1,-1
 421 669 l 1,2,-1
 421 597 l 1,3,-1
 313 338 l 1,4,5
 239 176 239 176 213 0 c 1,6,-1
 82 0 l 1,7,8
 103 169 103 169 178 340 c 0,9,10
 180 344 180 344 274 554 c 1,11,-1
 22 554 l 1,0,-1
EndSplineSet
EndChar

StartChar: eight
Encoding: 56 56 27
Width: 518
GlyphClass: 2
Flags: W
LayerCount: 2
Fore
SplineSet
424.5 47 m 128,-1,1
 369 -12 369 -12 260.5 -12 c 128,-1,2
 152 -12 152 -12 94.5 41 c 128,-1,3
 37 94 37 94 37 187 c 0,4,5
 37 236 37 236 66.5 282 c 128,-1,6
 96 328 96 328 147 358 c 1,7,8
 67 407 67 407 67 498 c 128,-1,9
 67 589 67 589 121.5 635 c 128,-1,10
 176 681 176 681 263.5 681 c 128,-1,11
 351 681 351 681 403 637 c 128,-1,12
 455 593 455 593 455 515 c 0,13,14
 455 414 455 414 362 359 c 1,15,16
 480 302 480 302 480 190 c 0,17,0
 480 106 480 106 424.5 47 c 128,-1,1
311.5 551.5 m 128,-1,19
 292 567 292 567 262.5 567 c 128,-1,20
 233 567 233 567 212 552.5 c 128,-1,21
 191 538 191 538 191 505.5 c 128,-1,22
 191 473 191 473 212.5 445 c 128,-1,23
 234 417 234 417 266 402 c 1,24,25
 295 419 295 419 313 450 c 128,-1,26
 331 481 331 481 331 508.5 c 128,-1,18
 331 536 331 536 311.5 551.5 c 128,-1,19
167 190 m 0,27,28
 167 149 167 149 193 126.5 c 128,-1,29
 219 104 219 104 260 104 c 128,-1,30
 301 104 301 104 325.5 129.5 c 128,-1,31
 350 155 350 155 350 196 c 128,-1,32
 350 237 350 237 322 261 c 128,-1,33
 294 285 294 285 243 305 c 0,34,35
 242 305 242 305 239 306.5 c 128,-1,36
 236 308 236 308 235 308 c 2,37,-1
 234 309 l 1,38,39
 167 268 167 268 167 190 c 0,27,28
EndSplineSet
EndChar

StartChar: nine
Encoding: 57 57 28
Width: 500
GlyphClass: 2
Flags: W
LayerCount: 2
Fore
SplineSet
247 679 m 0,0,1
 459 679 459 679 459 384 c 0,2,3
 459 193 459 193 384 90.5 c 128,-1,4
 309 -12 309 -12 186 -12 c 0,5,6
 123 -12 123 -12 61 16 c 1,7,-1
 92 123 l 1,8,9
 127 110 127 110 176.5 110 c 128,-1,10
 226 110 226 110 261 145 c 128,-1,11
 296 180 296 180 309 254 c 1,12,13
 289 236 289 236 261.5 227 c 128,-1,14
 234 218 234 218 215 218 c 0,15,16
 131 218 131 218 82 272 c 128,-1,17
 33 326 33 326 33 432.5 c 128,-1,18
 33 539 33 539 88 609 c 128,-1,19
 143 679 143 679 247 679 c 0,0,1
301 518 m 128,-1,21
 282 563 282 563 244.5 563 c 128,-1,22
 207 563 207 563 187 529.5 c 128,-1,23
 167 496 167 496 167 440 c 128,-1,24
 167 384 167 384 186.5 359 c 128,-1,25
 206 334 206 334 243.5 333.5 c 128,-1,26
 281 333 281 333 320 356 c 1,27,20
 320 473 320 473 301 518 c 128,-1,21
EndSplineSet
EndChar

StartChar: colon
Encoding: 58 58 29
Width: 266
GlyphClass: 2
Flags: W
LayerCount: 2
Fore
SplineSet
74 134 m 128,-1,1
 98 158 98 158 132 158 c 128,-1,2
 166 158 166 158 190 134 c 128,-1,3
 214 110 214 110 214 76.5 c 128,-1,4
 214 43 214 43 190 18 c 128,-1,5
 166 -7 166 -7 132 -7 c 128,-1,6
 98 -7 98 -7 74 17.5 c 128,-1,7
 50 42 50 42 50 76 c 128,-1,0
 50 110 50 110 74 134 c 128,-1,1
76 431 m 128,-1,9
 100 455 100 455 134 455 c 128,-1,10
 168 455 168 455 192 431 c 128,-1,11
 216 407 216 407 216 373.5 c 128,-1,12
 216 340 216 340 192 315 c 128,-1,13
 168 290 168 290 134 290 c 128,-1,14
 100 290 100 290 76 314.5 c 128,-1,15
 52 339 52 339 52 373 c 128,-1,8
 52 407 52 407 76 431 c 128,-1,9
EndSplineSet
EndChar

StartChar: semicolon
Encoding: 59 59 30
Width: 256
GlyphClass: 2
Flags: W
LayerCount: 2
Fore
SplineSet
194 59 m 0,0,1
 194 -46 194 -46 105 -128 c 1,2,-1
 2 -128 l 1,3,4
 84 -33 84 -33 84 44 c 0,5,6
 84 77 84 77 67 116 c 1,7,-1
 182 116 l 1,8,9
 194 90 194 90 194 59 c 0,0,1
68 428 m 128,-1,11
 92 452 92 452 126 452 c 128,-1,12
 160 452 160 452 184 428 c 128,-1,13
 208 404 208 404 208 370.5 c 128,-1,14
 208 337 208 337 184 312 c 128,-1,15
 160 287 160 287 126 287 c 128,-1,16
 92 287 92 287 68 311.5 c 128,-1,17
 44 336 44 336 44 370 c 128,-1,10
 44 404 44 404 68 428 c 128,-1,11
EndSplineSet
EndChar

StartChar: less
Encoding: 60 60 31
Width: 439
GlyphClass: 2
Flags: W
LayerCount: 2
Fore
SplineSet
31 236 m 1,0,-1
 31 324 l 1,1,-1
 387 502 l 1,2,-1
 387 380 l 1,3,-1
 179 281 l 1,4,-1
 387 180 l 1,5,-1
 387 60 l 1,6,-1
 31 236 l 1,0,-1
EndSplineSet
EndChar

StartChar: equal
Encoding: 61 61 32
Width: 488
GlyphClass: 2
Flags: W
LayerCount: 2
Fore
SplineSet
433 431 m 1,0,-1
 433 324 l 1,1,-1
 55 324 l 1,2,-1
 55 431 l 1,3,-1
 433 431 l 1,0,-1
433 236 m 1,4,-1
 433 128 l 1,5,-1
 55 128 l 1,6,-1
 55 236 l 1,7,-1
 433 236 l 1,4,-1
EndSplineSet
EndChar

StartChar: greater
Encoding: 62 62 33
Width: 439
GlyphClass: 2
Flags: W
LayerCount: 2
Fore
SplineSet
408 324 m 1,0,-1
 408 236 l 1,1,-1
 52 60 l 1,2,-1
 52 180 l 1,3,-1
 260 281 l 1,4,-1
 52 380 l 1,5,-1
 52 502 l 1,6,-1
 408 324 l 1,0,-1
EndSplineSet
EndChar

StartChar: question
Encoding: 63 63 34
Width: 366
GlyphClass: 2
Flags: W
LayerCount: 2
Fore
SplineSet
175 105 m 128,-1,1
 198 82 198 82 198 50 c 128,-1,2
 198 18 198 18 175.5 -5.5 c 128,-1,3
 153 -29 153 -29 120.5 -29 c 128,-1,4
 88 -29 88 -29 65 -5.5 c 128,-1,5
 42 18 42 18 42 50.5 c 128,-1,6
 42 83 42 83 65 105.5 c 128,-1,7
 88 128 88 128 120 128 c 128,-1,0
 152 128 152 128 175 105 c 128,-1,1
176 238 m 1,8,-1
 174 184 l 1,9,-1
 60 184 l 1,10,11
 57 220 57 220 57 251 c 1,12,13
 61 284 61 284 77.5 316 c 128,-1,14
 94 348 94 348 109 365.5 c 128,-1,15
 124 383 124 383 147 404.5 c 128,-1,16
 170 426 170 426 180 436 c 0,17,18
 214 470 214 470 214 510 c 0,19,20
 214 593 214 593 50 608 c 1,21,-1
 75 700 l 1,22,23
 200 694 200 694 271.5 642.5 c 128,-1,24
 343 591 343 591 343 518 c 0,25,26
 343 477 343 477 327 447.5 c 128,-1,27
 311 418 311 418 297.5 404.5 c 128,-1,28
 284 391 284 391 259.5 369.5 c 128,-1,29
 235 348 235 348 221 333.5 c 128,-1,30
 207 319 207 319 193 293 c 128,-1,31
 179 267 179 267 176 238 c 1,8,-1
EndSplineSet
EndChar

StartChar: at
Encoding: 64 64 35
Width: 801
GlyphClass: 2
Flags: W
LayerCount: 2
Fore
SplineSet
441 415 m 0,0,1
 396 415 396 415 366 374.5 c 128,-1,2
 336 334 336 334 336 273 c 0,3,4
 336 192 336 192 388 192 c 0,5,6
 414 192 414 192 432 215 c 128,-1,7
 450 238 450 238 452 273 c 2,8,-1
 463 412 l 1,9,10
 456 415 456 415 441 415 c 0,0,1
394 -86 m 0,11,12
 239 -86 239 -86 140 -2 c 1,13,14
 91 41 91 41 63.5 113 c 128,-1,15
 36 185 36 185 36 280 c 0,16,17
 36 460 36 460 143.5 570 c 128,-1,18
 251 680 251 680 438 680 c 0,19,20
 604 680 604 680 689.5 594.5 c 128,-1,21
 775 509 775 509 775 358 c 0,22,23
 775 101 775 101 586 101 c 0,24,25
 557 101 557 101 528.5 117.5 c 128,-1,26
 500 134 500 134 488 159 c 1,27,28
 470 135 470 135 439.5 117.5 c 128,-1,29
 409 100 409 100 379 100 c 0,30,31
 310 100 310 100 268 144 c 128,-1,32
 226 188 226 188 226 266 c 0,33,34
 226 372 226 372 287 438 c 128,-1,35
 348 504 348 504 440 504 c 0,36,37
 500 504 500 504 580 469 c 1,38,-1
 562 261 l 2,39,40
 561 249 561 249 561 229.5 c 128,-1,41
 561 210 561 210 570.5 202 c 128,-1,42
 580 194 580 194 604 194 c 0,43,44
 667 194 667 194 667 359 c 0,45,46
 667 464 667 464 609 523 c 128,-1,47
 551 582 551 582 436 582 c 0,48,49
 300 582 300 582 224 502 c 128,-1,50
 148 422 148 422 148 282 c 0,51,52
 148 109 148 109 265 45 c 0,53,54
 326 12 326 12 409.5 12 c 128,-1,55
 493 12 493 12 614 54 c 1,56,-1
 639 -32 l 1,57,58
 516 -86 516 -86 394 -86 c 0,11,12
EndSplineSet
EndChar

StartChar: A
Encoding: 65 65 36
Width: 568
GlyphClass: 2
Flags: W
LayerCount: 2
Fore
SplineSet
570 0 m 1,0,-1
 428 0 l 1,1,-1
 381 158 l 1,2,-1
 188 158 l 1,3,-1
 142 0 l 1,4,-1
 -4 0 l 1,5,-1
 208 668 l 1,6,-1
 361 668 l 1,7,-1
 570 0 l 1,0,-1
350 267 m 1,8,-1
 284 530 l 1,9,-1
 219 267 l 1,10,-1
 350 267 l 1,8,-1
EndSplineSet
EndChar

StartChar: B
Encoding: 66 66 37
Width: 549
GlyphClass: 2
Flags: W
LayerCount: 2
Fore
SplineSet
410 632 m 0,0,1
 478 588 478 588 478 497 c 128,-1,2
 478 406 478 406 413 366 c 1,3,4
 471 340 471 340 493.5 302.5 c 128,-1,5
 516 265 516 265 516 204 c 0,6,7
 516 109 516 109 458.5 54.5 c 128,-1,8
 401 0 401 0 284 0 c 2,9,-1
 64 0 l 1,10,-1
 64 668 l 1,11,-1
 210 668 l 2,12,13
 287 668 287 668 331 661.5 c 128,-1,14
 375 655 375 655 410 632 c 0,0,1
207 562 m 1,15,-1
 207 409 l 1,16,-1
 274 409 l 1,17,18
 339 414 339 414 339 490 c 0,19,20
 339 546 339 546 295 557 c 0,21,22
 275 562 275 562 228 562 c 2,23,-1
 207 562 l 1,15,-1
267 114 m 2,24,25
 377 114 377 114 377 208 c 0,26,27
 377 263 377 263 345.5 283.5 c 128,-1,28
 314 304 314 304 255 304 c 2,29,-1
 207 304 l 1,30,-1
 207 114 l 1,31,-1
 267 114 l 2,24,25
EndSplineSet
EndChar

StartChar: C
Encoding: 67 67 38
Width: 519
GlyphClass: 2
Flags: W
LayerCount: 2
Fore
SplineSet
483 5 m 1,0,1
 404 -13 404 -13 336.5 -13 c 128,-1,2
 269 -13 269 -13 219.5 4.5 c 128,-1,3
 170 22 170 22 128 61 c 0,4,5
 39 144 39 144 39 336 c 0,6,7
 39 431 39 431 65 500.5 c 128,-1,8
 91 570 91 570 136 608 c 0,9,10
 220 679 220 679 339 679 c 0,11,12
 414 679 414 679 490 657 c 1,13,-1
 467 554 l 1,14,15
 410 565 410 565 361 565 c 0,16,17
 280 565 280 565 233 514.5 c 128,-1,18
 186 464 186 464 186 337.5 c 128,-1,19
 186 211 186 211 234 158.5 c 128,-1,20
 282 106 282 106 367 106 c 0,21,22
 426 106 426 106 474 114 c 1,23,-1
 483 5 l 1,0,1
EndSplineSet
EndChar

StartChar: D
Encoding: 68 68 39
Width: 601
GlyphClass: 2
Flags: W
LayerCount: 2
Fore
SplineSet
208 538 m 1,0,-1
 208 129 l 1,1,-1
 258 129 l 2,2,3
 353 129 353 129 385.5 178.5 c 128,-1,4
 418 228 418 228 418 334 c 128,-1,5
 418 440 418 440 386 489 c 128,-1,6
 354 538 354 538 258 538 c 2,7,-1
 208 538 l 1,0,-1
252 0 m 2,8,-1
 64 0 l 1,9,-1
 64 667 l 1,10,-1
 252 667 l 2,11,12
 378 667 378 667 428 641 c 0,13,14
 560 573 560 573 560 333 c 0,15,16
 560 225 560 225 528.5 143 c 128,-1,17
 497 61 497 61 429 27 c 0,18,19
 375 0 375 0 252 0 c 2,8,-1
EndSplineSet
EndChar

StartChar: E
Encoding: 69 69 40
Width: 536
GlyphClass: 2
Flags: W
LayerCount: 2
Fore
SplineSet
208 116 m 1,0,-1
 494 116 l 1,1,-1
 494 0 l 1,2,-1
 64 0 l 1,3,-1
 64 669 l 1,4,-1
 485 669 l 1,5,-1
 485 553 l 1,6,-1
 208 553 l 1,7,-1
 208 402 l 1,8,-1
 469 402 l 1,9,-1
 469 290 l 1,10,-1
 208 290 l 1,11,-1
 208 116 l 1,0,-1
EndSplineSet
EndChar

StartChar: F
Encoding: 70 70 41
Width: 512
GlyphClass: 2
Flags: W
LayerCount: 2
Fore
SplineSet
485 553 m 1,0,-1
 209 553 l 1,1,-1
 209 402 l 1,2,-1
 461 402 l 1,3,-1
 461 290 l 1,4,-1
 209 290 l 1,5,-1
 209 0 l 1,6,-1
 64 0 l 1,7,-1
 64 668 l 1,8,-1
 485 668 l 1,9,-1
 485 553 l 1,0,-1
EndSplineSet
EndChar

StartChar: G
Encoding: 71 71 42
Width: 580
GlyphClass: 2
Flags: W
LayerCount: 2
Fore
SplineSet
229.5 662 m 128,-1,1
 280 679 280 679 349 679 c 128,-1,2
 418 679 418 679 513 653 c 1,3,-1
 492 549 l 1,4,5
 425 565 425 565 352 565 c 128,-1,6
 279 565 279 565 232 514.5 c 128,-1,7
 185 464 185 464 185 339 c 0,8,9
 185 106 185 106 340 106 c 0,10,11
 371 106 371 106 405 112 c 1,12,-1
 405 236 l 1,13,-1
 311 236 l 1,14,-1
 311 341 l 1,15,-1
 536 341 l 1,16,-1
 536 31 l 1,17,18
 426 -13 426 -13 312 -13 c 128,-1,19
 198 -13 198 -13 120 70.5 c 128,-1,20
 42 154 42 154 38 336 c 1,21,22
 38 431 38 431 64 500.5 c 128,-1,23
 90 570 90 570 134.5 607.5 c 128,-1,0
 179 645 179 645 229.5 662 c 128,-1,1
EndSplineSet
EndChar

StartChar: H
Encoding: 72 72 43
Width: 633
GlyphClass: 2
Flags: W
LayerCount: 2
Fore
SplineSet
426 404 m 1,0,-1
 426 668 l 1,1,-1
 569 668 l 1,2,-1
 569 0 l 1,3,-1
 426 0 l 1,4,-1
 426 288 l 1,5,-1
 207 288 l 1,6,-1
 207 0 l 1,7,-1
 64 0 l 1,8,-1
 64 668 l 1,9,-1
 207 668 l 1,10,-1
 207 404 l 1,11,-1
 426 404 l 1,0,-1
EndSplineSet
EndChar

StartChar: I
Encoding: 73 73 44
Width: 272
GlyphClass: 2
Flags: W
LayerCount: 2
Fore
SplineSet
208 668 m 1,0,-1
 208 0 l 1,1,-1
 64 0 l 1,2,-1
 64 668 l 1,3,-1
 208 668 l 1,0,-1
EndSplineSet
EndChar

StartChar: J
Encoding: 74 74 45
Width: 270
GlyphClass: 2
Flags: W
LayerCount: 2
Fore
SplineSet
65 121 m 2,0,-1
 65 668 l 1,1,-1
 208 668 l 1,2,-1
 208 123 l 2,3,4
 208 14 208 14 162.5 -60.5 c 128,-1,5
 117 -135 117 -135 4 -186 c 1,6,-1
 -58 -91 l 1,7,8
 17 -49 17 -49 41 -4 c 128,-1,9
 65 41 65 41 65 121 c 2,0,-1
EndSplineSet
EndChar

StartChar: K
Encoding: 75 75 46
Width: 636
GlyphClass: 2
Flags: W
LayerCount: 2
Fore
SplineSet
230 341 m 1,0,-1
 424 668 l 1,1,-1
 594 668 l 1,2,-1
 387 346 l 1,3,-1
 638 0 l 1,4,-1
 463 0 l 1,5,-1
 230 341 l 1,0,-1
208 668 m 1,6,-1
 208 0 l 1,7,-1
 64 0 l 1,8,-1
 64 668 l 1,9,-1
 208 668 l 1,6,-1
EndSplineSet
EndChar

StartChar: L
Encoding: 76 76 47
Width: 474
GlyphClass: 2
Flags: W
LayerCount: 2
Fore
SplineSet
209 116 m 1,0,-1
 464 116 l 1,1,-1
 464 0 l 1,2,-1
 64 0 l 1,3,-1
 64 668 l 1,4,-1
 209 668 l 1,5,-1
 209 116 l 1,0,-1
EndSplineSet
EndChar

StartChar: M
Encoding: 77 77 48
Width: 771
GlyphClass: 2
Flags: W
LayerCount: 2
Fore
SplineSet
438 85 m 1,0,-1
 333 85 l 1,1,-1
 195 479 l 1,2,-1
 179 0 l 1,3,-1
 46 0 l 1,4,-1
 85 668 l 1,5,-1
 241 668 l 1,6,-1
 385 238 l 1,7,-1
 530 668 l 1,8,-1
 686 668 l 1,9,-1
 725 0 l 1,10,-1
 591 0 l 1,11,-1
 575 478 l 1,12,-1
 438 85 l 1,0,-1
EndSplineSet
EndChar

StartChar: N
Encoding: 78 78 49
Width: 682
GlyphClass: 2
Flags: W
LayerCount: 2
Fore
SplineSet
618 0 m 1,0,-1
 466 0 l 1,1,-1
 203 467 l 1,2,-1
 203 0 l 1,3,-1
 64 0 l 1,4,-1
 64 668 l 1,5,-1
 216 668 l 1,6,-1
 478 200 l 1,7,-1
 478 668 l 1,8,-1
 618 668 l 1,9,-1
 618 0 l 1,0,-1
EndSplineSet
EndChar

StartChar: O
Encoding: 79 79 50
Width: 618
GlyphClass: 2
Flags: W
LayerCount: 2
Fore
SplineSet
181.5 651.5 m 128,-1,1
 236 680 236 680 303 680 c 128,-1,2
 370 680 370 680 417.5 660.5 c 128,-1,3
 465 641 465 641 495 609 c 128,-1,4
 525 577 525 577 544 532 c 0,5,6
 579 448 579 448 579 334 c 0,7,8
 579 192 579 192 522 96 c 0,9,10
 492 46 492 46 437 17 c 128,-1,11
 382 -12 382 -12 314.5 -12 c 128,-1,12
 247 -12 247 -12 200 7.5 c 128,-1,13
 153 27 153 27 123 59 c 128,-1,14
 93 91 93 91 74 136 c 0,15,16
 39 220 39 220 39 334 c 0,17,18
 39 475 39 475 97 572 c 0,19,0
 127 623 127 623 181.5 651.5 c 128,-1,1
309 110 m 128,-1,21
 382 110 382 110 411 169.5 c 128,-1,22
 440 229 440 229 440 316 c 128,-1,23
 440 403 440 403 430 450.5 c 128,-1,24
 420 498 420 498 390 530.5 c 128,-1,25
 360 563 360 563 315.5 563 c 128,-1,26
 271 563 271 563 244.5 545.5 c 128,-1,27
 218 528 218 528 204 495 c 0,28,29
 178 434 178 434 178 331.5 c 128,-1,30
 178 229 178 229 207 169.5 c 128,-1,20
 236 110 236 110 309 110 c 128,-1,21
EndSplineSet
EndChar

StartChar: P
Encoding: 80 80 51
Width: 540
GlyphClass: 2
Flags: W
LayerCount: 2
Fore
SplineSet
459 610 m 0,0,1
 520 556 520 556 520 453.5 c 128,-1,2
 520 351 520 351 452 296 c 0,3,4
 417 268 417 268 367 256 c 128,-1,5
 317 244 317 244 233 244 c 2,6,-1
 208 244 l 1,7,-1
 208 0 l 1,8,-1
 64 0 l 1,9,-1
 64 668 l 1,10,-1
 257 668 l 2,11,12
 333 668 333 668 378.5 655 c 128,-1,13
 424 642 424 642 459 610 c 0,0,1
346 371 m 1,14,15
 380 394 380 394 380 456.5 c 128,-1,16
 380 519 380 519 345.5 540.5 c 128,-1,17
 311 562 311 562 234 562 c 2,18,-1
 208 562 l 1,19,-1
 208 350 l 1,20,-1
 219 350 l 2,21,22
 318 350 318 350 346 371 c 1,14,15
EndSplineSet
EndChar

StartChar: Q
Encoding: 81 81 52
Width: 618
GlyphClass: 2
Flags: W
LayerCount: 2
Fore
SplineSet
53.5 205.5 m 128,-1,1
 39 265 39 265 39 334.5 c 128,-1,2
 39 404 39 404 53 463 c 128,-1,3
 67 522 67 522 97 572.5 c 128,-1,4
 127 623 127 623 181.5 651.5 c 128,-1,5
 236 680 236 680 303 680 c 128,-1,6
 370 680 370 680 417.5 660.5 c 128,-1,7
 465 641 465 641 495 609 c 128,-1,8
 525 577 525 577 544 532 c 0,9,10
 579 448 579 448 579 334 c 0,11,12
 579 116 579 116 461 33 c 1,13,14
 574 20 574 20 673 -39 c 1,15,-1
 601 -137 l 1,16,17
 588 -124 588 -124 557.5 -103.5 c 128,-1,18
 527 -83 527 -83 496 -68 c 0,19,20
 414 -28 414 -28 307 -10 c 1,21,22
 235 -10 235 -10 181.5 18.5 c 128,-1,23
 128 47 128 47 98 96.5 c 128,-1,0
 68 146 68 146 53.5 205.5 c 128,-1,1
309 94 m 128,-1,25
 440 94 440 94 440 328.5 c 128,-1,26
 440 563 440 563 309 563 c 128,-1,27
 178 563 178 563 178 328.5 c 128,-1,24
 178 94 178 94 309 94 c 128,-1,25
EndSplineSet
EndChar

StartChar: R
Encoding: 82 82 53
Width: 581
GlyphClass: 2
Flags: W
LayerCount: 2
Fore
SplineSet
233 244 m 2,0,-1
 208 244 l 1,1,-1
 208 0 l 1,2,-1
 64 0 l 1,3,-1
 64 668 l 1,4,-1
 257 668 l 2,5,6
 333 668 333 668 378.5 655 c 128,-1,7
 424 642 424 642 459 610 c 0,8,9
 520 556 520 556 520 462 c 0,10,11
 520 347 520 347 452 296 c 0,12,13
 429 278 429 278 398 266 c 1,14,-1
 569 33 l 1,15,-1
 461 -33 l 1,16,-1
 263 245 l 1,17,18
 254 244 254 244 233 244 c 2,0,-1
346 371 m 1,19,20
 381 395 381 395 381 451.5 c 128,-1,21
 381 508 381 508 352.5 535 c 128,-1,22
 324 562 324 562 234 562 c 2,23,-1
 208 562 l 1,24,-1
 208 350 l 1,25,-1
 219 350 l 2,26,27
 318 350 318 350 346 371 c 1,19,20
EndSplineSet
EndChar

StartChar: S
Encoding: 83 83 54
Width: 499
GlyphClass: 2
Flags: W
LayerCount: 2
Fore
SplineSet
472 187 m 0,0,1
 472 98 472 98 410.5 42.5 c 128,-1,2
 349 -13 349 -13 245 -13 c 0,3,4
 195 -13 195 -13 132.5 0.5 c 128,-1,5
 70 14 70 14 29 33 c 1,6,-1
 66 152 l 1,7,8
 158 110 158 110 240 110 c 0,9,10
 333 110 333 110 333 182 c 0,11,12
 333 217 333 217 302 242 c 128,-1,13
 271 267 271 267 218 291.5 c 128,-1,14
 165 316 165 316 142.5 329 c 128,-1,15
 120 342 120 342 93 366 c 0,16,17
 42 411 42 411 42 497 c 128,-1,18
 42 583 42 583 102.5 632 c 128,-1,19
 163 681 163 681 252.5 681 c 128,-1,20
 342 681 342 681 445 643 c 1,21,-1
 405 534 l 1,22,23
 323 563 323 563 265 563 c 0,24,25
 182 563 182 563 181 497 c 0,26,27
 181 470 181 470 199 456.5 c 128,-1,28
 217 443 217 443 225 437.5 c 128,-1,29
 233 432 233 432 257.5 419.5 c 128,-1,30
 282 407 282 407 303 395.5 c 128,-1,31
 324 384 324 384 341.5 373.5 c 128,-1,32
 359 363 359 363 388 341 c 128,-1,33
 417 319 417 319 432 300 c 0,34,35
 472 250 472 250 472 187 c 0,0,1
EndSplineSet
EndChar

StartChar: T
Encoding: 84 84 55
Width: 515
GlyphClass: 2
Flags: W
LayerCount: 2
Fore
SplineSet
184 553 m 1,0,-1
 10 553 l 1,1,-1
 10 668 l 1,2,-1
 505 668 l 1,3,-1
 505 553 l 1,4,-1
 328 553 l 1,5,-1
 328 0 l 1,6,-1
 184 0 l 1,7,-1
 184 553 l 1,0,-1
EndSplineSet
EndChar

StartChar: U
Encoding: 85 85 56
Width: 606
GlyphClass: 2
Flags: W
LayerCount: 2
Fore
SplineSet
59 246 m 2,0,-1
 59 667 l 1,1,-1
 204 667 l 1,2,-1
 204 251 l 2,3,4
 204 165 204 165 224 138 c 1,5,6
 244 108 244 108 303.5 108 c 128,-1,7
 363 108 363 108 382 139 c 1,8,9
 402 165 402 165 402 251 c 2,10,-1
 402 667 l 1,11,-1
 547 667 l 1,12,-1
 547 246 l 2,13,14
 547 130 547 130 500 64 c 1,15,16
 440 -10 440 -10 303 -12 c 1,17,18
 166 -12 166 -12 105 64 c 1,19,20
 59 131 59 131 59 246 c 2,0,-1
EndSplineSet
EndChar

StartChar: V
Encoding: 86 86 57
Width: 553
GlyphClass: 2
Flags: W
LayerCount: 2
Fore
SplineSet
276 160 m 1,0,-1
 415 668 l 1,1,-1
 557 668 l 1,2,-1
 347 0 l 1,3,-1
 206 0 l 1,4,-1
 -4 668 l 1,5,-1
 138 668 l 1,6,-1
 276 160 l 1,0,-1
EndSplineSet
EndChar

StartChar: W
Encoding: 87 87 58
Width: 795
GlyphClass: 2
Flags: W
LayerCount: 2
Fore
SplineSet
345 612 m 1,0,-1
 450 612 l 1,1,-1
 590 164 l 1,2,-1
 626 668 l 1,3,-1
 759 668 l 1,4,-1
 692 0 l 1,5,-1
 542 0 l 1,6,-1
 397 494 l 1,7,-1
 253 0 l 1,8,-1
 103 0 l 1,9,-1
 36 668 l 1,10,-1
 168 668 l 1,11,-1
 204 163 l 1,12,-1
 345 612 l 1,0,-1
EndSplineSet
EndChar

StartChar: X
Encoding: 88 88 59
Width: 600
GlyphClass: 2
Flags: W
LayerCount: 2
Fore
SplineSet
591 0 m 1,0,-1
 430 0 l 1,1,-1
 297 231 l 1,2,-1
 163 0 l 1,3,-1
 9 0 l 1,4,-1
 224 334 l 1,5,-1
 19 667 l 1,6,-1
 173 667 l 1,7,-1
 299 440 l 1,8,-1
 424 667 l 1,9,-1
 580 667 l 1,10,-1
 372 340 l 1,11,-1
 591 0 l 1,0,-1
EndSplineSet
EndChar

StartChar: Y
Encoding: 89 89 60
Width: 548
GlyphClass: 2
Flags: W
LayerCount: 2
Fore
SplineSet
346 0 m 1,0,-1
 202 0 l 1,1,-1
 202 264 l 1,2,-1
 -8 668 l 1,3,-1
 138 668 l 1,4,-1
 274 383 l 1,5,-1
 410 668 l 1,6,-1
 556 668 l 1,7,-1
 346 264 l 1,8,-1
 346 0 l 1,0,-1
EndSplineSet
EndChar

StartChar: Z
Encoding: 90 90 61
Width: 525
GlyphClass: 2
Flags: W
LayerCount: 2
Fore
SplineSet
496 117 m 1,0,-1
 496 0 l 1,1,-1
 43 0 l 1,2,-1
 32 88 l 1,3,-1
 315 552 l 1,4,-1
 48 552 l 1,5,-1
 33 668 l 1,6,-1
 466 668 l 1,7,-1
 475 575 l 1,8,-1
 194 117 l 1,9,-1
 496 117 l 1,0,-1
EndSplineSet
EndChar

StartChar: bracketleft
Encoding: 91 91 62
Width: 346
GlyphClass: 2
Flags: W
LayerCount: 2
Fore
SplineSet
58 -131 m 1,0,-1
 58 748 l 1,1,-1
 319 748 l 1,2,-1
 319 648 l 1,3,-1
 189 640 l 1,4,-1
 189 -24 l 1,5,-1
 319 -30 l 1,6,-1
 319 -131 l 1,7,-1
 58 -131 l 1,0,-1
EndSplineSet
EndChar

StartChar: backslash
Encoding: 92 92 63
Width: 428
GlyphClass: 2
Flags: W
LayerCount: 2
Fore
SplineSet
302 -118 m 1,0,-1
 19 731 l 1,1,-1
 124 762 l 1,2,-1
 409 -89 l 1,3,-1
 302 -118 l 1,0,-1
EndSplineSet
EndChar

StartChar: bracketright
Encoding: 93 93 64
Width: 346
GlyphClass: 2
Flags: W
LayerCount: 2
Fore
SplineSet
288 748 m 1,0,-1
 288 -131 l 1,1,-1
 27 -131 l 1,2,-1
 27 -30 l 1,3,-1
 157 -24 l 1,4,-1
 157 640 l 1,5,-1
 27 648 l 1,6,-1
 27 748 l 1,7,-1
 288 748 l 1,0,-1
EndSplineSet
EndChar

StartChar: asciicircum
Encoding: 94 94 65
Width: 499
GlyphClass: 2
Flags: W
LayerCount: 2
Fore
SplineSet
204 643 m 1,0,-1
 292 643 l 1,1,-1
 470 295 l 1,2,-1
 348 295 l 1,3,-1
 249 495 l 1,4,-1
 148 295 l 1,5,-1
 28 295 l 1,6,-1
 204 643 l 1,0,-1
EndSplineSet
EndChar

StartChar: underscore
Encoding: 95 95 66
Width: 534
GlyphClass: 2
Flags: W
LayerCount: 2
Fore
SplineSet
483 109 m 1,0,-1
 483 0 l 1,1,-1
 51 0 l 1,2,-1
 51 109 l 1,3,-1
 483 109 l 1,0,-1
EndSplineSet
EndChar

StartChar: grave
Encoding: 96 96 67
Width: 343
GlyphClass: 2
Flags: W
LayerCount: 2
Fore
SplineSet
262 587 m 1,0,-1
 58 663 l 1,1,-1
 107 774 l 1,2,-1
 296 665 l 1,3,-1
 262 587 l 1,0,-1
EndSplineSet
EndChar

StartChar: a
Encoding: 97 97 68
Width: 510
GlyphClass: 2
Flags: W
LayerCount: 2
Fore
SplineSet
516 17 m 1,0,1
 465 -11 465 -11 404.5 -11 c 128,-1,2
 344 -11 344 -11 315 35 c 1,3,4
 257 -13 257 -13 179 -13 c 128,-1,5
 101 -13 101 -13 61 26.5 c 128,-1,6
 21 66 21 66 21 134 c 0,7,8
 21 179 21 179 40 211 c 128,-1,9
 59 243 59 243 89 258 c 0,10,11
 144 284 144 284 203.5 284 c 128,-1,12
 263 284 263 284 299 281 c 1,13,-1
 299 330 l 2,14,15
 299 382 299 382 278 397 c 128,-1,16
 257 412 257 412 206.5 412 c 128,-1,17
 156 412 156 412 93 391 c 1,18,-1
 64 479 l 1,19,20
 101 501 101 501 154.5 512.5 c 128,-1,21
 208 524 208 524 246 524 c 0,22,23
 348 524 348 524 391.5 480.5 c 128,-1,24
 435 437 435 437 435 332 c 2,25,-1
 435 122 l 2,26,27
 435 94 435 94 460 94 c 0,28,29
 473 94 473 94 497 100 c 1,30,-1
 516 17 l 1,0,1
217 80 m 0,31,32
 259 80 259 80 299 106 c 1,33,-1
 299 211 l 1,34,35
 271 213 271 213 250 213 c 0,36,37
 151 213 151 213 151 149 c 0,38,39
 151 80 151 80 217 80 c 0,31,32
EndSplineSet
EndChar

StartChar: b
Encoding: 98 98 69
Width: 541
GlyphClass: 2
Flags: W
LayerCount: 2
Fore
SplineSet
192 701 m 1,0,-1
 192 480 l 1,1,2
 213 497 213 497 248.5 509.5 c 128,-1,3
 284 522 284 522 320 522 c 0,4,5
 402 522 402 522 455 459.5 c 128,-1,6
 508 397 508 397 508 281 c 0,7,8
 508 138 508 138 450 62.5 c 128,-1,9
 392 -13 392 -13 264 -13 c 0,10,11
 209 -13 209 -13 146 -2.5 c 128,-1,12
 83 8 83 8 52 22 c 1,13,-1
 52 701 l 1,14,-1
 192 701 l 1,0,-1
244 100 m 0,15,16
 313 100 313 100 340 142 c 128,-1,17
 367 184 367 184 367 264 c 128,-1,18
 367 344 367 344 345.5 376 c 128,-1,19
 324 408 324 408 280 408 c 128,-1,20
 236 408 236 408 192 381 c 1,21,-1
 192 105 l 1,22,23
 219 100 219 100 244 100 c 0,15,16
EndSplineSet
EndChar

StartChar: c
Encoding: 99 99 70
Width: 438
GlyphClass: 2
Flags: W
LayerCount: 2
Fore
SplineSet
271 -13 m 0,0,1
 168 -13 168 -13 100 53.5 c 128,-1,2
 32 120 32 120 32 254.5 c 128,-1,3
 32 389 32 389 99 455.5 c 128,-1,4
 166 522 166 522 271 522 c 0,5,6
 333 522 333 522 412 499 c 1,7,-1
 385 398 l 1,8,9
 324 412 324 412 287 412 c 0,10,11
 228 412 228 412 196.5 376.5 c 128,-1,12
 165 341 165 341 165 251 c 128,-1,13
 165 161 165 161 199.5 126 c 128,-1,14
 234 91 234 91 296 91 c 0,15,16
 328 91 328 91 394 101 c 1,17,-1
 411 10 l 1,18,19
 332 -13 332 -13 271 -13 c 0,0,1
EndSplineSet
EndChar

StartChar: d
Encoding: 100 100 71
Width: 534
GlyphClass: 2
Flags: W
LayerCount: 2
Fore
SplineSet
34 244 m 0,0,1
 34 522 34 522 251 522 c 0,2,3
 306 522 306 522 340 504 c 1,4,-1
 340 710 l 1,5,-1
 481 710 l 1,6,-1
 481 -7 l 1,7,-1
 365 -7 l 1,8,-1
 357 31 l 1,9,10
 301 -9 301 -9 224 -9 c 0,11,12
 130 -9 130 -9 82 59 c 128,-1,13
 34 127 34 127 34 244 c 0,0,1
265 412 m 0,14,15
 168 412 168 412 168 247 c 0,16,17
 168 96 168 96 258 96 c 0,18,19
 304 96 304 96 341 119 c 1,20,-1
 341 398 l 1,21,22
 308 412 308 412 265 412 c 0,14,15
EndSplineSet
EndChar

StartChar: e
Encoding: 101 101 72
Width: 480
GlyphClass: 2
Flags: W
LayerCount: 2
Fore
SplineSet
164 242 m 1,0,1
 166 92 166 92 296 92 c 0,2,3
 357 92 357 92 417 115 c 1,4,-1
 441 20 l 1,5,6
 364 -13 364 -13 270 -13 c 0,7,8
 33 -13 33 -13 33 266 c 0,9,10
 33 376 33 376 92 449 c 128,-1,11
 151 522 151 522 262 522 c 0,12,13
 351 522 351 522 399.5 474.5 c 128,-1,14
 448 427 448 427 448 342 c 0,15,16
 448 292 448 292 435 242 c 1,17,-1
 164 242 l 1,0,1
336 318 m 1,18,-1
 336 324 l 2,19,20
 336 423 336 423 266 423 c 0,21,22
 182 423 182 423 165 318 c 1,23,-1
 336 318 l 1,18,-1
EndSplineSet
EndChar

StartChar: f
Encoding: 102 102 73
Width: 409
GlyphClass: 2
Flags: W
LayerCount: 2
Fore
SplineSet
445 613 m 1,0,1
 403 623 403 623 345 623 c 128,-1,2
 287 623 287 623 268 600.5 c 128,-1,3
 249 578 249 578 249 527 c 2,4,-1
 249 512 l 1,5,-1
 402 512 l 1,6,-1
 393 416 l 1,7,-1
 249 416 l 1,8,-1
 249 -186 l 1,9,-1
 109 -172 l 1,10,-1
 109 416 l 1,11,-1
 15 422 l 1,12,-1
 15 504 l 1,13,-1
 110 511 l 1,14,-1
 110 540 l 2,15,16
 110 643 110 643 166 690 c 128,-1,17
 222 737 222 737 340 737 c 0,18,19
 400 737 400 737 474 713 c 1,20,-1
 445 613 l 1,0,1
EndSplineSet
EndChar

StartChar: g
Encoding: 103 103 74
Width: 490
GlyphClass: 2
Flags: W
LayerCount: 2
Fore
SplineSet
283 -23 m 2,0,-1
 182 -23 l 1,1,2
 131 -40 131 -40 131 -84 c 0,3,4
 131 -140 131 -140 245 -140 c 128,-1,5
 359 -140 359 -140 359 -67 c 0,6,7
 359 -45 359 -45 342.5 -34 c 128,-1,8
 326 -23 326 -23 283 -23 c 2,0,-1
230 419 m 0,9,10
 161 419 161 419 161 329 c 0,11,12
 161 285 161 285 177.5 265 c 128,-1,13
 194 245 194 245 230 245 c 128,-1,14
 266 245 266 245 282 265 c 128,-1,15
 298 285 298 285 298 330.5 c 128,-1,16
 298 376 298 376 282 397.5 c 128,-1,17
 266 419 266 419 230 419 c 0,9,10
227 525 m 1,18,-1
 315 520 l 1,19,20
 393 520 393 520 480 535 c 1,21,-1
 492 458 l 1,22,23
 473 453 473 453 388 441 c 1,24,25
 423 392 423 392 423 330 c 0,26,27
 423 244 423 244 373.5 190 c 128,-1,28
 324 136 324 136 231 136 c 0,29,30
 198 136 198 136 178 141 c 1,31,32
 172 123 172 123 172 110 c 0,33,34
 172 77 172 77 229 77 c 2,35,-1
 315 77 l 2,36,37
 392 77 392 77 435 42.5 c 128,-1,38
 478 8 478 8 478 -53 c 0,39,40
 478 -142 478 -142 410 -193 c 128,-1,41
 342 -244 342 -244 234 -244 c 128,-1,42
 126 -244 126 -244 70.5 -207.5 c 128,-1,43
 15 -171 15 -171 15 -104 c 0,44,45
 15 -65 15 -65 41 -30 c 128,-1,46
 67 5 67 5 114 26 c 1,47,48
 82 47 82 47 82 86.5 c 128,-1,49
 82 126 82 126 112 166 c 1,50,51
 76 192 76 192 56 235.5 c 128,-1,52
 36 279 36 279 36 330 c 0,53,54
 36 417 36 417 84.5 471 c 128,-1,55
 133 525 133 525 227 525 c 1,18,-1
EndSplineSet
EndChar

StartChar: h
Encoding: 104 104 75
Width: 546
GlyphClass: 2
Flags: W
LayerCount: 2
Fore
SplineSet
264 506 m 128,-1,1
 305 522 305 522 347 522 c 128,-1,2
 389 522 389 522 420 509.5 c 128,-1,3
 451 497 451 497 467 472 c 0,4,5
 496 427 496 427 496 351 c 2,6,-1
 496 0 l 1,7,-1
 350 0 l 1,8,-1
 350 326 l 2,9,10
 350 390 350 390 323 402 c 0,11,12
 310 408 310 408 288 408 c 0,13,14
 232 408 232 408 193 371 c 1,15,-1
 193 0 l 1,16,-1
 53 0 l 1,17,-1
 53 697 l 1,18,-1
 193 706 l 1,19,-1
 193 467 l 1,20,0
 223 490 223 490 264 506 c 128,-1,1
EndSplineSet
EndChar

StartChar: i
Encoding: 105 105 76
Width: 246
GlyphClass: 2
Flags: W
LayerCount: 2
Fore
SplineSet
193 0 m 1,0,-1
 53 0 l 1,1,-1
 53 512 l 1,2,-1
 193 524 l 1,3,-1
 193 0 l 1,0,-1
64 735 m 128,-1,5
 88 759 88 759 122 759 c 128,-1,6
 156 759 156 759 180 735 c 128,-1,7
 204 711 204 711 204 677.5 c 128,-1,8
 204 644 204 644 180 619 c 128,-1,9
 156 594 156 594 122 594 c 128,-1,10
 88 594 88 594 64 618.5 c 128,-1,11
 40 643 40 643 40 677 c 128,-1,4
 40 711 40 711 64 735 c 128,-1,5
EndSplineSet
EndChar

StartChar: j
Encoding: 106 106 77
Width: 244
GlyphClass: 2
Flags: W
LayerCount: 2
Fore
SplineSet
192 51 m 2,0,1
 192 -194 192 -194 -66 -207 c 1,2,-1
 -77 -99 l 1,3,4
 -6 -87 -6 -87 23.5 -52 c 128,-1,5
 53 -17 53 -17 53 60 c 2,6,-1
 53 508 l 1,7,-1
 192 522 l 1,8,-1
 192 51 l 2,0,1
62.5 737.5 m 128,-1,10
 87 762 87 762 122 762 c 128,-1,11
 157 762 157 762 181.5 737.5 c 128,-1,12
 206 713 206 713 206 678.5 c 128,-1,13
 206 644 206 644 181.5 618.5 c 128,-1,14
 157 593 157 593 122 593 c 128,-1,15
 87 593 87 593 62.5 618 c 128,-1,16
 38 643 38 643 38 678 c 128,-1,9
 38 713 38 713 62.5 737.5 c 128,-1,10
EndSplineSet
EndChar

StartChar: k
Encoding: 107 107 78
Width: 554
GlyphClass: 2
Flags: W
LayerCount: 2
Fore
SplineSet
193 0 m 1,0,-1
 53 0 l 1,1,-1
 53 699 l 1,2,-1
 193 709 l 1,3,-1
 193 293 l 1,4,-1
 363 512 l 1,5,-1
 515 512 l 1,6,-1
 330 281 l 1,7,-1
 554 0 l 1,8,-1
 394 0 l 1,9,-1
 193 261 l 1,10,-1
 193 0 l 1,0,-1
EndSplineSet
EndChar

StartChar: l
Encoding: 108 108 79
Width: 309
GlyphClass: 2
Flags: W
LayerCount: 2
Fore
SplineSet
313 9 m 1,0,1
 262 -13 262 -13 214 -13 c 128,-1,2
 166 -13 166 -13 135 -2 c 128,-1,3
 104 9 104 9 88.5 23 c 128,-1,4
 73 37 73 37 65 64 c 128,-1,5
 57 91 57 91 55.5 109.5 c 128,-1,6
 54 128 54 128 54 161 c 2,7,-1
 54 700 l 1,8,-1
 195 700 l 1,9,-1
 195 153 l 2,10,11
 195 124 195 124 203.5 112 c 128,-1,12
 212 100 212 100 238 100 c 128,-1,13
 264 100 264 100 292 107 c 1,14,-1
 313 9 l 1,0,1
EndSplineSet
EndChar

StartChar: m
Encoding: 109 109 80
Width: 836
GlyphClass: 2
Flags: W
LayerCount: 2
Fore
SplineSet
251.5 502 m 128,-1,1
 297 522 297 522 348 522 c 128,-1,2
 399 522 399 522 427 505 c 128,-1,3
 455 488 455 488 472 453 c 1,4,5
 499 481 499 481 545.5 501.5 c 128,-1,6
 592 522 592 522 639 522 c 0,7,8
 725 522 725 522 755.5 477.5 c 128,-1,9
 786 433 786 433 786 351 c 2,10,-1
 786 0 l 1,11,-1
 646 0 l 1,12,-1
 646 326 l 2,13,14
 646 390 646 390 619 402 c 0,15,16
 606 408 606 408 584 408 c 0,17,18
 528 408 528 408 489 371 c 1,19,20
 490 364 490 364 490 350 c 2,21,-1
 490 0 l 1,22,-1
 350 0 l 1,23,-1
 350 326 l 2,24,25
 350 390 350 390 323 402 c 0,26,27
 310 408 310 408 288 408 c 0,28,29
 232 408 232 408 193 371 c 1,30,-1
 193 0 l 1,31,-1
 53 0 l 1,32,-1
 53 513 l 1,33,-1
 168 513 l 1,34,-1
 180 456 l 1,35,0
 206 482 206 482 251.5 502 c 128,-1,1
EndSplineSet
EndChar

StartChar: n
Encoding: 110 110 81
Width: 546
GlyphClass: 2
Flags: W
LayerCount: 2
Fore
SplineSet
346 522 m 0,0,1
 433 522 433 522 464.5 477.5 c 128,-1,2
 496 433 496 433 496 351 c 2,3,-1
 496 0 l 1,4,-1
 356 0 l 1,5,-1
 356 326 l 2,6,7
 356 365 356 365 343.5 386.5 c 128,-1,8
 331 408 331 408 283 408 c 128,-1,9
 235 408 235 408 196 371 c 1,10,-1
 196 0 l 1,11,-1
 53 0 l 1,12,-1
 53 513 l 1,13,-1
 171 513 l 1,14,-1
 183 456 l 1,15,16
 212 483 212 483 256.5 502.5 c 128,-1,17
 301 522 301 522 346 522 c 0,0,1
EndSplineSet
EndChar

StartChar: o
Encoding: 111 111 82
Width: 511
GlyphClass: 2
Flags: W
LayerCount: 2
Fore
SplineSet
416 51.5 m 128,-1,1
 354 -13 354 -13 253 -13 c 128,-1,2
 152 -13 152 -13 92.5 51 c 128,-1,3
 33 115 33 115 33 254 c 128,-1,4
 33 393 33 393 94.5 457.5 c 128,-1,5
 156 522 156 522 256 522 c 0,6,7
 478 522 478 522 478 255 c 0,8,0
 478 116 478 116 416 51.5 c 128,-1,1
320 381 m 128,-1,10
 298 414 298 414 255.5 414 c 128,-1,11
 213 414 213 414 190.5 381 c 128,-1,12
 168 348 168 348 168 254 c 0,13,14
 168 94 168 94 255 94 c 0,15,16
 296 94 296 94 319 129.5 c 128,-1,17
 342 165 342 165 342 256.5 c 128,-1,9
 342 348 342 348 320 381 c 128,-1,10
EndSplineSet
EndChar

StartChar: p
Encoding: 112 112 83
Width: 538
GlyphClass: 2
Flags: W
LayerCount: 2
Fore
SplineSet
316 522 m 0,0,1
 409 522 409 522 457 453 c 128,-1,2
 505 384 505 384 505 266 c 0,3,4
 505 -13 505 -13 276 -13 c 0,5,6
 238 -13 238 -13 193 5 c 1,7,-1
 193 -197 l 1,8,-1
 53 -213 l 1,9,-1
 53 513 l 1,10,-1
 173 513 l 1,11,-1
 185 472 l 1,12,13
 249 522 249 522 316 522 c 0,0,1
253 100 m 0,14,15
 367 100 367 100 367 262 c 0,16,17
 367 408 367 408 272 408 c 0,18,19
 234 408 234 408 193 383 c 1,20,-1
 193 107 l 1,21,22
 221 100 221 100 253 100 c 0,14,15
EndSplineSet
EndChar

StartChar: q
Encoding: 113 113 84
Width: 541
GlyphClass: 2
Flags: W
LayerCount: 2
Fore
SplineSet
349 19 m 1,0,1
 298 -13 298 -13 218.5 -13 c 128,-1,2
 139 -13 139 -13 86 49.5 c 128,-1,3
 33 112 33 112 33 228 c 0,4,5
 33 522 33 522 288 522 c 0,6,7
 342 522 342 522 400 511 c 128,-1,8
 458 500 458 500 489 484 c 1,9,-1
 489 -222 l 1,10,-1
 349 -213 l 1,11,-1
 349 19 l 1,0,1
292 409 m 0,12,13
 226 409 226 409 200 367 c 128,-1,14
 174 325 174 325 174 245 c 128,-1,15
 174 165 174 165 195.5 132.5 c 128,-1,16
 217 100 217 100 260 100 c 128,-1,17
 303 100 303 100 349 120 c 1,18,-1
 349 401 l 1,19,20
 323 409 323 409 292 409 c 0,12,13
EndSplineSet
EndChar

StartChar: r
Encoding: 114 114 85
Width: 377
GlyphClass: 2
Flags: W
LayerCount: 2
Fore
SplineSet
308 410 m 0,0,1
 226 410 226 410 193 363 c 1,2,-1
 193 0 l 1,3,-1
 53 0 l 1,4,-1
 53 513 l 1,5,-1
 169 513 l 1,6,-1
 180 448 l 1,7,8
 238 524 238 524 328 524 c 0,9,10
 353 524 353 524 374 519 c 1,11,-1
 351 404 l 1,12,13
 329 410 329 410 308 410 c 0,0,1
EndSplineSet
EndChar

StartChar: s
Encoding: 115 115 86
Width: 419
GlyphClass: 2
Flags: W
LayerCount: 2
Fore
SplineSet
237 414 m 0,0,1
 169 414 169 414 169 369 c 0,2,3
 169 345 169 345 192 328 c 128,-1,4
 215 311 215 311 247.5 298.5 c 128,-1,5
 280 286 280 286 312.5 270.5 c 128,-1,6
 345 255 345 255 368 226 c 128,-1,7
 391 197 391 197 391 155 c 0,8,9
 391 80 391 80 340 33.5 c 128,-1,10
 289 -13 289 -13 190 -13 c 0,11,12
 145 -13 145 -13 95.5 -3 c 128,-1,13
 46 7 46 7 23 20 c 1,14,-1
 57 120 l 1,15,16
 135 94 135 94 197.5 94 c 128,-1,17
 260 94 260 94 260 143 c 0,18,19
 260 164 260 164 237 181 c 128,-1,20
 214 198 214 198 181.5 212.5 c 128,-1,21
 149 227 149 227 116.5 244 c 128,-1,22
 84 261 84 261 61 292 c 128,-1,23
 38 323 38 323 38 364 c 0,24,25
 38 441 38 441 89 482 c 128,-1,26
 140 523 140 523 235 523 c 128,-1,27
 330 523 330 523 384 492 c 1,28,-1
 351 393 l 1,29,30
 282 414 282 414 237 414 c 0,0,1
EndSplineSet
EndChar

StartChar: t
Encoding: 116 116 87
Width: 403
GlyphClass: 2
Flags: W
LayerCount: 2
Fore
SplineSet
105 165 m 2,0,-1
 105 416 l 1,1,-1
 15 422 l 1,2,-1
 15 504 l 1,3,-1
 108 512 l 1,4,-1
 108 629 l 1,5,-1
 248 641 l 1,6,-1
 248 513 l 1,7,-1
 394 513 l 1,8,-1
 386 416 l 1,9,-1
 247 416 l 1,10,-1
 247 152 l 2,11,12
 247 123 247 123 256 110.5 c 128,-1,13
 265 98 265 98 294 98 c 128,-1,14
 323 98 323 98 359 107 c 1,15,-1
 380 8 l 1,16,17
 331 -13 331 -13 280.5 -13 c 128,-1,18
 230 -13 230 -13 204.5 -7 c 128,-1,19
 179 -1 179 -1 162.5 7 c 128,-1,20
 146 15 146 15 134.5 30.5 c 128,-1,21
 123 46 123 46 117.5 58 c 128,-1,22
 112 70 112 70 109 92 c 0,23,24
 105 122 105 122 105 165 c 2,0,-1
EndSplineSet
EndChar

StartChar: u
Encoding: 117 117 88
Width: 543
GlyphClass: 2
Flags: W
LayerCount: 2
Fore
SplineSet
363 47 m 1,0,1
 286 -13 286 -13 199.5 -13 c 128,-1,2
 113 -13 113 -13 81.5 31.5 c 128,-1,3
 50 76 50 76 50 158 c 2,4,-1
 50 513 l 1,5,-1
 190 513 l 1,6,-1
 190 183 l 2,7,8
 190 143 190 143 202 122 c 128,-1,9
 214 101 214 101 261.5 101 c 128,-1,10
 309 101 309 101 350 132 c 1,11,-1
 350 513 l 1,12,-1
 490 513 l 1,13,-1
 490 -13 l 1,14,-1
 375 -13 l 1,15,-1
 363 47 l 1,0,1
EndSplineSet
EndChar

StartChar: v
Encoding: 118 118 89
Width: 511
GlyphClass: 2
Flags: W
LayerCount: 2
Fore
SplineSet
255 112 m 1,0,-1
 362 513 l 1,1,-1
 503 513 l 1,2,-1
 343 0 l 1,3,-1
 167 0 l 1,4,-1
 10 513 l 1,5,-1
 151 513 l 1,6,-1
 255 112 l 1,0,-1
EndSplineSet
EndChar

StartChar: w
Encoding: 119 119 90
Width: 689
GlyphClass: 2
Flags: W
LayerCount: 2
Fore
SplineSet
279 504 m 1,0,-1
 408 513 l 1,1,-1
 481 115 l 1,2,-1
 536 513 l 1,3,-1
 673 513 l 1,4,-1
 558 0 l 1,5,-1
 408 0 l 1,6,-1
 346 373 l 1,7,-1
 283 0 l 1,8,-1
 127 0 l 1,9,-1
 21 513 l 1,10,-1
 158 513 l 1,11,-1
 210 112 l 1,12,-1
 279 504 l 1,0,-1
EndSplineSet
EndChar

StartChar: x
Encoding: 120 120 91
Width: 527
GlyphClass: 2
Flags: W
LayerCount: 2
Fore
SplineSet
506 513 m 1,0,-1
 347 264 l 1,1,-1
 519 0 l 1,2,-1
 371 0 l 1,3,-1
 264 191 l 1,4,-1
 156 0 l 1,5,-1
 6 0 l 1,6,-1
 184 266 l 1,7,-1
 24 513 l 1,8,-1
 174 513 l 1,9,-1
 267 341 l 1,10,-1
 360 513 l 1,11,-1
 506 513 l 1,0,-1
EndSplineSet
EndChar

StartChar: y
Encoding: 121 121 92
Width: 502
GlyphClass: 2
Flags: W
LayerCount: 2
Fore
SplineSet
85 -213 m 0,0,1
 40 -213 40 -213 -20 -195 c 1,2,-1
 1 -98 l 2,3,4
 1 -99 1 -99 31 -103.5 c 128,-1,5
 61 -108 61 -108 70 -108 c 0,6,7
 126 -108 126 -108 149.5 -87.5 c 128,-1,8
 173 -67 173 -67 192 13 c 1,9,-1
 5 500 l 1,10,-1
 138 517 l 1,11,-1
 253 163 l 1,12,-1
 355 513 l 1,13,-1
 490 513 l 1,14,-1
 328 42 l 2,15,16
 276 -108 276 -108 229.5 -160.5 c 128,-1,17
 183 -213 183 -213 85 -213 c 0,0,1
EndSplineSet
EndChar

StartChar: z
Encoding: 122 122 93
Width: 451
GlyphClass: 2
Flags: W
LayerCount: 2
Fore
SplineSet
181 95 m 1,0,-1
 421 95 l 1,1,-1
 433 0 l 1,2,-1
 37 0 l 1,3,-1
 25 75 l 1,4,-1
 250 416 l 1,5,-1
 45 416 l 1,6,-1
 35 512 l 1,7,-1
 394 512 l 1,8,-1
 407 434 l 1,9,-1
 181 95 l 1,0,-1
EndSplineSet
EndChar

StartChar: braceleft
Encoding: 123 123 94
Width: 369
GlyphClass: 2
Flags: W
LayerCount: 2
Fore
SplineSet
248 -35 m 2,0,-1
 343 -35 l 1,1,-1
 343 -130 l 1,2,-1
 254 -130 l 2,3,4
 181 -130 181 -130 137.5 -84 c 128,-1,5
 94 -38 94 -38 91 43 c 0,6,7
 90 66 90 66 88.5 118.5 c 128,-1,8
 87 171 87 171 86.5 185 c 128,-1,9
 86 199 86 199 85.5 212 c 128,-1,10
 85 225 85 225 84.5 231 c 128,-1,11
 84 237 84 237 82 245 c 0,12,13
 77 260 77 260 61 260 c 2,14,-1
 18 260 l 1,15,-1
 18 364 l 1,16,-1
 61 364 l 2,17,18
 82 364 82 364 84 393 c 0,19,20
 86 411 86 411 86 432 c 0,21,22
 89 533 89 533 91 581 c 0,23,24
 94 662 94 662 137.5 708 c 128,-1,25
 181 754 181 754 254 754 c 2,26,-1
 343 754 l 1,27,-1
 343 659 l 1,28,-1
 248 659 l 2,29,30
 208 659 208 659 208 579 c 1,31,-1
 206 450 l 2,32,33
 204 350 204 350 161 312 c 1,34,35
 204 274 204 274 206 174 c 2,36,-1
 208 45 l 1,37,38
 208 -35 208 -35 248 -35 c 2,0,-1
EndSplineSet
EndChar

StartChar: bar
Encoding: 124 124 95
Width: 234
GlyphClass: 2
Flags: W
LayerCount: 2
Fore
SplineSet
59 -43 m 1,0,-1
 59 694 l 1,1,-1
 175 694 l 1,2,-1
 175 -43 l 1,3,-1
 59 -43 l 1,0,-1
EndSplineSet
EndChar

StartChar: braceright
Encoding: 125 125 96
Width: 369
GlyphClass: 2
Flags: W
LayerCount: 2
Fore
SplineSet
121 659 m 2,0,-1
 26 659 l 1,1,-1
 26 754 l 1,2,-1
 115 754 l 2,3,4
 188 754 188 754 231.5 708 c 128,-1,5
 275 662 275 662 278 581 c 0,6,7
 279 558 279 558 280.5 505.5 c 128,-1,8
 282 453 282 453 282.5 439 c 128,-1,9
 283 425 283 425 283.5 412 c 128,-1,10
 284 399 284 399 284.5 393 c 128,-1,11
 285 387 285 387 288 379 c 0,12,13
 292 364 292 364 308 364 c 2,14,-1
 351 364 l 1,15,-1
 351 260 l 1,16,-1
 308 260 l 2,17,18
 287 260 287 260 284 231 c 0,19,20
 283 213 283 213 282 192 c 0,21,22
 280 91 280 91 278 43 c 0,23,24
 275 -38 275 -38 231.5 -84 c 128,-1,25
 188 -130 188 -130 115 -130 c 2,26,-1
 26 -130 l 1,27,-1
 26 -35 l 1,28,-1
 121 -35 l 2,29,30
 161 -35 161 -35 161 45 c 1,31,-1
 163 174 l 2,32,33
 165 274 165 274 208 312 c 1,34,35
 165 350 165 350 163 450 c 2,36,-1
 161 579 l 1,37,38
 161 659 161 659 121 659 c 2,0,-1
EndSplineSet
EndChar

StartChar: asciitilde
Encoding: 126 126 97
Width: 567
GlyphClass: 2
Flags: W
LayerCount: 2
Fore
SplineSet
398 308 m 0,0,1
 439 308 439 308 471 354 c 1,2,-1
 534 299 l 1,3,4
 476 196 476 196 390 196 c 0,5,6
 343 196 343 196 275 229 c 128,-1,7
 207 262 207 262 168 262 c 128,-1,8
 129 262 129 262 97 216 c 1,9,-1
 34 271 l 1,10,11
 92 375 92 375 171 375 c 0,12,13
 223 375 223 375 299 339 c 1,14,15
 369 308 369 308 398 308 c 0,0,1
EndSplineSet
EndChar

StartChar: exclamdown
Encoding: 161 161 100
Width: 240
GlyphClass: 2
Flags: W
LayerCount: 2
Fore
SplineSet
47 -178 m 1,0,-1
 69 308 l 1,1,-1
 174 308 l 1,2,-1
 193 -178 l 1,3,-1
 47 -178 l 1,0,-1
177 390 m 128,-1,5
 153 366 153 366 119 366 c 128,-1,6
 85 366 85 366 61 390 c 128,-1,7
 37 414 37 414 37 447.5 c 128,-1,8
 37 481 37 481 61 506 c 128,-1,9
 85 531 85 531 119 531 c 128,-1,10
 153 531 153 531 177 506.5 c 128,-1,11
 201 482 201 482 201 448 c 128,-1,4
 201 414 201 414 177 390 c 128,-1,5
EndSplineSet
EndChar

StartChar: cent
Encoding: 162 162 101
Width: 440
GlyphClass: 2
Flags: W
LayerCount: 2
Fore
SplineSet
281 496 m 0,0,1
 222 496 222 496 190.5 460.5 c 128,-1,2
 159 425 159 425 159 335 c 128,-1,3
 159 245 159 245 193.5 210 c 128,-1,4
 228 175 228 175 290 175 c 0,5,6
 322 175 322 175 388 185 c 1,7,-1
 405 94 l 1,8,9
 353 78 353 78 305 72 c 1,10,-1
 311 -36 l 1,11,-1
 221 -36 l 1,12,-1
 227 73 l 1,13,14
 138 85 138 85 82 151 c 128,-1,15
 26 217 26 217 26 338.5 c 128,-1,16
 26 460 26 460 81 526 c 128,-1,17
 136 592 136 592 227 603 c 1,18,-1
 221 719 l 1,19,-1
 311 719 l 1,20,-1
 304 604 l 1,21,22
 342 601 342 601 406 583 c 1,23,-1
 379 482 l 1,24,25
 318 496 318 496 281 496 c 0,0,1
EndSplineSet
EndChar

StartChar: sterling
Encoding: 163 163 102
Width: 493
GlyphClass: 2
Flags: W
LayerCount: 2
Fore
SplineSet
36 304 m 1,0,-1
 36 404 l 1,1,-1
 92 404 l 1,2,3
 80 440 80 440 80 491 c 0,4,5
 80 583 80 583 133.5 633 c 128,-1,6
 187 683 187 683 272.5 683 c 128,-1,7
 358 683 358 683 449 641 c 1,8,-1
 411 541 l 1,9,10
 333 573 333 573 288.5 573 c 128,-1,11
 244 573 244 573 223 552.5 c 128,-1,12
 202 532 202 532 202 491.5 c 128,-1,13
 202 451 202 451 217 404 c 1,14,-1
 349 404 l 1,15,-1
 355 304 l 1,16,-1
 247 304 l 1,17,18
 252 279 252 279 252 244 c 0,19,20
 252 176 252 176 220 115 c 1,21,-1
 461 115 l 1,22,-1
 461 0 l 1,23,-1
 62 0 l 1,24,-1
 62 100 l 1,25,26
 94 116 94 116 113 160 c 128,-1,27
 132 204 132 204 132 243.5 c 128,-1,28
 132 283 132 283 124 304 c 1,29,-1
 36 304 l 1,0,-1
EndSplineSet
EndChar

StartChar: currency
Encoding: 164 164 103
Width: 537
GlyphClass: 2
Flags: W
LayerCount: 2
Fore
SplineSet
178 68 m 1,0,-1
 100 -32 l 1,1,-1
 31 21 l 1,2,-1
 110 122 l 1,3,4
 67 179 67 179 67 252 c 128,-1,5
 67 325 67 325 115 384 c 1,6,7
 115 384 115 384 39 479 c 1,8,-1
 108 532 l 1,9,-1
 183 436 l 1,10,11
 226 454 226 454 272.5 454 c 128,-1,12
 319 454 319 454 354 438 c 1,13,14
 400 499 400 499 428 532 c 1,15,-1
 496 479 l 1,16,-1
 426 388 l 1,17,18
 480 329 480 329 480 251.5 c 128,-1,19
 480 174 480 174 429 115 c 1,20,-1
 503 21 l 1,21,-1
 434 -32 l 1,22,-1
 361 64 l 1,23,24
 328 47 328 47 275 47 c 128,-1,25
 222 47 222 47 178 68 c 1,0,-1
193 169 m 128,-1,27
 225 136 225 136 273.5 136 c 128,-1,28
 322 136 322 136 354 169 c 128,-1,29
 386 202 386 202 386 250.5 c 128,-1,30
 386 299 386 299 354 332.5 c 128,-1,31
 322 366 322 366 273.5 366 c 128,-1,32
 225 366 225 366 193 332.5 c 128,-1,33
 161 299 161 299 161 250.5 c 128,-1,26
 161 202 161 202 193 169 c 128,-1,27
EndSplineSet
EndChar

StartChar: yen
Encoding: 165 165 104
Width: 606
GlyphClass: 2
Flags: W
LayerCount: 2
Fore
SplineSet
83 247 m 1,0,-1
 83 331 l 1,1,-1
 196 331 l 1,2,-1
 21 668 l 1,3,-1
 167 668 l 1,4,-1
 303 383 l 1,5,-1
 439 668 l 1,6,-1
 585 668 l 1,7,-1
 410 331 l 1,8,-1
 523 331 l 1,9,-1
 523 247 l 1,10,-1
 375 247 l 1,11,-1
 375 194 l 1,12,-1
 523 194 l 1,13,-1
 523 109 l 1,14,-1
 375 109 l 1,15,-1
 375 0 l 1,16,-1
 231 0 l 1,17,-1
 231 109 l 1,18,-1
 83 109 l 1,19,-1
 83 194 l 1,20,-1
 231 194 l 1,21,-1
 231 247 l 1,22,-1
 83 247 l 1,0,-1
EndSplineSet
EndChar

StartChar: brokenbar
Encoding: 166 166 105
Width: 236
GlyphClass: 2
Flags: W
LayerCount: 2
Fore
SplineSet
60 407 m 1,0,-1
 60 694 l 1,1,-1
 176 694 l 1,2,-1
 176 407 l 1,3,-1
 60 407 l 1,0,-1
60 -43 m 1,4,-1
 60 242 l 1,5,-1
 176 242 l 1,6,-1
 176 -43 l 1,7,-1
 60 -43 l 1,4,-1
EndSplineSet
EndChar

StartChar: section
Encoding: 167 167 106
Width: 379
GlyphClass: 2
Flags: W
LayerCount: 2
Fore
SplineSet
102 427 m 1,0,1
 88 469 88 469 88 500 c 0,2,3
 88 623 88 623 214 669 c 0,4,5
 230 675 230 675 277 686 c 1,6,-1
 300 587 l 1,7,-1
 254 571 l 2,8,9
 199 551 199 551 199 510 c 0,10,11
 199 478 199 478 263 383 c 128,-1,12
 327 288 327 288 341.5 254.5 c 128,-1,13
 356 221 356 221 356 185 c 0,14,15
 356 93 356 93 276 43 c 1,16,17
 292 11 292 11 292 -31 c 128,-1,18
 292 -73 292 -73 276.5 -104 c 128,-1,19
 261 -135 261 -135 232 -160 c 0,20,21
 179 -204 179 -204 102 -214 c 1,22,-1
 79 -117 l 1,23,-1
 126 -102 l 1,24,25
 180 -83 180 -83 180 -41 c 0,26,27
 180 -23 180 -23 172 -10 c 1,28,29
 158 24 158 24 147 40 c 128,-1,30
 136 56 136 56 124.5 74 c 128,-1,31
 113 92 113 92 106.5 102 c 128,-1,32
 100 112 100 112 84 135 c 0,33,34
 57 174 57 174 40.5 209.5 c 128,-1,35
 24 245 24 245 24 287 c 0,36,37
 24 375 24 375 102 427 c 1,0,1
226 128 m 1,38,39
 244 148 244 148 244 167.5 c 128,-1,40
 244 187 244 187 233.5 214.5 c 128,-1,41
 223 242 223 242 153 340 c 1,42,43
 136 324 136 324 136 301.5 c 128,-1,44
 136 279 136 279 147.5 251 c 128,-1,45
 159 223 159 223 211 149 c 2,46,-1
 226 128 l 1,38,39
EndSplineSet
EndChar

StartChar: dieresis
Encoding: 168 168 107
Width: 358
GlyphClass: 2
Flags: W
LayerCount: 2
Fore
SplineSet
36.5 715 m 128,-1,1
 56 735 56 735 85.5 735 c 128,-1,2
 115 735 115 735 135 715 c 128,-1,3
 155 695 155 695 155 666 c 128,-1,4
 155 637 155 637 135 616.5 c 128,-1,5
 115 596 115 596 85.5 596 c 128,-1,6
 56 596 56 596 36.5 616.5 c 128,-1,7
 17 637 17 637 17 666 c 128,-1,0
 17 695 17 695 36.5 715 c 128,-1,1
221 715 m 128,-1,9
 241 735 241 735 270 735 c 128,-1,10
 299 735 299 735 319 715 c 128,-1,11
 339 695 339 695 339 666 c 128,-1,12
 339 637 339 637 319 616.5 c 128,-1,13
 299 596 299 596 270 596 c 128,-1,14
 241 596 241 596 221 616.5 c 128,-1,15
 201 637 201 637 201 666 c 128,-1,8
 201 695 201 695 221 715 c 128,-1,9
EndSplineSet
EndChar

StartChar: copyright
Encoding: 169 169 108
Width: 716
GlyphClass: 2
Flags: W
LayerCount: 2
Fore
SplineSet
452 414 m 1,0,1
 414 438 414 438 369.5 438 c 128,-1,2
 325 438 325 438 295 404 c 128,-1,3
 265 370 265 370 265 298 c 128,-1,4
 265 226 265 226 295 191.5 c 128,-1,5
 325 157 325 157 368.5 157 c 128,-1,6
 412 157 412 157 459 184 c 1,7,-1
 481 135 l 1,8,9
 429 98 429 98 362 98 c 128,-1,10
 295 98 295 98 245 148.5 c 128,-1,11
 195 199 195 199 195 298 c 128,-1,12
 195 397 195 397 245 447.5 c 128,-1,13
 295 498 295 498 361.5 498 c 128,-1,14
 428 498 428 498 476 466 c 1,15,-1
 452 414 l 1,0,1
678 302 m 128,-1,17
 678 168 678 168 585 75 c 128,-1,18
 492 -18 492 -18 358 -18 c 128,-1,19
 224 -18 224 -18 131 75 c 128,-1,20
 38 168 38 168 38 302 c 128,-1,21
 38 436 38 436 131 529 c 128,-1,22
 224 622 224 622 358 622 c 128,-1,23
 492 622 492 622 585 529 c 128,-1,16
 678 436 678 436 678 302 c 128,-1,17
603 302 m 128,-1,25
 603 412 603 412 533.5 483.5 c 128,-1,26
 464 555 464 555 358 555 c 128,-1,27
 252 555 252 555 182 482.5 c 128,-1,28
 112 410 112 410 112 300 c 128,-1,29
 112 190 112 190 182 117.5 c 128,-1,30
 252 45 252 45 358 45 c 128,-1,31
 464 45 464 45 533.5 118.5 c 128,-1,24
 603 192 603 192 603 302 c 128,-1,25
EndSplineSet
EndChar

StartChar: ordfeminine
Encoding: 170 170 109
Width: 342
GlyphClass: 2
Flags: W
LayerCount: 2
Fore
SplineSet
310 421 m 1,0,1
 280 404 280 404 247 404 c 128,-1,2
 214 404 214 404 197 428 c 1,3,4
 164 403 164 403 121.5 403 c 128,-1,5
 79 403 79 403 56.5 425.5 c 128,-1,6
 34 448 34 448 34.5 491 c 128,-1,7
 35 534 35 534 66.5 552.5 c 128,-1,8
 98 571 98 571 133 571 c 128,-1,9
 168 571 168 571 187 569 c 1,10,-1
 187 595 l 2,11,12
 187 621 187 621 176 629 c 128,-1,13
 165 637 165 637 140.5 637 c 128,-1,14
 116 637 116 637 75 624 c 1,15,-1
 57 677 l 1,16,17
 99 703 99 703 158 703 c 128,-1,18
 217 703 217 703 241 678.5 c 128,-1,19
 265 654 265 654 265 596 c 2,20,-1
 265 479 l 2,21,22
 265 467 265 467 276.5 467 c 128,-1,23
 288 467 288 467 299 471 c 1,24,-1
 310 421 l 1,0,1
177 527 m 1,25,-1
 162 528 l 1,26,27
 110 528 110 528 110 493.5 c 128,-1,28
 110 459 110 459 143 459 c 0,29,30
 166 459 166 459 187 472 c 1,31,-1
 187 527 l 1,32,-1
 177 527 l 1,25,-1
EndSplineSet
EndChar

StartChar: guillemotleft
Encoding: 171 171 110
Width: 560
GlyphClass: 2
Flags: W
LayerCount: 2
Fore
SplineSet
525 421 m 1,0,-1
 386 276 l 1,1,-1
 525 134 l 1,2,-1
 443 61 l 1,3,-1
 267 247 l 1,4,-1
 267 306 l 1,5,-1
 443 491 l 1,6,-1
 525 421 l 1,0,-1
294 421 m 1,7,-1
 154 276 l 1,8,-1
 294 134 l 1,9,-1
 212 61 l 1,10,-1
 36 247 l 1,11,-1
 36 306 l 1,12,-1
 212 491 l 1,13,-1
 294 421 l 1,7,-1
EndSplineSet
EndChar

StartChar: logicalnot
Encoding: 172 172 111
Width: 566
GlyphClass: 2
Flags: W
LayerCount: 2
Fore
SplineSet
508 225 m 1,0,-1
 398 225 l 1,1,-1
 398 333 l 1,2,-1
 51 333 l 1,3,-1
 51 442 l 1,4,-1
 508 442 l 1,5,-1
 508 225 l 1,0,-1
EndSplineSet
EndChar

StartChar: registered
Encoding: 174 174 113
Width: 716
GlyphClass: 2
Flags: W
LayerCount: 2
Fore
SplineSet
678 302 m 128,-1,1
 678 168 678 168 585 75 c 128,-1,2
 492 -18 492 -18 358 -18 c 128,-1,3
 224 -18 224 -18 131 75 c 128,-1,4
 38 168 38 168 38 302 c 128,-1,5
 38 436 38 436 131 529 c 128,-1,6
 224 622 224 622 358 622 c 128,-1,7
 492 622 492 622 585 529 c 128,-1,0
 678 436 678 436 678 302 c 128,-1,1
603 302 m 128,-1,9
 603 412 603 412 533.5 483.5 c 128,-1,10
 464 555 464 555 358 555 c 128,-1,11
 252 555 252 555 182 482.5 c 128,-1,12
 112 410 112 410 112 300 c 128,-1,13
 112 190 112 190 182 117.5 c 128,-1,14
 252 45 252 45 358 45 c 128,-1,15
 464 45 464 45 533.5 118.5 c 128,-1,8
 603 192 603 192 603 302 c 128,-1,9
331 497 m 2,16,17
 482 497 482 497 482 381 c 0,18,19
 482 319 482 319 445 289 c 0,20,21
 430 276 430 276 412 270 c 1,22,23
 415 264 415 264 454.5 212 c 128,-1,24
 494 160 494 160 515 136 c 1,25,-1
 473 105 l 1,26,27
 411 172 411 172 354 260 c 1,28,29
 328 258 328 258 315 258 c 2,30,-1
 294 258 l 1,31,-1
 294 111 l 1,32,-1
 235 111 l 1,33,-1
 235 497 l 1,34,-1
 331 497 l 2,16,17
396 321 m 1,35,36
 420 338 420 338 420 379.5 c 128,-1,37
 420 421 420 421 396 436.5 c 128,-1,38
 372 452 372 452 323 452 c 2,39,-1
 294 452 l 1,40,-1
 294 305 l 1,41,-1
 314 305 l 2,42,43
 377 305 377 305 396 321 c 1,35,36
EndSplineSet
EndChar

StartChar: macron
Encoding: 175 175 114
Width: 532
GlyphClass: 2
Flags: W
LayerCount: 2
Fore
SplineSet
487 650 m 1,0,-1
 487 541 l 1,1,-1
 45 541 l 1,2,-1
 45 650 l 1,3,-1
 487 650 l 1,0,-1
EndSplineSet
EndChar

StartChar: degree
Encoding: 176 176 115
Width: 311
GlyphClass: 2
Flags: W
LayerCount: 2
Fore
SplineSet
276 565 m 128,-1,1
 276 515 276 515 244.5 479 c 128,-1,2
 213 443 213 443 154.5 443 c 128,-1,3
 96 443 96 443 65.5 478 c 128,-1,4
 35 513 35 513 35 563.5 c 128,-1,5
 35 614 35 614 66 648.5 c 128,-1,6
 97 683 97 683 155.5 683 c 128,-1,7
 214 683 214 683 245 649 c 128,-1,0
 276 615 276 615 276 565 c 128,-1,1
155 507 m 0,8,9
 208 507 208 507 208 562.5 c 128,-1,10
 208 618 208 618 155 618 c 0,11,12
 129 618 129 618 116.5 602 c 128,-1,13
 104 586 104 586 104 563 c 128,-1,14
 104 540 104 540 116.5 523.5 c 128,-1,15
 129 507 129 507 155 507 c 0,8,9
EndSplineSet
EndChar

StartChar: plusminus
Encoding: 177 177 116
Width: 511
GlyphClass: 2
Flags: W
LayerCount: 2
Fore
SplineSet
311 187 m 1,0,-1
 200 187 l 1,1,-1
 200 333 l 1,2,-1
 51 333 l 1,3,-1
 51 443 l 1,4,-1
 200 443 l 1,5,-1
 200 588 l 1,6,-1
 311 588 l 1,7,-1
 311 443 l 1,8,-1
 460 443 l 1,9,-1
 460 333 l 1,10,-1
 311 333 l 1,11,-1
 311 187 l 1,0,-1
459 110 m 1,12,-1
 459 1 l 1,13,-1
 52 1 l 1,14,-1
 52 110 l 1,15,-1
 459 110 l 1,12,-1
EndSplineSet
EndChar

StartChar: twosuperior
Encoding: 178 178 117
Width: 378
GlyphClass: 2
Flags: W
LayerCount: 2
Fore
SplineSet
46 256 m 1,0,-1
 46 331 l 1,1,2
 116 401 116 401 171 467 c 1,3,4
 215 522 215 522 215 546.5 c 128,-1,5
 215 571 215 571 203 583 c 128,-1,6
 191 595 191 595 171.5 595 c 128,-1,7
 152 595 152 595 85 571 c 1,8,-1
 59 648 l 1,9,10
 127 680 127 680 183.5 680 c 128,-1,11
 240 680 240 680 275 646 c 128,-1,12
 310 612 310 612 310 558 c 0,13,14
 310 482 310 482 204 373 c 1,15,16
 184 350 184 350 178 344 c 1,17,-1
 323 344 l 1,18,-1
 323 256 l 1,19,-1
 46 256 l 1,0,-1
EndSplineSet
EndChar

StartChar: threesuperior
Encoding: 179 179 118
Width: 367
GlyphClass: 2
Flags: W
LayerCount: 2
Fore
SplineSet
152 444 m 2,0,-1
 103 444 l 1,1,-1
 103 514 l 1,2,-1
 151 514 l 2,3,4
 194 514 194 514 194 562 c 0,5,6
 194 596 194 596 153 596 c 128,-1,7
 112 596 112 596 74 577 c 1,8,-1
 48 648 l 1,9,10
 112 680 112 680 167.5 680 c 128,-1,11
 223 680 223 680 256.5 650 c 128,-1,12
 290 620 290 620 290 570.5 c 128,-1,13
 290 521 290 521 255 488 c 1,14,15
 304 458 304 458 304 392.5 c 128,-1,16
 304 327 304 327 265 288 c 128,-1,17
 226 249 226 249 164 249 c 128,-1,18
 102 249 102 249 35 291 c 1,19,-1
 70 365 l 1,20,21
 121 334 121 334 161 334 c 0,22,23
 183 334 183 334 196.5 348.5 c 128,-1,24
 210 363 210 363 210 388 c 0,25,26
 210 444 210 444 152 444 c 2,0,-1
EndSplineSet
EndChar

StartChar: acute
Encoding: 180 180 119
Width: 342
GlyphClass: 2
Flags: W
LayerCount: 2
Fore
SplineSet
288 663 m 1,0,-1
 84 587 l 1,1,-1
 50 665 l 1,2,-1
 239 774 l 1,3,-1
 288 663 l 1,0,-1
EndSplineSet
EndChar

StartChar: mu
Encoding: 181 181 120
Width: 603
GlyphClass: 2
Flags: W
LayerCount: 2
Fore
SplineSet
249 -3 m 0,0,1
 222 -3 222 -3 201 6 c 1,2,-1
 201 -201 l 1,3,-1
 61 -201 l 1,4,-1
 61 513 l 1,5,-1
 201 513 l 1,6,-1
 201 183 l 2,7,8
 201 143 201 143 213 122 c 128,-1,9
 225 101 225 101 272.5 101 c 128,-1,10
 320 101 320 101 361 132 c 1,11,-1
 361 513 l 1,12,-1
 501 513 l 1,13,-1
 501 122 l 2,14,15
 501 94 501 94 526 94 c 0,16,17
 539 94 539 94 563 100 c 1,18,-1
 582 17 l 1,19,20
 531 -11 531 -11 473 -11 c 0,21,22
 398 -11 398 -11 374 53 c 1,23,24
 318 -3 318 -3 249 -3 c 0,0,1
EndSplineSet
EndChar

StartChar: paragraph
Encoding: 182 182 121
Width: 506
GlyphClass: 2
Flags: W
LayerCount: 2
Fore
SplineSet
478 604 m 1,0,-1
 406 604 l 1,1,-1
 406 -162 l 1,2,-1
 332 -162 l 1,3,-1
 332 604 l 1,4,-1
 258 604 l 1,5,-1
 258 -162 l 1,6,-1
 180 -162 l 1,7,-1
 180 351 l 1,8,9
 114 351 114 351 67.5 397.5 c 128,-1,10
 21 444 21 444 21 510 c 128,-1,11
 21 576 21 576 67.5 622 c 128,-1,12
 114 668 114 668 180 668 c 2,13,-1
 478 668 l 1,14,-1
 478 604 l 1,0,-1
EndSplineSet
EndChar

StartChar: periodcentered
Encoding: 183 183 122
Width: 248
GlyphClass: 2
Flags: W
LayerCount: 2
Fore
SplineSet
66 321 m 128,-1,1
 90 345 90 345 124 345 c 128,-1,2
 158 345 158 345 182 321 c 128,-1,3
 206 297 206 297 206 263.5 c 128,-1,4
 206 230 206 230 182 205 c 128,-1,5
 158 180 158 180 124 180 c 128,-1,6
 90 180 90 180 66 204.5 c 128,-1,7
 42 229 42 229 42 263 c 128,-1,0
 42 297 42 297 66 321 c 128,-1,1
EndSplineSet
EndChar

StartChar: cedilla
Encoding: 184 184 123
Width: 276
GlyphClass: 2
Flags: W
LayerCount: 2
Fore
SplineSet
232 -133 m 0,0,1
 232 -230 232 -230 104 -295 c 1,2,-1
 53 -230 l 1,3,4
 111 -187 111 -187 111 -139 c 0,5,6
 111 -111 111 -111 90 -57 c 1,7,-1
 214 -57 l 1,8,9
 232 -96 232 -96 232 -133 c 0,0,1
EndSplineSet
EndChar

StartChar: onesuperior
Encoding: 185 185 124
Width: 320
GlyphClass: 2
Flags: W
LayerCount: 2
Fore
SplineSet
232 251 m 1,0,-1
 129 251 l 1,1,-1
 129 559 l 1,2,-1
 43 523 l 1,3,-1
 12 604 l 1,4,-1
 155 666 l 1,5,-1
 232 666 l 1,6,-1
 232 251 l 1,0,-1
EndSplineSet
EndChar

StartChar: ordmasculine
Encoding: 186 186 125
Width: 325
GlyphClass: 2
Flags: W
LayerCount: 2
Fore
SplineSet
253 438.5 m 128,-1,1
 218 402 218 402 161 402 c 128,-1,2
 104 402 104 402 70.5 437.5 c 128,-1,3
 37 473 37 473 37 551.5 c 128,-1,4
 37 630 37 630 72 666.5 c 128,-1,5
 107 703 107 703 163 703 c 0,6,7
 288 703 288 703 288 553 c 0,8,0
 288 475 288 475 253 438.5 c 128,-1,1
163 639 m 128,-1,10
 140 639 140 639 128 621 c 128,-1,11
 116 603 116 603 116 552 c 0,12,13
 116 465 116 465 162.5 465 c 128,-1,14
 209 465 209 465 209 552 c 0,15,16
 209 603 209 603 197.5 621 c 128,-1,9
 186 639 186 639 163 639 c 128,-1,10
EndSplineSet
EndChar

StartChar: guillemotright
Encoding: 187 187 126
Width: 561
GlyphClass: 2
Flags: W
LayerCount: 2
Fore
SplineSet
176 278 m 1,0,-1
 37 423 l 1,1,-1
 119 493 l 1,2,-1
 295 308 l 1,3,-1
 295 249 l 1,4,-1
 119 63 l 1,5,-1
 37 136 l 1,6,-1
 176 278 l 1,0,-1
408 278 m 1,7,-1
 268 423 l 1,8,-1
 350 493 l 1,9,-1
 526 308 l 1,10,-1
 526 249 l 1,11,-1
 350 63 l 1,12,-1
 268 136 l 1,13,-1
 408 278 l 1,7,-1
EndSplineSet
EndChar

StartChar: onequarter
Encoding: 188 188 127
Width: 874
GlyphClass: 2
Flags: W
LayerCount: 2
Fore
SplineSet
847 109 m 1,0,-1
 784 109 l 1,1,-1
 784 0 l 1,2,-1
 689 0 l 1,3,-1
 689 109 l 1,4,-1
 525 109 l 1,5,-1
 525 164 l 1,6,-1
 665 408 l 1,7,-1
 784 408 l 1,8,-1
 784 181 l 1,9,-1
 847 181 l 1,10,-1
 847 109 l 1,0,-1
689 181 m 1,11,-1
 689 305 l 1,12,-1
 623 181 l 1,13,-1
 689 181 l 1,11,-1
239 272 m 1,14,-1
 136 272 l 1,15,-1
 136 580 l 1,16,-1
 50 544 l 1,17,-1
 19 625 l 1,18,-1
 162 687 l 1,19,-1
 239 687 l 1,20,-1
 239 272 l 1,14,-1
621 765 m 1,21,-1
 338 -84 l 1,22,-1
 231 -55 l 1,23,-1
 516 796 l 1,24,-1
 621 765 l 1,21,-1
EndSplineSet
EndChar

StartChar: onehalf
Encoding: 189 189 128
Width: 841
GlyphClass: 2
Flags: W
LayerCount: 2
Fore
SplineSet
239 272 m 1,0,-1
 136 272 l 1,1,-1
 136 580 l 1,2,-1
 50 544 l 1,3,-1
 19 625 l 1,4,-1
 162 687 l 1,5,-1
 239 687 l 1,6,-1
 239 272 l 1,0,-1
533 -2 m 1,7,-1
 533 73 l 1,8,9
 603 143 603 143 658 209 c 1,10,11
 702 264 702 264 702 292 c 0,12,13
 702 334 702 334 659 334 c 0,14,15
 630 334 630 334 572 313 c 1,16,-1
 546 390 l 1,17,18
 614 422 614 422 670.5 422 c 128,-1,19
 727 422 727 422 762 388 c 128,-1,20
 797 354 797 354 797 300 c 0,21,22
 797 224 797 224 691 115 c 0,23,24
 671 93 671 93 665 86 c 1,25,-1
 810 86 l 1,26,-1
 810 -2 l 1,27,-1
 533 -2 l 1,7,-1
605 765 m 1,28,-1
 322 -84 l 1,29,-1
 215 -55 l 1,30,-1
 500 796 l 1,31,-1
 605 765 l 1,28,-1
EndSplineSet
EndChar

StartChar: threequarters
Encoding: 190 190 129
Width: 874
GlyphClass: 2
Flags: W
LayerCount: 2
Fore
SplineSet
138 460 m 2,0,-1
 93 460 l 1,1,-1
 93 530 l 1,2,-1
 137 530 l 2,3,4
 184 530 184 530 184 578 c 0,5,6
 184 612 184 612 143 612 c 128,-1,7
 102 612 102 612 64 593 c 1,8,-1
 38 664 l 1,9,10
 102 696 102 696 157.5 696 c 128,-1,11
 213 696 213 696 246.5 666 c 128,-1,12
 280 636 280 636 280 586.5 c 128,-1,13
 280 537 280 537 245 504 c 1,14,15
 294 474 294 474 294 408.5 c 128,-1,16
 294 343 294 343 255 304 c 128,-1,17
 216 265 216 265 154 265 c 128,-1,18
 92 265 92 265 25 307 c 1,19,-1
 60 381 l 1,20,21
 111 350 111 350 151 350 c 0,22,23
 173 350 173 350 186.5 364.5 c 128,-1,24
 200 379 200 379 200 404 c 128,-1,25
 200 429 200 429 183.5 444.5 c 128,-1,26
 167 460 167 460 138 460 c 2,0,-1
853 109 m 1,27,-1
 790 109 l 1,28,-1
 790 0 l 1,29,-1
 695 0 l 1,30,-1
 695 109 l 1,31,-1
 531 109 l 1,32,-1
 531 164 l 1,33,-1
 671 408 l 1,34,-1
 790 408 l 1,35,-1
 790 181 l 1,36,-1
 853 181 l 1,37,-1
 853 109 l 1,27,-1
695 181 m 1,38,-1
 695 305 l 1,39,-1
 629 181 l 1,40,-1
 695 181 l 1,38,-1
629 752 m 1,41,-1
 346 -97 l 1,42,-1
 239 -68 l 1,43,-1
 524 783 l 1,44,-1
 629 752 l 1,41,-1
EndSplineSet
EndChar

StartChar: questiondown
Encoding: 191 191 130
Width: 361
GlyphClass: 2
Flags: W
LayerCount: 2
Fore
SplineSet
300 393.5 m 128,-1,1
 277 371 277 371 244.5 371 c 128,-1,2
 212 371 212 371 189.5 393.5 c 128,-1,3
 167 416 167 416 167 448.5 c 128,-1,4
 167 481 167 481 189.5 504.5 c 128,-1,5
 212 528 212 528 244.5 528 c 128,-1,6
 277 528 277 528 300 504.5 c 128,-1,7
 323 481 323 481 323 448.5 c 128,-1,0
 323 416 323 416 300 393.5 c 128,-1,1
188 258 m 1,8,-1
 190 312 l 1,9,-1
 304 312 l 1,10,11
 307 276 307 276 307 245 c 1,12,13
 303 212 303 212 286.5 180 c 128,-1,14
 270 148 270 148 255 130.5 c 128,-1,15
 240 113 240 113 217 91.5 c 128,-1,16
 194 70 194 70 184 60 c 0,17,18
 150 26 150 26 150 -14 c 0,19,20
 150 -97 150 -97 314 -112 c 1,21,-1
 289 -204 l 1,22,23
 164 -198 164 -198 92.5 -146.5 c 128,-1,24
 21 -95 21 -95 21 -22 c 0,25,26
 21 19 21 19 37 48.5 c 128,-1,27
 53 78 53 78 66.5 91.5 c 128,-1,28
 80 105 80 105 104.5 126.5 c 128,-1,29
 129 148 129 148 143 162.5 c 128,-1,30
 157 177 157 177 171 203 c 128,-1,31
 185 229 185 229 188 258 c 1,8,-1
EndSplineSet
EndChar

StartChar: Agrave
Encoding: 192 192 131
Width: 568
GlyphClass: 2
Flags: W
LayerCount: 2
Fore
SplineSet
357 732 m 1,0,-1
 153 808 l 1,1,-1
 202 919 l 1,2,-1
 391 810 l 1,3,-1
 357 732 l 1,0,-1
570 0 m 1,4,-1
 428 0 l 1,5,-1
 381 158 l 1,6,-1
 188 158 l 1,7,-1
 142 0 l 1,8,-1
 -4 0 l 1,9,-1
 208 668 l 1,10,-1
 361 668 l 1,11,-1
 570 0 l 1,4,-1
350 267 m 1,12,-1
 284 530 l 1,13,-1
 219 267 l 1,14,-1
 350 267 l 1,12,-1
EndSplineSet
EndChar

StartChar: Aacute
Encoding: 193 193 132
Width: 568
GlyphClass: 2
Flags: W
LayerCount: 2
Fore
SplineSet
570 0 m 1,0,-1
 428 0 l 1,1,-1
 381 158 l 1,2,-1
 188 158 l 1,3,-1
 142 0 l 1,4,-1
 -4 0 l 1,5,-1
 208 668 l 1,6,-1
 361 668 l 1,7,-1
 570 0 l 1,0,-1
350 267 m 1,8,-1
 284 530 l 1,9,-1
 219 267 l 1,10,-1
 350 267 l 1,8,-1
456 811 m 1,11,-1
 252 735 l 1,12,-1
 218 813 l 1,13,-1
 407 922 l 1,14,-1
 456 811 l 1,11,-1
EndSplineSet
EndChar

StartChar: Acircumflex
Encoding: 194 194 133
Width: 568
GlyphClass: 2
Flags: W
LayerCount: 2
Fore
SplineSet
570 0 m 1,0,-1
 428 0 l 1,1,-1
 381 158 l 1,2,-1
 188 158 l 1,3,-1
 142 0 l 1,4,-1
 -4 0 l 1,5,-1
 208 668 l 1,6,-1
 361 668 l 1,7,-1
 570 0 l 1,0,-1
350 267 m 1,8,-1
 284 530 l 1,9,-1
 219 267 l 1,10,-1
 350 267 l 1,8,-1
285 796 m 1,11,-1
 201 711 l 1,12,-1
 137 763 l 1,13,-1
 248 882 l 1,14,-1
 322 882 l 1,15,-1
 433 763 l 1,16,-1
 369 711 l 1,17,-1
 285 796 l 1,11,-1
EndSplineSet
EndChar

StartChar: Atilde
Encoding: 195 195 134
Width: 568
GlyphClass: 2
Flags: W
LayerCount: 2
Fore
SplineSet
570 0 m 1,0,-1
 428 0 l 1,1,-1
 381 158 l 1,2,-1
 188 158 l 1,3,-1
 142 0 l 1,4,-1
 -4 0 l 1,5,-1
 208 668 l 1,6,-1
 361 668 l 1,7,-1
 570 0 l 1,0,-1
350 267 m 1,8,-1
 284 530 l 1,9,-1
 219 267 l 1,10,-1
 350 267 l 1,8,-1
289 849.5 m 128,-1,12
 334 828 334 828 356.5 828 c 128,-1,13
 379 828 379 828 408 863 c 1,14,-1
 457 809 l 1,15,16
 439 779 439 779 408.5 756.5 c 128,-1,17
 378 734 378 734 350.5 734 c 128,-1,18
 323 734 323 734 279 755.5 c 128,-1,19
 235 777 235 777 212.5 777 c 128,-1,20
 190 777 190 777 161 742 c 1,21,-1
 112 796 l 1,22,23
 130 826 130 826 159.5 848.5 c 128,-1,24
 189 871 189 871 216.5 871 c 128,-1,11
 244 871 244 871 289 849.5 c 128,-1,12
EndSplineSet
EndChar

StartChar: Adieresis
Encoding: 196 196 135
Width: 568
GlyphClass: 2
Flags: W
LayerCount: 2
Fore
SplineSet
570 0 m 1,0,-1
 428 0 l 1,1,-1
 381 158 l 1,2,-1
 188 158 l 1,3,-1
 142 0 l 1,4,-1
 -4 0 l 1,5,-1
 208 668 l 1,6,-1
 361 668 l 1,7,-1
 570 0 l 1,0,-1
350 267 m 1,8,-1
 284 530 l 1,9,-1
 219 267 l 1,10,-1
 350 267 l 1,8,-1
143.5 834 m 128,-1,12
 163 854 163 854 192.5 854 c 128,-1,13
 222 854 222 854 242 834 c 128,-1,14
 262 814 262 814 262 785 c 128,-1,15
 262 756 262 756 242 735.5 c 128,-1,16
 222 715 222 715 192.5 715 c 128,-1,17
 163 715 163 715 143.5 735.5 c 128,-1,18
 124 756 124 756 124 785 c 128,-1,11
 124 814 124 814 143.5 834 c 128,-1,12
328 834 m 128,-1,20
 348 854 348 854 377 854 c 128,-1,21
 406 854 406 854 426 834 c 128,-1,22
 446 814 446 814 446 785 c 128,-1,23
 446 756 446 756 426 735.5 c 128,-1,24
 406 715 406 715 377 715 c 128,-1,25
 348 715 348 715 328 735.5 c 128,-1,26
 308 756 308 756 308 785 c 128,-1,19
 308 814 308 814 328 834 c 128,-1,20
EndSplineSet
EndChar

StartChar: Aring
Encoding: 197 197 136
Width: 568
GlyphClass: 2
Flags: W
LayerCount: 2
Fore
SplineSet
387 816 m 128,-1,1
 387 773 387 773 360 742.5 c 128,-1,2
 333 712 333 712 283 712 c 128,-1,3
 233 712 233 712 207 742 c 128,-1,4
 181 772 181 772 181 815 c 128,-1,5
 181 858 181 858 207.5 887.5 c 128,-1,6
 234 917 234 917 284 917 c 128,-1,7
 334 917 334 917 360.5 888 c 128,-1,0
 387 859 387 859 387 816 c 128,-1,1
284 775 m 0,8,9
 320 775 320 775 320 814 c 128,-1,10
 320 853 320 853 284.5 853 c 128,-1,11
 249 853 249 853 249 814 c 0,12,13
 249 798 249 798 257.5 786.5 c 128,-1,14
 266 775 266 775 284 775 c 0,8,9
570 0 m 1,15,-1
 428 0 l 1,16,-1
 381 158 l 1,17,-1
 188 158 l 1,18,-1
 142 0 l 1,19,-1
 -4 0 l 1,20,-1
 208 668 l 1,21,-1
 361 668 l 1,22,-1
 570 0 l 1,15,-1
350 267 m 1,23,-1
 284 530 l 1,24,-1
 219 267 l 1,25,-1
 350 267 l 1,23,-1
EndSplineSet
EndChar

StartChar: AE
Encoding: 198 198 137
Width: 817
GlyphClass: 2
Flags: W
LayerCount: 2
Fore
SplineSet
361 267 m 1,0,-1
 361 571 l 1,1,-1
 244 267 l 1,2,-1
 361 267 l 1,0,-1
370 -1 m 1,3,-1
 370 158 l 1,4,-1
 201 158 l 1,5,-1
 138 0 l 1,6,-1
 -7 0 l 1,7,-1
 281 668 l 1,8,-1
 766 668 l 1,9,-1
 766 552 l 1,10,-1
 489 552 l 1,11,-1
 489 401 l 1,12,-1
 750 401 l 1,13,-1
 750 289 l 1,14,-1
 489 289 l 1,15,-1
 489 115 l 1,16,-1
 775 115 l 1,17,-1
 775 -1 l 1,18,-1
 370 -1 l 1,3,-1
EndSplineSet
EndChar

StartChar: Ccedilla
Encoding: 199 199 138
Width: 519
GlyphClass: 2
Flags: W
LayerCount: 2
Fore
SplineSet
483 5 m 1,0,1
 404 -13 404 -13 336.5 -13 c 128,-1,2
 269 -13 269 -13 219.5 4.5 c 128,-1,3
 170 22 170 22 128 61 c 0,4,5
 39 144 39 144 39 336 c 0,6,7
 39 431 39 431 65 500.5 c 128,-1,8
 91 570 91 570 136 608 c 0,9,10
 220 679 220 679 339 679 c 0,11,12
 414 679 414 679 490 657 c 1,13,-1
 467 554 l 1,14,15
 410 565 410 565 361 565 c 0,16,17
 280 565 280 565 233 514.5 c 128,-1,18
 186 464 186 464 186 337.5 c 128,-1,19
 186 211 186 211 234 158.5 c 128,-1,20
 282 106 282 106 367 106 c 0,21,22
 426 106 426 106 474 114 c 1,23,-1
 483 5 l 1,0,1
424 -133 m 0,24,25
 424 -230 424 -230 296 -295 c 1,26,-1
 245 -230 l 1,27,28
 303 -187 303 -187 303 -139 c 0,29,30
 303 -111 303 -111 282 -57 c 1,31,-1
 406 -57 l 1,32,33
 424 -96 424 -96 424 -133 c 0,24,25
EndSplineSet
EndChar

StartChar: Egrave
Encoding: 200 200 139
Width: 536
GlyphClass: 2
Flags: W
LayerCount: 2
Fore
SplineSet
208 116 m 1,0,-1
 494 116 l 1,1,-1
 494 0 l 1,2,-1
 64 0 l 1,3,-1
 64 669 l 1,4,-1
 485 669 l 1,5,-1
 485 553 l 1,6,-1
 208 553 l 1,7,-1
 208 402 l 1,8,-1
 469 402 l 1,9,-1
 469 290 l 1,10,-1
 208 290 l 1,11,-1
 208 116 l 1,0,-1
354 732 m 1,12,-1
 150 808 l 1,13,-1
 199 919 l 1,14,-1
 388 810 l 1,15,-1
 354 732 l 1,12,-1
EndSplineSet
EndChar

StartChar: Eacute
Encoding: 201 201 140
Width: 536
GlyphClass: 2
Flags: W
LayerCount: 2
Fore
SplineSet
208 116 m 1,0,-1
 494 116 l 1,1,-1
 494 0 l 1,2,-1
 64 0 l 1,3,-1
 64 669 l 1,4,-1
 485 669 l 1,5,-1
 485 553 l 1,6,-1
 208 553 l 1,7,-1
 208 402 l 1,8,-1
 469 402 l 1,9,-1
 469 290 l 1,10,-1
 208 290 l 1,11,-1
 208 116 l 1,0,-1
382 811 m 1,12,-1
 178 735 l 1,13,-1
 144 813 l 1,14,-1
 333 922 l 1,15,-1
 382 811 l 1,12,-1
EndSplineSet
EndChar

StartChar: Ecircumflex
Encoding: 202 202 141
Width: 536
GlyphClass: 2
Flags: W
LayerCount: 2
Fore
SplineSet
208 116 m 1,0,-1
 494 116 l 1,1,-1
 494 0 l 1,2,-1
 64 0 l 1,3,-1
 64 669 l 1,4,-1
 485 669 l 1,5,-1
 485 553 l 1,6,-1
 208 553 l 1,7,-1
 208 402 l 1,8,-1
 469 402 l 1,9,-1
 469 290 l 1,10,-1
 208 290 l 1,11,-1
 208 116 l 1,0,-1
256 796 m 1,12,-1
 172 711 l 1,13,-1
 108 763 l 1,14,-1
 219 882 l 1,15,-1
 293 882 l 1,16,-1
 404 763 l 1,17,-1
 340 711 l 1,18,-1
 256 796 l 1,12,-1
EndSplineSet
EndChar

StartChar: Edieresis
Encoding: 203 203 142
Width: 536
GlyphClass: 2
Flags: W
LayerCount: 2
Fore
SplineSet
208 116 m 1,0,-1
 494 116 l 1,1,-1
 494 0 l 1,2,-1
 64 0 l 1,3,-1
 64 669 l 1,4,-1
 485 669 l 1,5,-1
 485 553 l 1,6,-1
 208 553 l 1,7,-1
 208 402 l 1,8,-1
 469 402 l 1,9,-1
 469 290 l 1,10,-1
 208 290 l 1,11,-1
 208 116 l 1,0,-1
126.5 834 m 128,-1,13
 146 854 146 854 175.5 854 c 128,-1,14
 205 854 205 854 225 834 c 128,-1,15
 245 814 245 814 245 785 c 128,-1,16
 245 756 245 756 225 735.5 c 128,-1,17
 205 715 205 715 175.5 715 c 128,-1,18
 146 715 146 715 126.5 735.5 c 128,-1,19
 107 756 107 756 107 785 c 128,-1,12
 107 814 107 814 126.5 834 c 128,-1,13
311 834 m 128,-1,21
 331 854 331 854 360 854 c 128,-1,22
 389 854 389 854 409 834 c 128,-1,23
 429 814 429 814 429 785 c 128,-1,24
 429 756 429 756 409 735.5 c 128,-1,25
 389 715 389 715 360 715 c 128,-1,26
 331 715 331 715 311 735.5 c 128,-1,27
 291 756 291 756 291 785 c 128,-1,20
 291 814 291 814 311 834 c 128,-1,21
EndSplineSet
EndChar

StartChar: Igrave
Encoding: 204 204 143
Width: 272
GlyphClass: 2
Flags: W
LayerCount: 2
Fore
SplineSet
208 668 m 1,0,-1
 208 0 l 1,1,-1
 64 0 l 1,2,-1
 64 668 l 1,3,-1
 208 668 l 1,0,-1
182 732 m 1,4,-1
 -22 808 l 1,5,-1
 27 919 l 1,6,-1
 216 810 l 1,7,-1
 182 732 l 1,4,-1
EndSplineSet
EndChar

StartChar: Iacute
Encoding: 205 205 144
Width: 272
GlyphClass: 2
Flags: W
LayerCount: 2
Fore
SplineSet
208 668 m 1,0,-1
 208 0 l 1,1,-1
 64 0 l 1,2,-1
 64 668 l 1,3,-1
 208 668 l 1,0,-1
285 811 m 1,4,-1
 81 735 l 1,5,-1
 47 813 l 1,6,-1
 236 922 l 1,7,-1
 285 811 l 1,4,-1
EndSplineSet
EndChar

StartChar: Icircumflex
Encoding: 206 206 145
Width: 272
GlyphClass: 2
Flags: W
LayerCount: 2
Fore
SplineSet
208 668 m 1,0,-1
 208 0 l 1,1,-1
 64 0 l 1,2,-1
 64 668 l 1,3,-1
 208 668 l 1,0,-1
132 796 m 1,4,-1
 48 711 l 1,5,-1
 -16 763 l 1,6,-1
 95 882 l 1,7,-1
 169 882 l 1,8,-1
 280 763 l 1,9,-1
 216 711 l 1,10,-1
 132 796 l 1,4,-1
EndSplineSet
EndChar

StartChar: Idieresis
Encoding: 207 207 146
Width: 272
GlyphClass: 2
Flags: W
LayerCount: 2
Fore
SplineSet
208 668 m 1,0,-1
 208 0 l 1,1,-1
 64 0 l 1,2,-1
 64 668 l 1,3,-1
 208 668 l 1,0,-1
-15.5 834 m 128,-1,5
 4 854 4 854 33.5 854 c 128,-1,6
 63 854 63 854 83 834 c 128,-1,7
 103 814 103 814 103 785 c 128,-1,8
 103 756 103 756 83 735.5 c 128,-1,9
 63 715 63 715 33.5 715 c 128,-1,10
 4 715 4 715 -15.5 735.5 c 128,-1,11
 -35 756 -35 756 -35 785 c 128,-1,4
 -35 814 -35 814 -15.5 834 c 128,-1,5
169 834 m 128,-1,13
 189 854 189 854 218 854 c 128,-1,14
 247 854 247 854 267 834 c 128,-1,15
 287 814 287 814 287 785 c 128,-1,16
 287 756 287 756 267 735.5 c 128,-1,17
 247 715 247 715 218 715 c 128,-1,18
 189 715 189 715 169 735.5 c 128,-1,19
 149 756 149 756 149 785 c 128,-1,12
 149 814 149 814 169 834 c 128,-1,13
EndSplineSet
EndChar

StartChar: Eth
Encoding: 208 208 147
Width: 653
GlyphClass: 2
Flags: W
LayerCount: 2
Fore
SplineSet
21 280 m 1,0,-1
 21 392 l 1,1,-1
 116 392 l 1,2,-1
 116 667 l 1,3,-1
 304 667 l 2,4,5
 430 667 430 667 480 641 c 0,6,7
 612 573 612 573 612 333 c 0,8,9
 612 225 612 225 580.5 143 c 128,-1,10
 549 61 549 61 481 27 c 0,11,12
 427 0 427 0 304 0 c 2,13,-1
 116 0 l 1,14,-1
 116 280 l 1,15,-1
 21 280 l 1,0,-1
260 538 m 1,16,-1
 260 392 l 1,17,-1
 375 392 l 1,18,-1
 375 280 l 1,19,-1
 260 280 l 1,20,-1
 260 129 l 1,21,-1
 310 129 l 2,22,23
 405 129 405 129 437.5 178.5 c 128,-1,24
 470 228 470 228 470 334 c 128,-1,25
 470 440 470 440 438 489 c 128,-1,26
 406 538 406 538 310 538 c 2,27,-1
 260 538 l 1,16,-1
EndSplineSet
EndChar

StartChar: Ntilde
Encoding: 209 209 148
Width: 682
GlyphClass: 2
Flags: W
LayerCount: 2
Fore
SplineSet
618 0 m 1,0,-1
 466 0 l 1,1,-1
 203 467 l 1,2,-1
 203 0 l 1,3,-1
 64 0 l 1,4,-1
 64 668 l 1,5,-1
 216 668 l 1,6,-1
 478 200 l 1,7,-1
 478 668 l 1,8,-1
 618 668 l 1,9,-1
 618 0 l 1,0,-1
335 849.5 m 128,-1,11
 380 828 380 828 402.5 828 c 128,-1,12
 425 828 425 828 454 863 c 1,13,-1
 503 809 l 1,14,15
 485 779 485 779 454.5 756.5 c 128,-1,16
 424 734 424 734 396.5 734 c 128,-1,17
 369 734 369 734 325 755.5 c 128,-1,18
 281 777 281 777 258.5 777 c 128,-1,19
 236 777 236 777 207 742 c 1,20,-1
 158 796 l 1,21,22
 176 826 176 826 205.5 848.5 c 128,-1,23
 235 871 235 871 262.5 871 c 128,-1,10
 290 871 290 871 335 849.5 c 128,-1,11
EndSplineSet
EndChar

StartChar: Ograve
Encoding: 210 210 149
Width: 618
GlyphClass: 2
Flags: W
LayerCount: 2
Fore
SplineSet
181.5 651.5 m 128,-1,1
 236 680 236 680 303 680 c 128,-1,2
 370 680 370 680 417.5 660.5 c 128,-1,3
 465 641 465 641 495 609 c 128,-1,4
 525 577 525 577 544 532 c 0,5,6
 579 448 579 448 579 334 c 0,7,8
 579 192 579 192 522 96 c 0,9,10
 492 46 492 46 437 17 c 128,-1,11
 382 -12 382 -12 314.5 -12 c 128,-1,12
 247 -12 247 -12 200 7.5 c 128,-1,13
 153 27 153 27 123 59 c 128,-1,14
 93 91 93 91 74 136 c 0,15,16
 39 220 39 220 39 334 c 0,17,18
 39 475 39 475 97 572 c 0,19,0
 127 623 127 623 181.5 651.5 c 128,-1,1
309 110 m 128,-1,21
 382 110 382 110 411 169.5 c 128,-1,22
 440 229 440 229 440 316 c 128,-1,23
 440 403 440 403 430 450.5 c 128,-1,24
 420 498 420 498 390 530.5 c 128,-1,25
 360 563 360 563 315.5 563 c 128,-1,26
 271 563 271 563 244.5 545.5 c 128,-1,27
 218 528 218 528 204 495 c 0,28,29
 178 434 178 434 178 331.5 c 128,-1,30
 178 229 178 229 207 169.5 c 128,-1,20
 236 110 236 110 309 110 c 128,-1,21
386 732 m 1,31,-1
 182 808 l 1,32,-1
 231 919 l 1,33,-1
 420 810 l 1,34,-1
 386 732 l 1,31,-1
EndSplineSet
EndChar

StartChar: Oacute
Encoding: 211 211 150
Width: 618
GlyphClass: 2
Flags: W
LayerCount: 2
Fore
SplineSet
181.5 651.5 m 128,-1,1
 236 680 236 680 303 680 c 128,-1,2
 370 680 370 680 417.5 660.5 c 128,-1,3
 465 641 465 641 495 609 c 128,-1,4
 525 577 525 577 544 532 c 0,5,6
 579 448 579 448 579 334 c 0,7,8
 579 192 579 192 522 96 c 0,9,10
 492 46 492 46 437 17 c 128,-1,11
 382 -12 382 -12 314.5 -12 c 128,-1,12
 247 -12 247 -12 200 7.5 c 128,-1,13
 153 27 153 27 123 59 c 128,-1,14
 93 91 93 91 74 136 c 0,15,16
 39 220 39 220 39 334 c 0,17,18
 39 475 39 475 97 572 c 0,19,0
 127 623 127 623 181.5 651.5 c 128,-1,1
309 110 m 128,-1,21
 382 110 382 110 411 169.5 c 128,-1,22
 440 229 440 229 440 316 c 128,-1,23
 440 403 440 403 430 450.5 c 128,-1,24
 420 498 420 498 390 530.5 c 128,-1,25
 360 563 360 563 315.5 563 c 128,-1,26
 271 563 271 563 244.5 545.5 c 128,-1,27
 218 528 218 528 204 495 c 0,28,29
 178 434 178 434 178 331.5 c 128,-1,30
 178 229 178 229 207 169.5 c 128,-1,20
 236 110 236 110 309 110 c 128,-1,21
431 811 m 1,31,-1
 227 735 l 1,32,-1
 193 813 l 1,33,-1
 382 922 l 1,34,-1
 431 811 l 1,31,-1
EndSplineSet
EndChar

StartChar: Ocircumflex
Encoding: 212 212 151
Width: 618
GlyphClass: 2
Flags: W
LayerCount: 2
Fore
SplineSet
181.5 651.5 m 128,-1,1
 236 680 236 680 303 680 c 128,-1,2
 370 680 370 680 417.5 660.5 c 128,-1,3
 465 641 465 641 495 609 c 128,-1,4
 525 577 525 577 544 532 c 0,5,6
 579 448 579 448 579 334 c 0,7,8
 579 192 579 192 522 96 c 0,9,10
 492 46 492 46 437 17 c 128,-1,11
 382 -12 382 -12 314.5 -12 c 128,-1,12
 247 -12 247 -12 200 7.5 c 128,-1,13
 153 27 153 27 123 59 c 128,-1,14
 93 91 93 91 74 136 c 0,15,16
 39 220 39 220 39 334 c 0,17,18
 39 475 39 475 97 572 c 0,19,0
 127 623 127 623 181.5 651.5 c 128,-1,1
309 110 m 128,-1,21
 382 110 382 110 411 169.5 c 128,-1,22
 440 229 440 229 440 316 c 128,-1,23
 440 403 440 403 430 450.5 c 128,-1,24
 420 498 420 498 390 530.5 c 128,-1,25
 360 563 360 563 315.5 563 c 128,-1,26
 271 563 271 563 244.5 545.5 c 128,-1,27
 218 528 218 528 204 495 c 0,28,29
 178 434 178 434 178 331.5 c 128,-1,30
 178 229 178 229 207 169.5 c 128,-1,20
 236 110 236 110 309 110 c 128,-1,21
310 796 m 1,31,-1
 226 711 l 1,32,-1
 162 763 l 1,33,-1
 273 882 l 1,34,-1
 347 882 l 1,35,-1
 458 763 l 1,36,-1
 394 711 l 1,37,-1
 310 796 l 1,31,-1
EndSplineSet
EndChar

StartChar: Otilde
Encoding: 213 213 152
Width: 618
GlyphClass: 2
Flags: W
LayerCount: 2
Fore
SplineSet
181.5 651.5 m 128,-1,1
 236 680 236 680 303 680 c 128,-1,2
 370 680 370 680 417.5 660.5 c 128,-1,3
 465 641 465 641 495 609 c 128,-1,4
 525 577 525 577 544 532 c 0,5,6
 579 448 579 448 579 334 c 0,7,8
 579 192 579 192 522 96 c 0,9,10
 492 46 492 46 437 17 c 128,-1,11
 382 -12 382 -12 314.5 -12 c 128,-1,12
 247 -12 247 -12 200 7.5 c 128,-1,13
 153 27 153 27 123 59 c 128,-1,14
 93 91 93 91 74 136 c 0,15,16
 39 220 39 220 39 334 c 0,17,18
 39 475 39 475 97 572 c 0,19,0
 127 623 127 623 181.5 651.5 c 128,-1,1
309 110 m 128,-1,21
 382 110 382 110 411 169.5 c 128,-1,22
 440 229 440 229 440 316 c 128,-1,23
 440 403 440 403 430 450.5 c 128,-1,24
 420 498 420 498 390 530.5 c 128,-1,25
 360 563 360 563 315.5 563 c 128,-1,26
 271 563 271 563 244.5 545.5 c 128,-1,27
 218 528 218 528 204 495 c 0,28,29
 178 434 178 434 178 331.5 c 128,-1,30
 178 229 178 229 207 169.5 c 128,-1,20
 236 110 236 110 309 110 c 128,-1,21
310.5 846.5 m 128,-1,32
 355 825 355 825 378 825 c 128,-1,33
 401 825 401 825 430 860 c 1,34,-1
 479 806 l 1,35,36
 461 776 461 776 430.5 753.5 c 128,-1,37
 400 731 400 731 372.5 731 c 128,-1,38
 345 731 345 731 301 752.5 c 128,-1,39
 257 774 257 774 234.5 774 c 128,-1,40
 212 774 212 774 183 739 c 1,41,-1
 134 793 l 1,42,43
 152 823 152 823 181.5 845.5 c 128,-1,44
 211 868 211 868 238.5 868 c 128,-1,31
 266 868 266 868 310.5 846.5 c 128,-1,32
EndSplineSet
EndChar

StartChar: Odieresis
Encoding: 214 214 153
Width: 618
GlyphClass: 2
Flags: W
LayerCount: 2
Fore
SplineSet
181.5 651.5 m 128,-1,1
 236 680 236 680 303 680 c 128,-1,2
 370 680 370 680 417.5 660.5 c 128,-1,3
 465 641 465 641 495 609 c 128,-1,4
 525 577 525 577 544 532 c 0,5,6
 579 448 579 448 579 334 c 0,7,8
 579 192 579 192 522 96 c 0,9,10
 492 46 492 46 437 17 c 128,-1,11
 382 -12 382 -12 314.5 -12 c 128,-1,12
 247 -12 247 -12 200 7.5 c 128,-1,13
 153 27 153 27 123 59 c 128,-1,14
 93 91 93 91 74 136 c 0,15,16
 39 220 39 220 39 334 c 0,17,18
 39 475 39 475 97 572 c 0,19,0
 127 623 127 623 181.5 651.5 c 128,-1,1
309 110 m 128,-1,21
 382 110 382 110 411 169.5 c 128,-1,22
 440 229 440 229 440 316 c 128,-1,23
 440 403 440 403 430 450.5 c 128,-1,24
 420 498 420 498 390 530.5 c 128,-1,25
 360 563 360 563 315.5 563 c 128,-1,26
 271 563 271 563 244.5 545.5 c 128,-1,27
 218 528 218 528 204 495 c 0,28,29
 178 434 178 434 178 331.5 c 128,-1,30
 178 229 178 229 207 169.5 c 128,-1,20
 236 110 236 110 309 110 c 128,-1,21
161.5 834 m 128,-1,32
 181 854 181 854 210.5 854 c 128,-1,33
 240 854 240 854 260 834 c 128,-1,34
 280 814 280 814 280 785 c 128,-1,35
 280 756 280 756 260 735.5 c 128,-1,36
 240 715 240 715 210.5 715 c 128,-1,37
 181 715 181 715 161.5 735.5 c 128,-1,38
 142 756 142 756 142 785 c 128,-1,31
 142 814 142 814 161.5 834 c 128,-1,32
346 834 m 128,-1,40
 366 854 366 854 395 854 c 128,-1,41
 424 854 424 854 444 834 c 128,-1,42
 464 814 464 814 464 785 c 128,-1,43
 464 756 464 756 444 735.5 c 128,-1,44
 424 715 424 715 395 715 c 128,-1,45
 366 715 366 715 346 735.5 c 128,-1,46
 326 756 326 756 326 785 c 128,-1,39
 326 814 326 814 346 834 c 128,-1,40
EndSplineSet
EndChar

StartChar: multiply
Encoding: 215 215 154
Width: 516
GlyphClass: 2
Flags: W
LayerCount: 2
Fore
SplineSet
477 152 m 1,0,-1
 399 75 l 1,1,-1
 259 213 l 1,2,-1
 119 73 l 1,3,-1
 39 150 l 1,4,-1
 179 290 l 1,5,-1
 41 427 l 1,6,-1
 120 506 l 1,7,-1
 257 369 l 1,8,-1
 395 506 l 1,9,-1
 475 428 l 1,10,-1
 338 292 l 1,11,-1
 477 152 l 1,0,-1
EndSplineSet
EndChar

StartChar: Oslash
Encoding: 216 216 155
Width: 618
GlyphClass: 2
Flags: W
LayerCount: 2
Fore
SplineSet
579 334 m 0,0,1
 579 192 579 192 522 96 c 0,2,3
 492 46 492 46 437 17 c 128,-1,4
 382 -12 382 -12 320 -12 c 128,-1,5
 258 -12 258 -12 217 0 c 1,6,-1
 172 -110 l 1,7,-1
 67 -74 l 1,8,-1
 122 59 l 1,9,10
 39 147 39 147 39 334 c 0,11,12
 39 475 39 475 97 572 c 0,13,14
 127 623 127 623 181.5 651.5 c 128,-1,15
 236 680 236 680 310 680 c 0,16,17
 348 680 348 680 377 673 c 1,18,-1
 420 778 l 1,19,-1
 523 740 l 1,20,-1
 476 626 l 1,21,22
 579 540 579 540 579 334 c 0,0,1
309 110 m 0,23,24
 382 110 382 110 411 169.5 c 128,-1,25
 440 229 440 229 440 330 c 128,-1,26
 440 431 440 431 418 486 c 1,27,-1
 265 117 l 1,28,29
 283 110 283 110 309 110 c 0,23,24
178 325 m 0,30,31
 178 265 178 265 189 220 c 1,32,-1
 330 561 l 1,33,34
 316 563 316 563 309 563 c 0,35,36
 233 563 233 563 204 495 c 0,37,38
 178 434 178 434 178 325 c 0,30,31
EndSplineSet
EndChar

StartChar: Ugrave
Encoding: 217 217 156
Width: 606
GlyphClass: 2
Flags: W
LayerCount: 2
Fore
SplineSet
59 246 m 2,0,-1
 59 667 l 1,1,-1
 204 667 l 1,2,-1
 204 251 l 2,3,4
 204 165 204 165 224 138 c 1,5,6
 244 108 244 108 303.5 108 c 128,-1,7
 363 108 363 108 382 139 c 1,8,9
 402 165 402 165 402 251 c 2,10,-1
 402 667 l 1,11,-1
 547 667 l 1,12,-1
 547 246 l 2,13,14
 547 130 547 130 500 64 c 1,15,16
 440 -10 440 -10 303 -12 c 1,17,18
 166 -12 166 -12 105 64 c 1,19,20
 59 131 59 131 59 246 c 2,0,-1
382 732 m 1,21,-1
 178 808 l 1,22,-1
 227 919 l 1,23,-1
 416 810 l 1,24,-1
 382 732 l 1,21,-1
EndSplineSet
EndChar

StartChar: Uacute
Encoding: 218 218 157
Width: 606
GlyphClass: 2
Flags: W
LayerCount: 2
Fore
SplineSet
59 246 m 2,0,-1
 59 667 l 1,1,-1
 204 667 l 1,2,-1
 204 251 l 2,3,4
 204 165 204 165 224 138 c 1,5,6
 244 108 244 108 303.5 108 c 128,-1,7
 363 108 363 108 382 139 c 1,8,9
 402 165 402 165 402 251 c 2,10,-1
 402 667 l 1,11,-1
 547 667 l 1,12,-1
 547 246 l 2,13,14
 547 130 547 130 500 64 c 1,15,16
 440 -10 440 -10 303 -12 c 1,17,18
 166 -12 166 -12 105 64 c 1,19,20
 59 131 59 131 59 246 c 2,0,-1
440 811 m 1,21,-1
 236 735 l 1,22,-1
 202 813 l 1,23,-1
 391 922 l 1,24,-1
 440 811 l 1,21,-1
EndSplineSet
EndChar

StartChar: Ucircumflex
Encoding: 219 219 158
Width: 606
GlyphClass: 2
Flags: W
LayerCount: 2
Fore
SplineSet
59 246 m 2,0,-1
 59 667 l 1,1,-1
 204 667 l 1,2,-1
 204 251 l 2,3,4
 204 165 204 165 224 138 c 1,5,6
 244 108 244 108 303.5 108 c 128,-1,7
 363 108 363 108 382 139 c 1,8,9
 402 165 402 165 402 251 c 2,10,-1
 402 667 l 1,11,-1
 547 667 l 1,12,-1
 547 246 l 2,13,14
 547 130 547 130 500 64 c 1,15,16
 440 -10 440 -10 303 -12 c 1,17,18
 166 -12 166 -12 105 64 c 1,19,20
 59 131 59 131 59 246 c 2,0,-1
306 796 m 1,21,-1
 222 711 l 1,22,-1
 158 763 l 1,23,-1
 269 882 l 1,24,-1
 343 882 l 1,25,-1
 454 763 l 1,26,-1
 390 711 l 1,27,-1
 306 796 l 1,21,-1
EndSplineSet
EndChar

StartChar: Udieresis
Encoding: 220 220 159
Width: 606
GlyphClass: 2
Flags: W
LayerCount: 2
Fore
SplineSet
59 246 m 2,0,-1
 59 667 l 1,1,-1
 204 667 l 1,2,-1
 204 251 l 2,3,4
 204 165 204 165 224 138 c 1,5,6
 244 108 244 108 303.5 108 c 128,-1,7
 363 108 363 108 382 139 c 1,8,9
 402 165 402 165 402 251 c 2,10,-1
 402 667 l 1,11,-1
 547 667 l 1,12,-1
 547 246 l 2,13,14
 547 130 547 130 500 64 c 1,15,16
 440 -10 440 -10 303 -12 c 1,17,18
 166 -12 166 -12 105 64 c 1,19,20
 59 131 59 131 59 246 c 2,0,-1
164.5 834 m 128,-1,22
 184 854 184 854 213.5 854 c 128,-1,23
 243 854 243 854 263 834 c 128,-1,24
 283 814 283 814 283 785 c 128,-1,25
 283 756 283 756 263 735.5 c 128,-1,26
 243 715 243 715 213.5 715 c 128,-1,27
 184 715 184 715 164.5 735.5 c 128,-1,28
 145 756 145 756 145 785 c 128,-1,21
 145 814 145 814 164.5 834 c 128,-1,22
349 834 m 128,-1,30
 369 854 369 854 398 854 c 128,-1,31
 427 854 427 854 447 834 c 128,-1,32
 467 814 467 814 467 785 c 128,-1,33
 467 756 467 756 447 735.5 c 128,-1,34
 427 715 427 715 398 715 c 128,-1,35
 369 715 369 715 349 735.5 c 128,-1,36
 329 756 329 756 329 785 c 128,-1,29
 329 814 329 814 349 834 c 128,-1,30
EndSplineSet
EndChar

StartChar: Yacute
Encoding: 221 221 160
Width: 548
GlyphClass: 2
Flags: W
LayerCount: 2
Fore
SplineSet
346 0 m 1,0,-1
 202 0 l 1,1,-1
 202 264 l 1,2,-1
 -8 668 l 1,3,-1
 138 668 l 1,4,-1
 274 383 l 1,5,-1
 410 668 l 1,6,-1
 556 668 l 1,7,-1
 346 264 l 1,8,-1
 346 0 l 1,0,-1
413 811 m 1,9,-1
 209 735 l 1,10,-1
 175 813 l 1,11,-1
 364 922 l 1,12,-1
 413 811 l 1,9,-1
EndSplineSet
EndChar

StartChar: Thorn
Encoding: 222 222 161
Width: 504
GlyphClass: 2
Flags: W
LayerCount: 2
Fore
SplineSet
484 395 m 0,0,1
 484 282 484 282 419 234 c 1,2,3
 383 206 383 206 333.5 194.5 c 128,-1,4
 284 183 284 183 199 183 c 2,5,-1
 168 183 l 1,6,-1
 168 0 l 1,7,-1
 64 0 l 1,8,-1
 64 697 l 1,9,-1
 168 697 l 1,10,-1
 168 597 l 1,11,-1
 224 597 l 2,12,13
 301 597 301 597 346 585 c 128,-1,14
 391 573 391 573 425 542 c 0,15,16
 484 490 484 490 484 395 c 0,0,1
210 276 m 2,17,18
 308 276 308 276 343.5 301 c 128,-1,19
 379 326 379 326 379 384.5 c 128,-1,20
 379 443 379 443 348 473.5 c 128,-1,21
 317 504 317 504 225 504 c 2,22,-1
 168 504 l 1,23,-1
 168 276 l 1,24,-1
 210 276 l 2,17,18
EndSplineSet
EndChar

StartChar: germandbls
Encoding: 223 223 162
Width: 604
GlyphClass: 2
Flags: W
LayerCount: 2
Fore
SplineSet
395 404 m 128,-1,1
 384 388 384 388 384 372 c 128,-1,2
 384 356 384 356 392.5 343.5 c 128,-1,3
 401 331 401 331 410 326 c 128,-1,4
 419 321 419 321 443.5 310 c 128,-1,5
 468 299 468 299 481.5 292.5 c 128,-1,6
 495 286 495 286 519 271 c 128,-1,7
 543 256 543 256 554 242 c 0,8,9
 586 202 586 202 586 153 c 0,10,11
 586 76 586 76 536.5 31.5 c 128,-1,12
 487 -13 487 -13 402 -13 c 0,13,14
 361 -13 361 -13 307 2.5 c 128,-1,15
 253 18 253 18 226 37 c 1,16,-1
 261 135 l 1,17,18
 354 96 354 96 407 96 c 128,-1,19
 460 96 460 96 460 145 c 0,20,21
 460 165 460 165 438.5 180.5 c 128,-1,22
 417 196 417 196 386.5 209.5 c 128,-1,23
 356 223 356 223 326 240 c 128,-1,24
 296 257 296 257 274.5 289 c 128,-1,25
 253 321 253 321 253 360 c 128,-1,26
 253 399 253 399 269.5 428 c 128,-1,27
 286 457 286 457 305 473 c 0,28,29
 357 517 357 517 357 548 c 0,30,31
 357 612 357 612 288 612 c 0,32,33
 237 612 237 612 214 583.5 c 128,-1,34
 191 555 191 555 191 493 c 2,35,-1
 191 -129 l 1,36,-1
 53 -129 l 1,37,-1
 53 495 l 2,38,39
 53 609 53 609 115.5 664.5 c 128,-1,40
 178 720 178 720 284 720 c 128,-1,41
 390 720 390 720 440.5 675 c 128,-1,42
 491 630 491 630 491 556 c 0,43,44
 491 505 491 505 454 466 c 0,45,46
 438 449 438 449 422 434.5 c 128,-1,0
 406 420 406 420 395 404 c 128,-1,1
EndSplineSet
EndChar

StartChar: agrave
Encoding: 224 224 163
Width: 510
GlyphClass: 2
Flags: W
LayerCount: 2
Fore
SplineSet
516 17 m 1,0,1
 465 -11 465 -11 404.5 -11 c 128,-1,2
 344 -11 344 -11 315 35 c 1,3,4
 257 -13 257 -13 179 -13 c 128,-1,5
 101 -13 101 -13 61 26.5 c 128,-1,6
 21 66 21 66 21 134 c 0,7,8
 21 179 21 179 40 211 c 128,-1,9
 59 243 59 243 89 258 c 0,10,11
 144 284 144 284 203.5 284 c 128,-1,12
 263 284 263 284 299 281 c 1,13,-1
 299 330 l 2,14,15
 299 382 299 382 278 397 c 128,-1,16
 257 412 257 412 206.5 412 c 128,-1,17
 156 412 156 412 93 391 c 1,18,-1
 64 479 l 1,19,20
 101 501 101 501 154.5 512.5 c 128,-1,21
 208 524 208 524 246 524 c 0,22,23
 348 524 348 524 391.5 480.5 c 128,-1,24
 435 437 435 437 435 332 c 2,25,-1
 435 122 l 2,26,27
 435 94 435 94 460 94 c 0,28,29
 473 94 473 94 497 100 c 1,30,-1
 516 17 l 1,0,1
217 80 m 0,31,32
 259 80 259 80 299 106 c 1,33,-1
 299 211 l 1,34,35
 271 213 271 213 250 213 c 0,36,37
 151 213 151 213 151 149 c 0,38,39
 151 80 151 80 217 80 c 0,31,32
320 587 m 1,40,-1
 116 663 l 1,41,-1
 165 774 l 1,42,-1
 354 665 l 1,43,-1
 320 587 l 1,40,-1
EndSplineSet
EndChar

StartChar: aacute
Encoding: 225 225 164
Width: 510
GlyphClass: 2
Flags: W
LayerCount: 2
Fore
SplineSet
516 17 m 1,0,1
 465 -11 465 -11 404.5 -11 c 128,-1,2
 344 -11 344 -11 315 35 c 1,3,4
 257 -13 257 -13 179 -13 c 128,-1,5
 101 -13 101 -13 61 26.5 c 128,-1,6
 21 66 21 66 21 134 c 0,7,8
 21 179 21 179 40 211 c 128,-1,9
 59 243 59 243 89 258 c 0,10,11
 144 284 144 284 203.5 284 c 128,-1,12
 263 284 263 284 299 281 c 1,13,-1
 299 330 l 2,14,15
 299 382 299 382 278 397 c 128,-1,16
 257 412 257 412 206.5 412 c 128,-1,17
 156 412 156 412 93 391 c 1,18,-1
 64 479 l 1,19,20
 101 501 101 501 154.5 512.5 c 128,-1,21
 208 524 208 524 246 524 c 0,22,23
 348 524 348 524 391.5 480.5 c 128,-1,24
 435 437 435 437 435 332 c 2,25,-1
 435 122 l 2,26,27
 435 94 435 94 460 94 c 0,28,29
 473 94 473 94 497 100 c 1,30,-1
 516 17 l 1,0,1
217 80 m 0,31,32
 259 80 259 80 299 106 c 1,33,-1
 299 211 l 1,34,35
 271 213 271 213 250 213 c 0,36,37
 151 213 151 213 151 149 c 0,38,39
 151 80 151 80 217 80 c 0,31,32
359 663 m 1,40,-1
 155 587 l 1,41,-1
 121 665 l 1,42,-1
 310 774 l 1,43,-1
 359 663 l 1,40,-1
EndSplineSet
EndChar

StartChar: acircumflex
Encoding: 226 226 165
Width: 510
GlyphClass: 2
Flags: W
LayerCount: 2
Fore
SplineSet
239 676 m 1,0,-1
 155 591 l 1,1,-1
 91 643 l 1,2,-1
 202 762 l 1,3,-1
 276 762 l 1,4,-1
 387 643 l 1,5,-1
 323 591 l 1,6,-1
 239 676 l 1,0,-1
516 17 m 1,7,8
 465 -11 465 -11 404.5 -11 c 128,-1,9
 344 -11 344 -11 315 35 c 1,10,11
 257 -13 257 -13 179 -13 c 128,-1,12
 101 -13 101 -13 61 26.5 c 128,-1,13
 21 66 21 66 21 134 c 0,14,15
 21 179 21 179 40 211 c 128,-1,16
 59 243 59 243 89 258 c 0,17,18
 144 284 144 284 203.5 284 c 128,-1,19
 263 284 263 284 299 281 c 1,20,-1
 299 330 l 2,21,22
 299 382 299 382 278 397 c 128,-1,23
 257 412 257 412 206.5 412 c 128,-1,24
 156 412 156 412 93 391 c 1,25,-1
 64 479 l 1,26,27
 101 501 101 501 154.5 512.5 c 128,-1,28
 208 524 208 524 246 524 c 0,29,30
 348 524 348 524 391.5 480.5 c 128,-1,31
 435 437 435 437 435 332 c 2,32,-1
 435 122 l 2,33,34
 435 94 435 94 460 94 c 0,35,36
 473 94 473 94 497 100 c 1,37,-1
 516 17 l 1,7,8
217 80 m 0,38,39
 259 80 259 80 299 106 c 1,40,-1
 299 211 l 1,41,42
 271 213 271 213 250 213 c 0,43,44
 151 213 151 213 151 149 c 0,45,46
 151 80 151 80 217 80 c 0,38,39
EndSplineSet
EndChar

StartChar: atilde
Encoding: 227 227 166
Width: 510
GlyphClass: 2
Flags: W
LayerCount: 2
Fore
SplineSet
516 17 m 1,0,1
 465 -11 465 -11 404.5 -11 c 128,-1,2
 344 -11 344 -11 315 35 c 1,3,4
 257 -13 257 -13 179 -13 c 128,-1,5
 101 -13 101 -13 61 26.5 c 128,-1,6
 21 66 21 66 21 134 c 0,7,8
 21 179 21 179 40 211 c 128,-1,9
 59 243 59 243 89 258 c 0,10,11
 144 284 144 284 203.5 284 c 128,-1,12
 263 284 263 284 299 281 c 1,13,-1
 299 330 l 2,14,15
 299 382 299 382 278 397 c 128,-1,16
 257 412 257 412 206.5 412 c 128,-1,17
 156 412 156 412 93 391 c 1,18,-1
 64 479 l 1,19,20
 101 501 101 501 154.5 512.5 c 128,-1,21
 208 524 208 524 246 524 c 0,22,23
 348 524 348 524 391.5 480.5 c 128,-1,24
 435 437 435 437 435 332 c 2,25,-1
 435 122 l 2,26,27
 435 94 435 94 460 94 c 0,28,29
 473 94 473 94 497 100 c 1,30,-1
 516 17 l 1,0,1
217 80 m 0,31,32
 259 80 259 80 299 106 c 1,33,-1
 299 211 l 1,34,35
 271 213 271 213 250 213 c 0,36,37
 151 213 151 213 151 149 c 0,38,39
 151 80 151 80 217 80 c 0,31,32
241 706.5 m 128,-1,41
 286 685 286 685 309 685 c 128,-1,42
 332 685 332 685 361 720 c 1,43,-1
 410 666 l 1,44,45
 392 636 392 636 361.5 613.5 c 128,-1,46
 331 591 331 591 303.5 591 c 128,-1,47
 276 591 276 591 232 612.5 c 128,-1,48
 188 634 188 634 165.5 634 c 128,-1,49
 143 634 143 634 114 599 c 1,50,-1
 65 653 l 1,51,52
 83 683 83 683 112.5 705.5 c 128,-1,53
 142 728 142 728 169 728 c 128,-1,40
 196 728 196 728 241 706.5 c 128,-1,41
EndSplineSet
EndChar

StartChar: adieresis
Encoding: 228 228 167
Width: 510
GlyphClass: 2
Flags: W
LayerCount: 2
Fore
SplineSet
516 17 m 1,0,1
 465 -11 465 -11 404.5 -11 c 128,-1,2
 344 -11 344 -11 315 35 c 1,3,4
 257 -13 257 -13 179 -13 c 128,-1,5
 101 -13 101 -13 61 26.5 c 128,-1,6
 21 66 21 66 21 134 c 0,7,8
 21 179 21 179 40 211 c 128,-1,9
 59 243 59 243 89 258 c 0,10,11
 144 284 144 284 203.5 284 c 128,-1,12
 263 284 263 284 299 281 c 1,13,-1
 299 330 l 2,14,15
 299 382 299 382 278 397 c 128,-1,16
 257 412 257 412 206.5 412 c 128,-1,17
 156 412 156 412 93 391 c 1,18,-1
 64 479 l 1,19,20
 101 501 101 501 154.5 512.5 c 128,-1,21
 208 524 208 524 246 524 c 0,22,23
 348 524 348 524 391.5 480.5 c 128,-1,24
 435 437 435 437 435 332 c 2,25,-1
 435 122 l 2,26,27
 435 94 435 94 460 94 c 0,28,29
 473 94 473 94 497 100 c 1,30,-1
 516 17 l 1,0,1
217 80 m 0,31,32
 259 80 259 80 299 106 c 1,33,-1
 299 211 l 1,34,35
 271 213 271 213 250 213 c 0,36,37
 151 213 151 213 151 149 c 0,38,39
 151 80 151 80 217 80 c 0,31,32
106.5 715 m 128,-1,41
 126 735 126 735 155.5 735 c 128,-1,42
 185 735 185 735 205 715 c 128,-1,43
 225 695 225 695 225 666 c 128,-1,44
 225 637 225 637 205 616.5 c 128,-1,45
 185 596 185 596 155.5 596 c 128,-1,46
 126 596 126 596 106.5 616.5 c 128,-1,47
 87 637 87 637 87 666 c 128,-1,40
 87 695 87 695 106.5 715 c 128,-1,41
291 715 m 128,-1,49
 311 735 311 735 340 735 c 128,-1,50
 369 735 369 735 389 715 c 128,-1,51
 409 695 409 695 409 666 c 128,-1,52
 409 637 409 637 389 616.5 c 128,-1,53
 369 596 369 596 340 596 c 128,-1,54
 311 596 311 596 291 616.5 c 128,-1,55
 271 637 271 637 271 666 c 128,-1,48
 271 695 271 695 291 715 c 128,-1,49
EndSplineSet
EndChar

StartChar: aring
Encoding: 229 229 168
Width: 510
GlyphClass: 2
Flags: W
LayerCount: 2
Fore
SplineSet
516 17 m 1,0,1
 465 -11 465 -11 404.5 -11 c 128,-1,2
 344 -11 344 -11 315 35 c 1,3,4
 257 -13 257 -13 179 -13 c 128,-1,5
 101 -13 101 -13 61 26.5 c 128,-1,6
 21 66 21 66 21 134 c 0,7,8
 21 179 21 179 40 211 c 128,-1,9
 59 243 59 243 89 258 c 0,10,11
 144 284 144 284 203.5 284 c 128,-1,12
 263 284 263 284 299 281 c 1,13,-1
 299 330 l 2,14,15
 299 382 299 382 278 397 c 128,-1,16
 257 412 257 412 206.5 412 c 128,-1,17
 156 412 156 412 93 391 c 1,18,-1
 64 479 l 1,19,20
 101 501 101 501 154.5 512.5 c 128,-1,21
 208 524 208 524 246 524 c 0,22,23
 348 524 348 524 391.5 480.5 c 128,-1,24
 435 437 435 437 435 332 c 2,25,-1
 435 122 l 2,26,27
 435 94 435 94 460 94 c 0,28,29
 473 94 473 94 497 100 c 1,30,-1
 516 17 l 1,0,1
217 80 m 0,31,32
 259 80 259 80 299 106 c 1,33,-1
 299 211 l 1,34,35
 271 213 271 213 250 213 c 0,36,37
 151 213 151 213 151 149 c 0,38,39
 151 80 151 80 217 80 c 0,31,32
346 701 m 128,-1,41
 346 658 346 658 319 627.5 c 128,-1,42
 292 597 292 597 242 597 c 128,-1,43
 192 597 192 597 166 627 c 128,-1,44
 140 657 140 657 140 700 c 128,-1,45
 140 743 140 743 166.5 772.5 c 128,-1,46
 193 802 193 802 243 802 c 128,-1,47
 293 802 293 802 319.5 773 c 128,-1,40
 346 744 346 744 346 701 c 128,-1,41
243 660 m 0,48,49
 279 660 279 660 279 699 c 128,-1,50
 279 738 279 738 243.5 738 c 128,-1,51
 208 738 208 738 208 699 c 0,52,53
 208 683 208 683 216.5 671.5 c 128,-1,54
 225 660 225 660 243 660 c 0,48,49
EndSplineSet
EndChar

StartChar: ae
Encoding: 230 230 169
Width: 746
GlyphClass: 2
Flags: W
LayerCount: 2
Fore
SplineSet
430 242 m 1,0,1
 432 92 432 92 562 92 c 0,2,3
 623 92 623 92 683 115 c 1,4,-1
 707 20 l 1,5,6
 630 -13 630 -13 533.5 -13 c 128,-1,7
 437 -13 437 -13 379 43 c 1,8,9
 350 22 350 22 298 4.5 c 128,-1,10
 246 -13 246 -13 195 -13 c 0,11,12
 111 -13 111 -13 66 26 c 128,-1,13
 21 65 21 65 21 134 c 0,14,15
 21 179 21 179 40 211 c 128,-1,16
 59 243 59 243 89 258 c 0,17,18
 144 284 144 284 207 284 c 128,-1,19
 270 284 270 284 306 281 c 1,20,-1
 306 330 l 2,21,22
 306 382 306 382 285 397 c 128,-1,23
 264 412 264 412 210 412 c 128,-1,24
 156 412 156 412 93 391 c 1,25,-1
 64 479 l 1,26,27
 101 501 101 501 154.5 512.5 c 128,-1,28
 208 524 208 524 255 524 c 128,-1,29
 302 524 302 524 335.5 510 c 128,-1,30
 369 496 369 496 388 457 c 1,31,32
 435 522 435 522 526 522 c 128,-1,33
 617 522 617 522 665.5 474.5 c 128,-1,34
 714 427 714 427 714 342 c 0,35,36
 714 300 714 300 701 242 c 1,37,-1
 430 242 l 1,0,1
151 149 m 0,38,39
 151 80 151 80 229 80 c 0,40,41
 303 80 303 80 342 106 c 1,42,43
 323 149 323 149 316 211 c 1,44,45
 288 213 288 213 257 213 c 0,46,47
 151 213 151 213 151 149 c 0,38,39
602 318 m 1,48,-1
 602 324 l 2,49,50
 602 423 602 423 529 423 c 0,51,52
 444 423 444 423 427 318 c 1,53,-1
 602 318 l 1,48,-1
EndSplineSet
EndChar

StartChar: ccedilla
Encoding: 231 231 170
Width: 438
GlyphClass: 2
Flags: W
LayerCount: 2
Fore
SplineSet
353 -133 m 0,0,1
 353 -230 353 -230 225 -295 c 1,2,-1
 174 -230 l 1,3,4
 232 -187 232 -187 232 -139 c 0,5,6
 232 -111 232 -111 211 -57 c 1,7,-1
 335 -57 l 1,8,9
 353 -96 353 -96 353 -133 c 0,0,1
271 -13 m 0,10,11
 168 -13 168 -13 100 53.5 c 128,-1,12
 32 120 32 120 32 254.5 c 128,-1,13
 32 389 32 389 99 455.5 c 128,-1,14
 166 522 166 522 271 522 c 0,15,16
 333 522 333 522 412 499 c 1,17,-1
 385 398 l 1,18,19
 324 412 324 412 287 412 c 0,20,21
 228 412 228 412 196.5 376.5 c 128,-1,22
 165 341 165 341 165 251 c 128,-1,23
 165 161 165 161 199.5 126 c 128,-1,24
 234 91 234 91 296 91 c 0,25,26
 328 91 328 91 394 101 c 1,27,-1
 411 10 l 1,28,29
 332 -13 332 -13 271 -13 c 0,10,11
EndSplineSet
EndChar

StartChar: egrave
Encoding: 232 232 171
Width: 480
GlyphClass: 2
Flags: W
LayerCount: 2
Fore
SplineSet
334 587 m 1,0,-1
 130 663 l 1,1,-1
 179 774 l 1,2,-1
 368 665 l 1,3,-1
 334 587 l 1,0,-1
164 242 m 1,4,5
 166 92 166 92 296 92 c 0,6,7
 357 92 357 92 417 115 c 1,8,-1
 441 20 l 1,9,10
 364 -13 364 -13 270 -13 c 0,11,12
 33 -13 33 -13 33 266 c 0,13,14
 33 376 33 376 92 449 c 128,-1,15
 151 522 151 522 262 522 c 0,16,17
 351 522 351 522 399.5 474.5 c 128,-1,18
 448 427 448 427 448 342 c 0,19,20
 448 292 448 292 435 242 c 1,21,-1
 164 242 l 1,4,5
336 318 m 1,22,-1
 336 324 l 2,23,24
 336 423 336 423 266 423 c 0,25,26
 182 423 182 423 165 318 c 1,27,-1
 336 318 l 1,22,-1
EndSplineSet
EndChar

StartChar: eacute
Encoding: 233 233 172
Width: 480
GlyphClass: 2
Flags: W
LayerCount: 2
Fore
SplineSet
377 663 m 1,0,-1
 173 587 l 1,1,-1
 139 665 l 1,2,-1
 328 774 l 1,3,-1
 377 663 l 1,0,-1
164 242 m 1,4,5
 166 92 166 92 296 92 c 0,6,7
 357 92 357 92 417 115 c 1,8,-1
 441 20 l 1,9,10
 364 -13 364 -13 270 -13 c 0,11,12
 33 -13 33 -13 33 266 c 0,13,14
 33 376 33 376 92 449 c 128,-1,15
 151 522 151 522 262 522 c 0,16,17
 351 522 351 522 399.5 474.5 c 128,-1,18
 448 427 448 427 448 342 c 0,19,20
 448 292 448 292 435 242 c 1,21,-1
 164 242 l 1,4,5
336 318 m 1,22,-1
 336 324 l 2,23,24
 336 423 336 423 266 423 c 0,25,26
 182 423 182 423 165 318 c 1,27,-1
 336 318 l 1,22,-1
EndSplineSet
EndChar

StartChar: ecircumflex
Encoding: 234 234 173
Width: 480
GlyphClass: 2
Flags: W
LayerCount: 2
Fore
SplineSet
448 342 m 0,0,1
 448 292 448 292 435 242 c 1,2,-1
 164 242 l 1,3,4
 166 92 166 92 296 92 c 0,5,6
 357 92 357 92 417 115 c 1,7,-1
 441 20 l 1,8,9
 364 -13 364 -13 270 -13 c 0,10,11
 33 -13 33 -13 33 266 c 0,12,13
 33 376 33 376 92 449 c 128,-1,14
 151 522 151 522 262 522 c 0,15,16
 351 522 351 522 399.5 474.5 c 128,-1,17
 448 427 448 427 448 342 c 0,0,1
336 318 m 1,18,-1
 336 324 l 2,19,20
 336 423 336 423 266 423 c 0,21,22
 182 423 182 423 165 318 c 1,23,-1
 336 318 l 1,18,-1
256 676 m 1,24,-1
 172 591 l 1,25,-1
 108 643 l 1,26,-1
 219 762 l 1,27,-1
 293 762 l 1,28,-1
 404 643 l 1,29,-1
 340 591 l 1,30,-1
 256 676 l 1,24,-1
EndSplineSet
EndChar

StartChar: edieresis
Encoding: 235 235 174
Width: 480
GlyphClass: 2
Flags: W
LayerCount: 2
Fore
SplineSet
115.5 715 m 128,-1,1
 135 735 135 735 164.5 735 c 128,-1,2
 194 735 194 735 214 715 c 128,-1,3
 234 695 234 695 234 666 c 128,-1,4
 234 637 234 637 214 616.5 c 128,-1,5
 194 596 194 596 164.5 596 c 128,-1,6
 135 596 135 596 115.5 616.5 c 128,-1,7
 96 637 96 637 96 666 c 128,-1,0
 96 695 96 695 115.5 715 c 128,-1,1
300 715 m 128,-1,9
 320 735 320 735 349 735 c 128,-1,10
 378 735 378 735 398 715 c 128,-1,11
 418 695 418 695 418 666 c 128,-1,12
 418 637 418 637 398 616.5 c 128,-1,13
 378 596 378 596 349 596 c 128,-1,14
 320 596 320 596 300 616.5 c 128,-1,15
 280 637 280 637 280 666 c 128,-1,8
 280 695 280 695 300 715 c 128,-1,9
164 242 m 1,16,17
 166 92 166 92 296 92 c 0,18,19
 357 92 357 92 417 115 c 1,20,-1
 441 20 l 1,21,22
 364 -13 364 -13 270 -13 c 0,23,24
 33 -13 33 -13 33 266 c 0,25,26
 33 376 33 376 92 449 c 128,-1,27
 151 522 151 522 262 522 c 0,28,29
 351 522 351 522 399.5 474.5 c 128,-1,30
 448 427 448 427 448 342 c 0,31,32
 448 292 448 292 435 242 c 1,33,-1
 164 242 l 1,16,17
336 318 m 1,34,-1
 336 324 l 2,35,36
 336 423 336 423 266 423 c 0,37,38
 182 423 182 423 165 318 c 1,39,-1
 336 318 l 1,34,-1
EndSplineSet
EndChar

StartChar: igrave
Encoding: 236 236 175
Width: 246
GlyphClass: 2
Flags: W
LayerCount: 2
Fore
SplineSet
185 587 m 1,0,-1
 -19 663 l 1,1,-1
 30 774 l 1,2,-1
 219 665 l 1,3,-1
 185 587 l 1,0,-1
193 0 m 1,4,-1
 53 0 l 1,5,-1
 53 512 l 1,6,-1
 193 524 l 1,7,-1
 193 0 l 1,4,-1
EndSplineSet
EndChar

StartChar: iacute
Encoding: 237 237 176
Width: 246
GlyphClass: 2
Flags: W
LayerCount: 2
Fore
SplineSet
276 663 m 1,0,-1
 72 587 l 1,1,-1
 38 665 l 1,2,-1
 227 774 l 1,3,-1
 276 663 l 1,0,-1
193 0 m 1,4,-1
 53 0 l 1,5,-1
 53 512 l 1,6,-1
 193 524 l 1,7,-1
 193 0 l 1,4,-1
EndSplineSet
EndChar

StartChar: icircumflex
Encoding: 238 238 177
Width: 246
GlyphClass: 2
Flags: W
LayerCount: 2
Fore
SplineSet
127 676 m 1,0,-1
 43 591 l 1,1,-1
 -21 643 l 1,2,-1
 90 762 l 1,3,-1
 164 762 l 1,4,-1
 275 643 l 1,5,-1
 211 591 l 1,6,-1
 127 676 l 1,0,-1
193 0 m 1,7,-1
 53 0 l 1,8,-1
 53 512 l 1,9,-1
 193 524 l 1,10,-1
 193 0 l 1,7,-1
EndSplineSet
EndChar

StartChar: idieresis
Encoding: 239 239 178
Width: 246
GlyphClass: 2
Flags: W
LayerCount: 2
Fore
SplineSet
-12.5 715 m 128,-1,1
 7 735 7 735 36.5 735 c 128,-1,2
 66 735 66 735 86 715 c 128,-1,3
 106 695 106 695 106 666 c 128,-1,4
 106 637 106 637 86 616.5 c 128,-1,5
 66 596 66 596 36.5 596 c 128,-1,6
 7 596 7 596 -12.5 616.5 c 128,-1,7
 -32 637 -32 637 -32 666 c 128,-1,0
 -32 695 -32 695 -12.5 715 c 128,-1,1
172 715 m 128,-1,9
 192 735 192 735 221 735 c 128,-1,10
 250 735 250 735 270 715 c 128,-1,11
 290 695 290 695 290 666 c 128,-1,12
 290 637 290 637 270 616.5 c 128,-1,13
 250 596 250 596 221 596 c 128,-1,14
 192 596 192 596 172 616.5 c 128,-1,15
 152 637 152 637 152 666 c 128,-1,8
 152 695 152 695 172 715 c 128,-1,9
193 0 m 1,16,-1
 53 0 l 1,17,-1
 53 512 l 1,18,-1
 193 524 l 1,19,-1
 193 0 l 1,16,-1
EndSplineSet
EndChar

StartChar: eth
Encoding: 240 240 179
Width: 499
GlyphClass: 2
Flags: W
LayerCount: 2
Fore
SplineSet
404.5 60 m 128,-1,1
 348 -12 348 -12 246 -12 c 128,-1,2
 144 -12 144 -12 89.5 59.5 c 128,-1,3
 35 131 35 131 35 241.5 c 128,-1,4
 35 352 35 352 84 405.5 c 128,-1,5
 133 459 133 459 217 459 c 0,6,7
 273 459 273 459 311 437 c 1,8,9
 300 524 300 524 248 571 c 1,10,-1
 174 495 l 1,11,-1
 114 553 l 1,12,-1
 171 611 l 1,13,14
 129 623 129 623 53 627 c 1,15,-1
 71 719 l 1,16,17
 179 719 179 719 254 694 c 1,18,-1
 321 764 l 1,19,-1
 379 704 l 1,20,-1
 332 656 l 1,21,22
 461 564 461 564 461 307 c 0,23,0
 461 132 461 132 404.5 60 c 128,-1,1
169 244 m 0,24,25
 169 104 169 104 246 104 c 0,26,27
 271 104 271 104 287 122 c 0,28,29
 322 160 322 160 322 335 c 1,30,31
 290 351 290 351 240 351 c 1,32,33
 169 349 169 349 169 244 c 0,24,25
EndSplineSet
EndChar

StartChar: ntilde
Encoding: 241 241 180
Width: 546
GlyphClass: 2
Flags: W
LayerCount: 2
Fore
SplineSet
271 706.5 m 128,-1,1
 316 685 316 685 338.5 685 c 128,-1,2
 361 685 361 685 390 720 c 1,3,-1
 439 666 l 1,4,5
 421 636 421 636 390.5 613.5 c 128,-1,6
 360 591 360 591 332.5 591 c 128,-1,7
 305 591 305 591 261 612.5 c 128,-1,8
 217 634 217 634 194.5 634 c 128,-1,9
 172 634 172 634 143 599 c 1,10,-1
 94 653 l 1,11,12
 112 683 112 683 141.5 705.5 c 128,-1,13
 171 728 171 728 198.5 728 c 128,-1,0
 226 728 226 728 271 706.5 c 128,-1,1
346 522 m 0,14,15
 433 522 433 522 464.5 477.5 c 128,-1,16
 496 433 496 433 496 351 c 2,17,-1
 496 0 l 1,18,-1
 356 0 l 1,19,-1
 356 326 l 2,20,21
 356 365 356 365 343.5 386.5 c 128,-1,22
 331 408 331 408 283 408 c 128,-1,23
 235 408 235 408 196 371 c 1,24,-1
 196 0 l 1,25,-1
 53 0 l 1,26,-1
 53 513 l 1,27,-1
 171 513 l 1,28,-1
 183 456 l 1,29,30
 212 483 212 483 256.5 502.5 c 128,-1,31
 301 522 301 522 346 522 c 0,14,15
EndSplineSet
EndChar

StartChar: ograve
Encoding: 242 242 181
Width: 511
GlyphClass: 2
Flags: W
LayerCount: 2
Fore
SplineSet
416 51.5 m 128,-1,1
 354 -13 354 -13 253 -13 c 128,-1,2
 152 -13 152 -13 92.5 51 c 128,-1,3
 33 115 33 115 33 254 c 128,-1,4
 33 393 33 393 94.5 457.5 c 128,-1,5
 156 522 156 522 256 522 c 0,6,7
 478 522 478 522 478 255 c 0,8,0
 478 116 478 116 416 51.5 c 128,-1,1
320 381 m 128,-1,10
 298 414 298 414 255.5 414 c 128,-1,11
 213 414 213 414 190.5 381 c 128,-1,12
 168 348 168 348 168 254 c 0,13,14
 168 94 168 94 255 94 c 0,15,16
 296 94 296 94 319 129.5 c 128,-1,17
 342 165 342 165 342 256.5 c 128,-1,9
 342 348 342 348 320 381 c 128,-1,10
335 587 m 1,18,-1
 131 663 l 1,19,-1
 180 774 l 1,20,-1
 369 665 l 1,21,-1
 335 587 l 1,18,-1
EndSplineSet
EndChar

StartChar: oacute
Encoding: 243 243 182
Width: 511
GlyphClass: 2
Flags: W
LayerCount: 2
Fore
SplineSet
416 51.5 m 128,-1,1
 354 -13 354 -13 253 -13 c 128,-1,2
 152 -13 152 -13 92.5 51 c 128,-1,3
 33 115 33 115 33 254 c 128,-1,4
 33 393 33 393 94.5 457.5 c 128,-1,5
 156 522 156 522 256 522 c 0,6,7
 478 522 478 522 478 255 c 0,8,0
 478 116 478 116 416 51.5 c 128,-1,1
320 381 m 128,-1,10
 298 414 298 414 255.5 414 c 128,-1,11
 213 414 213 414 190.5 381 c 128,-1,12
 168 348 168 348 168 254 c 0,13,14
 168 94 168 94 255 94 c 0,15,16
 296 94 296 94 319 129.5 c 128,-1,17
 342 165 342 165 342 256.5 c 128,-1,9
 342 348 342 348 320 381 c 128,-1,10
408 663 m 1,18,-1
 204 587 l 1,19,-1
 170 665 l 1,20,-1
 359 774 l 1,21,-1
 408 663 l 1,18,-1
EndSplineSet
EndChar

StartChar: ocircumflex
Encoding: 244 244 183
Width: 511
GlyphClass: 2
Flags: W
LayerCount: 2
Fore
SplineSet
92.5 51 m 128,-1,1
 33 115 33 115 33 254 c 128,-1,2
 33 393 33 393 94.5 457.5 c 128,-1,3
 156 522 156 522 256 522 c 0,4,5
 478 522 478 522 478 255 c 0,6,7
 478 116 478 116 416 51.5 c 128,-1,8
 354 -13 354 -13 253 -13 c 128,-1,0
 152 -13 152 -13 92.5 51 c 128,-1,1
190.5 381 m 128,-1,10
 168 348 168 348 168 254 c 0,11,12
 168 94 168 94 255 94 c 0,13,14
 296 94 296 94 319 129.5 c 128,-1,15
 342 165 342 165 342 256.5 c 128,-1,16
 342 348 342 348 320 381 c 128,-1,17
 298 414 298 414 255.5 414 c 128,-1,9
 213 414 213 414 190.5 381 c 128,-1,10
253 676 m 1,18,-1
 169 591 l 1,19,-1
 105 643 l 1,20,-1
 216 762 l 1,21,-1
 290 762 l 1,22,-1
 401 643 l 1,23,-1
 337 591 l 1,24,-1
 253 676 l 1,18,-1
EndSplineSet
EndChar

StartChar: otilde
Encoding: 245 245 184
Width: 511
GlyphClass: 2
Flags: W
LayerCount: 2
Fore
SplineSet
416 51.5 m 128,-1,1
 354 -13 354 -13 253 -13 c 128,-1,2
 152 -13 152 -13 92.5 51 c 128,-1,3
 33 115 33 115 33 254 c 128,-1,4
 33 393 33 393 94.5 457.5 c 128,-1,5
 156 522 156 522 256 522 c 0,6,7
 478 522 478 522 478 255 c 0,8,0
 478 116 478 116 416 51.5 c 128,-1,1
320 381 m 128,-1,10
 298 414 298 414 255.5 414 c 128,-1,11
 213 414 213 414 190.5 381 c 128,-1,12
 168 348 168 348 168 254 c 0,13,14
 168 94 168 94 255 94 c 0,15,16
 296 94 296 94 319 129.5 c 128,-1,17
 342 165 342 165 342 256.5 c 128,-1,9
 342 348 342 348 320 381 c 128,-1,10
257 706.5 m 128,-1,19
 302 685 302 685 325 685 c 128,-1,20
 348 685 348 685 377 720 c 1,21,-1
 426 666 l 1,22,23
 408 636 408 636 377.5 613.5 c 128,-1,24
 347 591 347 591 319.5 591 c 128,-1,25
 292 591 292 591 248 612.5 c 128,-1,26
 204 634 204 634 181.5 634 c 128,-1,27
 159 634 159 634 130 599 c 1,28,-1
 81 653 l 1,29,30
 99 683 99 683 128.5 705.5 c 128,-1,31
 158 728 158 728 185 728 c 128,-1,18
 212 728 212 728 257 706.5 c 128,-1,19
EndSplineSet
EndChar

StartChar: odieresis
Encoding: 246 246 185
Width: 511
GlyphClass: 2
Flags: W
LayerCount: 2
Fore
SplineSet
416 51.5 m 128,-1,1
 354 -13 354 -13 253 -13 c 128,-1,2
 152 -13 152 -13 92.5 51 c 128,-1,3
 33 115 33 115 33 254 c 128,-1,4
 33 393 33 393 94.5 457.5 c 128,-1,5
 156 522 156 522 256 522 c 0,6,7
 478 522 478 522 478 255 c 0,8,0
 478 116 478 116 416 51.5 c 128,-1,1
320 381 m 128,-1,10
 298 414 298 414 255.5 414 c 128,-1,11
 213 414 213 414 190.5 381 c 128,-1,12
 168 348 168 348 168 254 c 0,13,14
 168 94 168 94 255 94 c 0,15,16
 296 94 296 94 319 129.5 c 128,-1,17
 342 165 342 165 342 256.5 c 128,-1,9
 342 348 342 348 320 381 c 128,-1,10
111.5 715 m 128,-1,19
 131 735 131 735 160.5 735 c 128,-1,20
 190 735 190 735 210 715 c 128,-1,21
 230 695 230 695 230 666 c 128,-1,22
 230 637 230 637 210 616.5 c 128,-1,23
 190 596 190 596 160.5 596 c 128,-1,24
 131 596 131 596 111.5 616.5 c 128,-1,25
 92 637 92 637 92 666 c 128,-1,18
 92 695 92 695 111.5 715 c 128,-1,19
296 715 m 128,-1,27
 316 735 316 735 345 735 c 128,-1,28
 374 735 374 735 394 715 c 128,-1,29
 414 695 414 695 414 666 c 128,-1,30
 414 637 414 637 394 616.5 c 128,-1,31
 374 596 374 596 345 596 c 128,-1,32
 316 596 316 596 296 616.5 c 128,-1,33
 276 637 276 637 276 666 c 128,-1,26
 276 695 276 695 296 715 c 128,-1,27
EndSplineSet
EndChar

StartChar: divide
Encoding: 247 247 186
Width: 537
GlyphClass: 2
Flags: W
LayerCount: 2
Fore
SplineSet
222.5 483 m 128,-1,1
 242 501 242 501 269 501 c 128,-1,2
 296 501 296 501 314.5 483 c 128,-1,3
 333 465 333 465 333 438.5 c 128,-1,4
 333 412 333 412 314.5 392 c 128,-1,5
 296 372 296 372 269 372 c 128,-1,6
 242 372 242 372 222.5 392 c 128,-1,7
 203 412 203 412 203 438.5 c 128,-1,0
 203 465 203 465 222.5 483 c 128,-1,1
497 332 m 1,8,-1
 497 223 l 1,9,-1
 40 223 l 1,10,-1
 40 332 l 1,11,-1
 497 332 l 1,8,-1
222.5 162 m 128,-1,13
 242 180 242 180 269 180 c 128,-1,14
 296 180 296 180 314.5 162 c 128,-1,15
 333 144 333 144 333 117.5 c 128,-1,16
 333 91 333 91 314.5 71 c 128,-1,17
 296 51 296 51 269 51 c 128,-1,18
 242 51 242 51 222.5 71 c 128,-1,19
 203 91 203 91 203 117.5 c 128,-1,12
 203 144 203 144 222.5 162 c 128,-1,13
EndSplineSet
EndChar

StartChar: oslash
Encoding: 248 248 187
Width: 511
GlyphClass: 2
Flags: W
LayerCount: 2
Fore
SplineSet
97 45 m 1,0,1
 33 114 33 114 33 253.5 c 128,-1,2
 33 393 33 393 94.5 457.5 c 128,-1,3
 156 522 156 522 256 522 c 0,4,5
 292 522 292 522 327 514 c 1,6,-1
 367 597 l 1,7,-1
 442 561 l 1,8,-1
 401 476 l 1,9,10
 478 410 478 410 478 263 c 128,-1,11
 478 116 478 116 416 51.5 c 128,-1,12
 354 -13 354 -13 250 -13 c 0,13,14
 210 -13 210 -13 169 0 c 1,15,-1
 131 -78 l 1,16,-1
 54 -43 l 1,17,-1
 97 45 l 1,0,1
255 94 m 0,18,19
 296 94 296 94 319 129.5 c 128,-1,20
 342 165 342 165 342 237 c 128,-1,21
 342 309 342 309 335 340 c 1,22,-1
 219 102 l 1,23,24
 234 94 234 94 255 94 c 0,18,19
256 414 m 0,25,26
 213 414 213 414 190.5 381 c 128,-1,27
 168 348 168 348 168 254 c 0,28,29
 168 229 168 229 172 197 c 1,30,-1
 277 412 l 1,31,32
 263 414 263 414 256 414 c 0,25,26
EndSplineSet
EndChar

StartChar: ugrave
Encoding: 249 249 188
Width: 543
GlyphClass: 2
Flags: W
LayerCount: 2
Fore
SplineSet
363 47 m 1,0,1
 286 -13 286 -13 199.5 -13 c 128,-1,2
 113 -13 113 -13 81.5 31.5 c 128,-1,3
 50 76 50 76 50 158 c 2,4,-1
 50 513 l 1,5,-1
 190 513 l 1,6,-1
 190 183 l 2,7,8
 190 143 190 143 202 122 c 128,-1,9
 214 101 214 101 261.5 101 c 128,-1,10
 309 101 309 101 350 132 c 1,11,-1
 350 513 l 1,12,-1
 490 513 l 1,13,-1
 490 -13 l 1,14,-1
 375 -13 l 1,15,-1
 363 47 l 1,0,1
310 587 m 1,16,-1
 106 663 l 1,17,-1
 155 774 l 1,18,-1
 344 665 l 1,19,-1
 310 587 l 1,16,-1
EndSplineSet
EndChar

StartChar: uacute
Encoding: 250 250 189
Width: 543
GlyphClass: 2
Flags: W
LayerCount: 2
Fore
SplineSet
363 47 m 1,0,1
 286 -13 286 -13 199.5 -13 c 128,-1,2
 113 -13 113 -13 81.5 31.5 c 128,-1,3
 50 76 50 76 50 158 c 2,4,-1
 50 513 l 1,5,-1
 190 513 l 1,6,-1
 190 183 l 2,7,8
 190 143 190 143 202 122 c 128,-1,9
 214 101 214 101 261.5 101 c 128,-1,10
 309 101 309 101 350 132 c 1,11,-1
 350 513 l 1,12,-1
 490 513 l 1,13,-1
 490 -13 l 1,14,-1
 375 -13 l 1,15,-1
 363 47 l 1,0,1
427 663 m 1,16,-1
 223 587 l 1,17,-1
 189 665 l 1,18,-1
 378 774 l 1,19,-1
 427 663 l 1,16,-1
EndSplineSet
EndChar

StartChar: ucircumflex
Encoding: 251 251 190
Width: 543
GlyphClass: 2
Flags: W
LayerCount: 2
Fore
SplineSet
363 47 m 1,0,1
 286 -13 286 -13 199.5 -13 c 128,-1,2
 113 -13 113 -13 81.5 31.5 c 128,-1,3
 50 76 50 76 50 158 c 2,4,-1
 50 513 l 1,5,-1
 190 513 l 1,6,-1
 190 183 l 2,7,8
 190 143 190 143 202 122 c 128,-1,9
 214 101 214 101 261.5 101 c 128,-1,10
 309 101 309 101 350 132 c 1,11,-1
 350 513 l 1,12,-1
 490 513 l 1,13,-1
 490 -13 l 1,14,-1
 375 -13 l 1,15,-1
 363 47 l 1,0,1
270 676 m 1,16,-1
 186 591 l 1,17,-1
 122 643 l 1,18,-1
 233 762 l 1,19,-1
 307 762 l 1,20,-1
 418 643 l 1,21,-1
 354 591 l 1,22,-1
 270 676 l 1,16,-1
EndSplineSet
EndChar

StartChar: udieresis
Encoding: 252 252 191
Width: 543
GlyphClass: 2
Flags: W
LayerCount: 2
Fore
SplineSet
363 47 m 1,0,1
 286 -13 286 -13 199.5 -13 c 128,-1,2
 113 -13 113 -13 81.5 31.5 c 128,-1,3
 50 76 50 76 50 158 c 2,4,-1
 50 513 l 1,5,-1
 190 513 l 1,6,-1
 190 183 l 2,7,8
 190 143 190 143 202 122 c 128,-1,9
 214 101 214 101 261.5 101 c 128,-1,10
 309 101 309 101 350 132 c 1,11,-1
 350 513 l 1,12,-1
 490 513 l 1,13,-1
 490 -13 l 1,14,-1
 375 -13 l 1,15,-1
 363 47 l 1,0,1
131.5 715 m 128,-1,17
 151 735 151 735 180.5 735 c 128,-1,18
 210 735 210 735 230 715 c 128,-1,19
 250 695 250 695 250 666 c 128,-1,20
 250 637 250 637 230 616.5 c 128,-1,21
 210 596 210 596 180.5 596 c 128,-1,22
 151 596 151 596 131.5 616.5 c 128,-1,23
 112 637 112 637 112 666 c 128,-1,16
 112 695 112 695 131.5 715 c 128,-1,17
316 715 m 128,-1,25
 336 735 336 735 365 735 c 128,-1,26
 394 735 394 735 414 715 c 128,-1,27
 434 695 434 695 434 666 c 128,-1,28
 434 637 434 637 414 616.5 c 128,-1,29
 394 596 394 596 365 596 c 128,-1,30
 336 596 336 596 316 616.5 c 128,-1,31
 296 637 296 637 296 666 c 128,-1,24
 296 695 296 695 316 715 c 128,-1,25
EndSplineSet
EndChar

StartChar: yacute
Encoding: 253 253 192
Width: 502
GlyphClass: 2
Flags: W
LayerCount: 2
Fore
SplineSet
85 -213 m 0,0,1
 40 -213 40 -213 -20 -195 c 1,2,-1
 1 -98 l 2,3,4
 1 -99 1 -99 31 -103.5 c 128,-1,5
 61 -108 61 -108 70 -108 c 0,6,7
 126 -108 126 -108 149.5 -87.5 c 128,-1,8
 173 -67 173 -67 192 13 c 1,9,-1
 5 500 l 1,10,-1
 138 517 l 1,11,-1
 253 163 l 1,12,-1
 355 513 l 1,13,-1
 490 513 l 1,14,-1
 328 42 l 2,15,16
 276 -108 276 -108 229.5 -160.5 c 128,-1,17
 183 -213 183 -213 85 -213 c 0,0,1
414 663 m 1,18,-1
 210 587 l 1,19,-1
 176 665 l 1,20,-1
 365 774 l 1,21,-1
 414 663 l 1,18,-1
EndSplineSet
EndChar

StartChar: thorn
Encoding: 254 254 193
Width: 542
GlyphClass: 2
Flags: W
LayerCount: 2
Fore
SplineSet
193 -212 m 1,0,-1
 53 -212 l 1,1,-1
 53 701 l 1,2,-1
 193 701 l 1,3,-1
 193 480 l 1,4,5
 214 497 214 497 249.5 509.5 c 128,-1,6
 285 522 285 522 321 522 c 0,7,8
 403 522 403 522 456 459.5 c 128,-1,9
 509 397 509 397 509 281 c 0,10,11
 509 -13 509 -13 269 -13 c 0,12,13
 230 -13 230 -13 193 3 c 1,14,-1
 193 -212 l 1,0,-1
245 100 m 0,15,16
 314 100 314 100 341 142 c 128,-1,17
 368 184 368 184 368 264 c 128,-1,18
 368 344 368 344 346.5 376 c 128,-1,19
 325 408 325 408 281 408 c 128,-1,20
 237 408 237 408 193 381 c 1,21,-1
 193 105 l 1,22,23
 220 100 220 100 245 100 c 0,15,16
EndSplineSet
EndChar

StartChar: ydieresis
Encoding: 255 255 194
Width: 502
GlyphClass: 2
Flags: W
LayerCount: 2
Fore
SplineSet
85 -213 m 0,0,1
 40 -213 40 -213 -20 -195 c 1,2,-1
 1 -98 l 2,3,4
 1 -99 1 -99 31 -103.5 c 128,-1,5
 61 -108 61 -108 70 -108 c 0,6,7
 126 -108 126 -108 149.5 -87.5 c 128,-1,8
 173 -67 173 -67 192 13 c 1,9,-1
 5 500 l 1,10,-1
 138 517 l 1,11,-1
 253 163 l 1,12,-1
 355 513 l 1,13,-1
 490 513 l 1,14,-1
 328 42 l 2,15,16
 276 -108 276 -108 229.5 -160.5 c 128,-1,17
 183 -213 183 -213 85 -213 c 0,0,1
106.5 715 m 128,-1,19
 126 735 126 735 155.5 735 c 128,-1,20
 185 735 185 735 205 715 c 128,-1,21
 225 695 225 695 225 666 c 128,-1,22
 225 637 225 637 205 616.5 c 128,-1,23
 185 596 185 596 155.5 596 c 128,-1,24
 126 596 126 596 106.5 616.5 c 128,-1,25
 87 637 87 637 87 666 c 128,-1,18
 87 695 87 695 106.5 715 c 128,-1,19
291 715 m 128,-1,27
 311 735 311 735 340 735 c 128,-1,28
 369 735 369 735 389 715 c 128,-1,29
 409 695 409 695 409 666 c 128,-1,30
 409 637 409 637 389 616.5 c 128,-1,31
 369 596 369 596 340 596 c 128,-1,32
 311 596 311 596 291 616.5 c 128,-1,33
 271 637 271 637 271 666 c 128,-1,26
 271 695 271 695 291 715 c 128,-1,27
EndSplineSet
EndChar

StartChar: dotlessi
Encoding: 305 305 195
Width: 246
GlyphClass: 2
Flags: W
LayerCount: 2
Fore
SplineSet
193 0 m 1,0,-1
 53 0 l 1,1,-1
 53 512 l 1,2,-1
 193 524 l 1,3,-1
 193 0 l 1,0,-1
EndSplineSet
EndChar

StartChar: Lslash
Encoding: 321 321 196
Width: 516
GlyphClass: 2
Flags: W
LayerCount: 2
Fore
SplineSet
419 383 m 1,0,-1
 419 274 l 1,1,-1
 251 274 l 1,2,-1
 251 116 l 1,3,-1
 506 116 l 1,4,-1
 506 0 l 1,5,-1
 106 0 l 1,6,-1
 106 274 l 1,7,-1
 17 274 l 1,8,-1
 17 383 l 1,9,-1
 106 383 l 1,10,-1
 106 668 l 1,11,-1
 251 668 l 1,12,-1
 251 383 l 1,13,-1
 419 383 l 1,0,-1
EndSplineSet
EndChar

StartChar: lslash
Encoding: 322 322 197
Width: 440
GlyphClass: 2
Flags: W
LayerCount: 2
Fore
SplineSet
364 9 m 1,0,1
 313 -13 313 -13 265 -13 c 128,-1,2
 217 -13 217 -13 186 -2 c 128,-1,3
 155 9 155 9 139.5 23 c 128,-1,4
 124 37 124 37 116 64 c 128,-1,5
 108 91 108 91 106.5 109.5 c 128,-1,6
 105 128 105 128 105 161 c 2,7,-1
 105 274 l 1,8,-1
 24 274 l 1,9,-1
 24 383 l 1,10,-1
 105 383 l 1,11,-1
 105 700 l 1,12,-1
 246 700 l 1,13,-1
 246 383 l 1,14,-1
 426 383 l 1,15,-1
 426 274 l 1,16,-1
 246 274 l 1,17,-1
 246 153 l 2,18,19
 246 124 246 124 254.5 112 c 128,-1,20
 263 100 263 100 289 100 c 128,-1,21
 315 100 315 100 343 107 c 1,22,-1
 364 9 l 1,0,1
EndSplineSet
EndChar

StartChar: OE
Encoding: 338 338 198
Width: 913
GlyphClass: 2
Flags: W
LayerCount: 2
Fore
SplineSet
317 680 m 0,0,1
 398 680 398 680 461 638 c 1,2,-1
 461 669 l 1,3,-1
 862 669 l 1,4,-1
 862 553 l 1,5,-1
 571 553 l 1,6,-1
 571 402 l 1,7,-1
 846 402 l 1,8,-1
 846 290 l 1,9,-1
 571 290 l 1,10,-1
 571 116 l 1,11,-1
 871 116 l 1,12,-1
 871 0 l 1,13,-1
 461 0 l 1,14,-1
 461 31 l 1,15,16
 399 -12 399 -12 307 -12 c 0,17,18
 136 -12 136 -12 74 136 c 0,19,20
 39 220 39 220 39 334 c 0,21,22
 39 475 39 475 97 572 c 0,23,24
 161 680 161 680 317 680 c 0,0,1
309 110 m 128,-1,26
 382 110 382 110 411 169.5 c 128,-1,27
 440 229 440 229 440 316 c 128,-1,28
 440 403 440 403 430 450.5 c 128,-1,29
 420 498 420 498 390 530.5 c 128,-1,30
 360 563 360 563 315.5 563 c 128,-1,31
 271 563 271 563 244.5 545.5 c 128,-1,32
 218 528 218 528 204 495 c 0,33,34
 178 434 178 434 178 331.5 c 128,-1,35
 178 229 178 229 207 169.5 c 128,-1,25
 236 110 236 110 309 110 c 128,-1,26
EndSplineSet
EndChar

StartChar: oe
Encoding: 339 339 199
Width: 803
GlyphClass: 2
Flags: W
LayerCount: 2
Fore
SplineSet
615 92 m 0,0,1
 680 92 680 92 740 115 c 1,2,-1
 764 20 l 1,3,4
 688 -13 688 -13 593 -13 c 0,5,6
 472 -13 472 -13 416 67 c 1,7,8
 361 -13 361 -13 256.5 -13 c 128,-1,9
 152 -13 152 -13 92.5 51 c 128,-1,10
 33 115 33 115 33 254 c 128,-1,11
 33 393 33 393 94.5 457.5 c 128,-1,12
 156 522 156 522 261.5 522 c 128,-1,13
 367 522 367 522 419 441 c 1,14,15
 475 522 475 522 585 522 c 0,16,17
 674 522 674 522 722.5 474.5 c 128,-1,18
 771 427 771 427 771 342 c 0,19,20
 771 292 771 292 758 242 c 1,21,-1
 482 242 l 1,22,23
 483 92 483 92 615 92 c 0,0,1
323.5 381 m 128,-1,25
 301 414 301 414 257 414 c 128,-1,26
 213 414 213 414 190.5 381 c 128,-1,27
 168 348 168 348 168 254 c 0,28,29
 168 94 168 94 255 94 c 0,30,31
 299 94 299 94 322.5 129 c 128,-1,32
 346 164 346 164 346 256 c 128,-1,24
 346 348 346 348 323.5 381 c 128,-1,25
659 318 m 1,33,-1
 659 324 l 2,34,35
 659 423 659 423 589 423 c 0,36,37
 515 423 515 423 490 348 c 0,38,39
 486 334 486 334 483 318 c 1,40,-1
 659 318 l 1,33,-1
EndSplineSet
EndChar

StartChar: Scaron
Encoding: 352 352 200
Width: 500
GlyphClass: 2
Flags: W
LayerCount: 2
Fore
SplineSet
472 187 m 0,0,1
 472 98 472 98 410.5 42.5 c 128,-1,2
 349 -13 349 -13 245 -13 c 0,3,4
 195 -13 195 -13 132.5 0.5 c 128,-1,5
 70 14 70 14 29 33 c 1,6,-1
 66 152 l 1,7,8
 158 110 158 110 240 110 c 0,9,10
 333 110 333 110 333 182 c 0,11,12
 333 217 333 217 302 242 c 128,-1,13
 271 267 271 267 218 291.5 c 128,-1,14
 165 316 165 316 142.5 329 c 128,-1,15
 120 342 120 342 93 366 c 0,16,17
 42 411 42 411 42 497 c 128,-1,18
 42 583 42 583 102.5 632 c 128,-1,19
 163 681 163 681 252.5 681 c 128,-1,20
 342 681 342 681 445 643 c 1,21,-1
 405 534 l 1,22,23
 323 563 323 563 265 563 c 0,24,25
 182 563 182 563 181 497 c 0,26,27
 181 470 181 470 199 456.5 c 128,-1,28
 217 443 217 443 225 437.5 c 128,-1,29
 233 432 233 432 257.5 419.5 c 128,-1,30
 282 407 282 407 303 395.5 c 128,-1,31
 324 384 324 384 341.5 373.5 c 128,-1,32
 359 363 359 363 388 341 c 128,-1,33
 417 319 417 319 432 300 c 0,34,35
 472 250 472 250 472 187 c 0,0,1
152 896 m 1,36,-1
 236 811 l 1,37,-1
 320 896 l 1,38,-1
 384 844 l 1,39,-1
 273 725 l 1,40,-1
 199 725 l 1,41,-1
 88 844 l 1,42,-1
 152 896 l 1,36,-1
EndSplineSet
EndChar

StartChar: scaron
Encoding: 353 353 201
Width: 419
GlyphClass: 2
Flags: W
LayerCount: 2
Fore
SplineSet
132 743 m 1,0,-1
 216 658 l 1,1,-1
 300 743 l 1,2,-1
 364 691 l 1,3,-1
 253 572 l 1,4,-1
 179 572 l 1,5,-1
 68 691 l 1,6,-1
 132 743 l 1,0,-1
237 414 m 0,7,8
 169 414 169 414 169 369 c 0,9,10
 169 345 169 345 192 328 c 128,-1,11
 215 311 215 311 247.5 298.5 c 128,-1,12
 280 286 280 286 312.5 270.5 c 128,-1,13
 345 255 345 255 368 226 c 128,-1,14
 391 197 391 197 391 155 c 0,15,16
 391 80 391 80 340 33.5 c 128,-1,17
 289 -13 289 -13 190 -13 c 0,18,19
 145 -13 145 -13 95.5 -3 c 128,-1,20
 46 7 46 7 23 20 c 1,21,-1
 57 120 l 1,22,23
 135 94 135 94 197.5 94 c 128,-1,24
 260 94 260 94 260 143 c 0,25,26
 260 164 260 164 237 181 c 128,-1,27
 214 198 214 198 181.5 212.5 c 128,-1,28
 149 227 149 227 116.5 244 c 128,-1,29
 84 261 84 261 61 292 c 128,-1,30
 38 323 38 323 38 364 c 0,31,32
 38 441 38 441 89 482 c 128,-1,33
 140 523 140 523 235 523 c 128,-1,34
 330 523 330 523 384 492 c 1,35,-1
 351 393 l 1,36,37
 282 414 282 414 237 414 c 0,7,8
EndSplineSet
EndChar

StartChar: Ydieresis
Encoding: 376 376 202
Width: 548
GlyphClass: 2
Flags: W
LayerCount: 2
Fore
SplineSet
346 0 m 1,0,-1
 202 0 l 1,1,-1
 202 264 l 1,2,-1
 -8 668 l 1,3,-1
 138 668 l 1,4,-1
 274 383 l 1,5,-1
 410 668 l 1,6,-1
 556 668 l 1,7,-1
 346 264 l 1,8,-1
 346 0 l 1,0,-1
127.5 834 m 128,-1,10
 147 854 147 854 176.5 854 c 128,-1,11
 206 854 206 854 226 834 c 128,-1,12
 246 814 246 814 246 785 c 128,-1,13
 246 756 246 756 226 735.5 c 128,-1,14
 206 715 206 715 176.5 715 c 128,-1,15
 147 715 147 715 127.5 735.5 c 128,-1,16
 108 756 108 756 108 785 c 128,-1,9
 108 814 108 814 127.5 834 c 128,-1,10
312 834 m 128,-1,18
 332 854 332 854 361 854 c 128,-1,19
 390 854 390 854 410 834 c 128,-1,20
 430 814 430 814 430 785 c 128,-1,21
 430 756 430 756 410 735.5 c 128,-1,22
 390 715 390 715 361 715 c 128,-1,23
 332 715 332 715 312 735.5 c 128,-1,24
 292 756 292 756 292 785 c 128,-1,17
 292 814 292 814 312 834 c 128,-1,18
EndSplineSet
EndChar

StartChar: Zcaron
Encoding: 381 381 203
Width: 525
GlyphClass: 2
Flags: W
LayerCount: 2
Fore
SplineSet
496 117 m 1,0,-1
 496 0 l 1,1,-1
 43 0 l 1,2,-1
 32 88 l 1,3,-1
 315 552 l 1,4,-1
 48 552 l 1,5,-1
 33 668 l 1,6,-1
 466 668 l 1,7,-1
 475 575 l 1,8,-1
 194 117 l 1,9,-1
 496 117 l 1,0,-1
185 896 m 1,10,-1
 269 811 l 1,11,-1
 353 896 l 1,12,-1
 417 844 l 1,13,-1
 306 725 l 1,14,-1
 232 725 l 1,15,-1
 121 844 l 1,16,-1
 185 896 l 1,10,-1
EndSplineSet
EndChar

StartChar: zcaron
Encoding: 382 382 204
Width: 451
GlyphClass: 2
Flags: W
LayerCount: 2
Fore
SplineSet
181 95 m 1,0,-1
 421 95 l 1,1,-1
 433 0 l 1,2,-1
 37 0 l 1,3,-1
 25 75 l 1,4,-1
 250 416 l 1,5,-1
 45 416 l 1,6,-1
 35 512 l 1,7,-1
 394 512 l 1,8,-1
 407 434 l 1,9,-1
 181 95 l 1,0,-1
142 742 m 1,10,-1
 226 657 l 1,11,-1
 310 742 l 1,12,-1
 374 690 l 1,13,-1
 263 571 l 1,14,-1
 189 571 l 1,15,-1
 78 690 l 1,16,-1
 142 742 l 1,10,-1
EndSplineSet
EndChar

StartChar: florin
Encoding: 402 402 205
Width: 624
GlyphClass: 2
Flags: W
LayerCount: 2
Fore
SplineSet
242 -33 m 2,0,-1
 242 416 l 1,1,-1
 148 422 l 1,2,-1
 148 504 l 1,3,-1
 243 511 l 1,4,-1
 243 540 l 2,5,6
 243 643 243 643 299 690 c 128,-1,7
 355 737 355 737 473 737 c 0,8,9
 533 737 533 737 607 713 c 1,10,-1
 578 613 l 1,11,12
 536 623 536 623 478 623 c 128,-1,13
 420 623 420 623 401 600.5 c 128,-1,14
 382 578 382 578 382 527 c 2,15,-1
 382 512 l 1,16,-1
 535 512 l 1,17,-1
 526 416 l 1,18,-1
 382 416 l 1,19,-1
 382 -46 l 2,20,21
 382 -149 382 -149 325.5 -196 c 128,-1,22
 269 -243 269 -243 151 -243 c 0,23,24
 91 -243 91 -243 17 -219 c 1,25,-1
 46 -119 l 1,26,27
 89 -129 89 -129 146.5 -129 c 128,-1,28
 204 -129 204 -129 223 -106.5 c 128,-1,29
 242 -84 242 -84 242 -33 c 2,0,-1
EndSplineSet
EndChar

StartChar: circumflex
Encoding: 710 710 206
Width: 380
GlyphClass: 2
Flags: W
LayerCount: 2
Fore
SplineSet
190 676 m 1,0,-1
 106 591 l 1,1,-1
 42 643 l 1,2,-1
 153 762 l 1,3,-1
 227 762 l 1,4,-1
 338 643 l 1,5,-1
 274 591 l 1,6,-1
 190 676 l 1,0,-1
EndSplineSet
EndChar

StartChar: caron
Encoding: 711 711 207
Width: 408
GlyphClass: 2
Flags: W
LayerCount: 2
Fore
SplineSet
125 742 m 1,0,-1
 209 657 l 1,1,-1
 293 742 l 1,2,-1
 357 690 l 1,3,-1
 246 571 l 1,4,-1
 172 571 l 1,5,-1
 61 690 l 1,6,-1
 125 742 l 1,0,-1
EndSplineSet
EndChar

StartChar: breve
Encoding: 728 728 208
Width: 300
GlyphClass: 2
Flags: W
LayerCount: 2
Fore
SplineSet
110 658 m 1,0,1
 110 641 110 641 119.5 626 c 128,-1,2
 129 611 129 611 150.5 611 c 128,-1,3
 172 611 172 611 181.5 625.5 c 128,-1,4
 191 640 191 640 191 658 c 1,5,-1
 258 658 l 1,6,7
 258 613 258 613 230 580.5 c 128,-1,8
 202 548 202 548 149 548 c 128,-1,9
 96 548 96 548 69 580 c 128,-1,10
 42 612 42 612 42 658 c 1,11,-1
 110 658 l 1,0,1
EndSplineSet
EndChar

StartChar: dotaccent
Encoding: 729 729 209
Width: 220
GlyphClass: 2
Flags: W
LayerCount: 2
Fore
SplineSet
52 656 m 128,-1,1
 76 680 76 680 110 680 c 128,-1,2
 144 680 144 680 168 656 c 128,-1,3
 192 632 192 632 192 598.5 c 128,-1,4
 192 565 192 565 168 540 c 128,-1,5
 144 515 144 515 110 515 c 128,-1,6
 76 515 76 515 52 539.5 c 128,-1,7
 28 564 28 564 28 598 c 128,-1,0
 28 632 28 632 52 656 c 128,-1,1
EndSplineSet
EndChar

StartChar: ring
Encoding: 730 730 210
Width: 297
GlyphClass: 2
Flags: W
LayerCount: 2
Fore
SplineSet
248 701 m 128,-1,1
 248 658 248 658 221 627.5 c 128,-1,2
 194 597 194 597 144 597 c 128,-1,3
 94 597 94 597 68 627 c 128,-1,4
 42 657 42 657 42 700 c 128,-1,5
 42 743 42 743 68.5 772.5 c 128,-1,6
 95 802 95 802 145 802 c 128,-1,7
 195 802 195 802 221.5 773 c 128,-1,0
 248 744 248 744 248 701 c 128,-1,1
145 660 m 0,8,9
 181 660 181 660 181 699 c 128,-1,10
 181 738 181 738 145.5 738 c 128,-1,11
 110 738 110 738 110 699 c 0,12,13
 110 683 110 683 118.5 671.5 c 128,-1,14
 127 660 127 660 145 660 c 0,8,9
EndSplineSet
EndChar

StartChar: ogonek
Encoding: 731 731 211
Width: 309
GlyphClass: 2
Flags: W
LayerCount: 2
Fore
SplineSet
160 -105 m 0,0,1
 160 -134 160 -134 197 -134 c 0,2,3
 216 -134 216 -134 244 -125 c 1,4,-1
 262 -218 l 1,5,6
 201 -243 201 -243 151 -243 c 128,-1,7
 101 -243 101 -243 73 -214.5 c 128,-1,8
 45 -186 45 -186 45 -146.5 c 128,-1,9
 45 -107 45 -107 61.5 -72 c 128,-1,10
 78 -37 78 -37 106 -13 c 1,11,-1
 216 -13 l 1,12,13
 160 -63 160 -63 160 -105 c 0,0,1
EndSplineSet
EndChar

StartChar: tilde
Encoding: 732 732 212
Width: 474
GlyphClass: 2
Flags: W
LayerCount: 2
Fore
SplineSet
243 706.5 m 128,-1,1
 288 685 288 685 310.5 685 c 128,-1,2
 333 685 333 685 362 720 c 1,3,-1
 411 666 l 1,4,5
 393 636 393 636 362.5 613.5 c 128,-1,6
 332 591 332 591 304.5 591 c 128,-1,7
 277 591 277 591 233 612.5 c 128,-1,8
 189 634 189 634 166.5 634 c 128,-1,9
 144 634 144 634 115 599 c 1,10,-1
 66 653 l 1,11,12
 84 683 84 683 113.5 705.5 c 128,-1,13
 143 728 143 728 170.5 728 c 128,-1,0
 198 728 198 728 243 706.5 c 128,-1,1
EndSplineSet
EndChar

StartChar: hungarumlaut
Encoding: 733 733 213
Width: 534
GlyphClass: 2
Flags: W
LayerCount: 2
Fore
SplineSet
266 644 m 1,0,-1
 109 494 l 1,1,-1
 47 552 l 1,2,-1
 177 726 l 1,3,-1
 266 644 l 1,0,-1
487 644 m 1,4,-1
 330 494 l 1,5,-1
 268 552 l 1,6,-1
 398 726 l 1,7,-1
 487 644 l 1,4,-1
EndSplineSet
EndChar

StartChar: endash
Encoding: 8211 8211 214
Width: 559
GlyphClass: 2
Flags: W
LayerCount: 2
Fore
SplineSet
508 332 m 1,0,-1
 508 223 l 1,1,-1
 51 223 l 1,2,-1
 51 332 l 1,3,-1
 508 332 l 1,0,-1
EndSplineSet
EndChar

StartChar: emdash
Encoding: 8212 8212 215
Width: 709
GlyphClass: 2
Flags: W
LayerCount: 2
Fore
SplineSet
658 332 m 1,0,-1
 658 223 l 1,1,-1
 51 223 l 1,2,-1
 51 332 l 1,3,-1
 658 332 l 1,0,-1
EndSplineSet
EndChar

StartChar: quoteleft
Encoding: 8216 8216 216
Width: 221
GlyphClass: 2
Flags: W
LayerCount: 2
Fore
SplineSet
41 533 m 0,0,1
 41 638 41 638 130 720 c 1,2,-1
 233 720 l 1,3,4
 151 625 151 625 151 548 c 0,5,6
 151 515 151 515 168 476 c 1,7,-1
 53 476 l 1,8,9
 41 502 41 502 41 533 c 0,0,1
EndSplineSet
EndChar

StartChar: quoteright
Encoding: 8217 8217 217
Width: 254
GlyphClass: 2
Flags: W
LayerCount: 2
Fore
SplineSet
224 642 m 0,0,1
 224 537 224 537 135 455 c 1,2,-1
 32 455 l 1,3,4
 114 550 114 550 114 627 c 0,5,6
 114 660 114 660 97 699 c 1,7,-1
 212 699 l 1,8,9
 224 673 224 673 224 642 c 0,0,1
EndSplineSet
EndChar

StartChar: quotesinglbase
Encoding: 8218 8218 218
Width: 218
GlyphClass: 2
Flags: W
LayerCount: 2
Fore
SplineSet
172 59 m 0,0,1
 172 -46 172 -46 83 -128 c 1,2,-1
 -20 -128 l 1,3,4
 62 -33 62 -33 62 44 c 0,5,6
 62 77 62 77 45 116 c 1,7,-1
 160 116 l 1,8,9
 172 90 172 90 172 59 c 0,0,1
EndSplineSet
EndChar

StartChar: quotedblleft
Encoding: 8220 8220 219
Width: 411
GlyphClass: 2
Flags: W
LayerCount: 2
Fore
SplineSet
41 533 m 0,0,1
 41 638 41 638 130 720 c 1,2,-1
 233 720 l 1,3,4
 151 625 151 625 151 548 c 0,5,6
 151 515 151 515 168 476 c 1,7,-1
 53 476 l 1,8,9
 41 502 41 502 41 533 c 0,0,1
231 533 m 0,10,11
 231 638 231 638 320 720 c 1,12,-1
 423 720 l 1,13,14
 341 625 341 625 341 548 c 0,15,16
 341 515 341 515 358 476 c 1,17,-1
 243 476 l 1,18,19
 231 502 231 502 231 533 c 0,10,11
EndSplineSet
EndChar

StartChar: quotedblright
Encoding: 8221 8221 220
Width: 444
GlyphClass: 2
Flags: W
LayerCount: 2
Fore
SplineSet
414 642 m 0,0,1
 414 537 414 537 325 455 c 1,2,-1
 222 455 l 1,3,4
 304 550 304 550 304 627 c 0,5,6
 304 660 304 660 287 699 c 1,7,-1
 402 699 l 1,8,9
 414 673 414 673 414 642 c 0,0,1
224 642 m 0,10,11
 224 537 224 537 135 455 c 1,12,-1
 32 455 l 1,13,14
 114 550 114 550 114 627 c 0,15,16
 114 660 114 660 97 699 c 1,17,-1
 212 699 l 1,18,19
 224 673 224 673 224 642 c 0,10,11
EndSplineSet
EndChar

StartChar: quotedblbase
Encoding: 8222 8222 221
Width: 408
GlyphClass: 2
Flags: W
LayerCount: 2
Fore
SplineSet
172 59 m 0,0,1
 172 -46 172 -46 83 -128 c 1,2,-1
 -20 -128 l 1,3,4
 62 -33 62 -33 62 44 c 0,5,6
 62 77 62 77 45 116 c 1,7,-1
 160 116 l 1,8,9
 172 90 172 90 172 59 c 0,0,1
362 59 m 0,10,11
 362 -46 362 -46 273 -128 c 1,12,-1
 170 -128 l 1,13,14
 252 -33 252 -33 252 44 c 0,15,16
 252 77 252 77 235 116 c 1,17,-1
 350 116 l 1,18,19
 362 90 362 90 362 59 c 0,10,11
EndSplineSet
EndChar

StartChar: dagger
Encoding: 8224 8224 222
Width: 418
GlyphClass: 2
Flags: W
LayerCount: 2
Fore
SplineSet
394 480 m 1,0,-1
 394 392 l 1,1,-1
 232 407 l 1,2,-1
 257 0 l 1,3,-1
 151 0 l 1,4,-1
 176 407 l 1,5,-1
 24 392 l 1,6,-1
 24 480 l 1,7,-1
 176 465 l 1,8,-1
 149 669 l 1,9,-1
 259 669 l 1,10,-1
 232 465 l 1,11,-1
 394 480 l 1,0,-1
EndSplineSet
EndChar

StartChar: daggerdbl
Encoding: 8225 8225 223
Width: 419
GlyphClass: 2
Flags: W
LayerCount: 2
Fore
SplineSet
254 341 m 1,0,-1
 233 215 l 1,1,-1
 376 228 l 1,2,-1
 376 150 l 1,3,-1
 233 163 l 1,4,-1
 257 0 l 1,5,-1
 163 0 l 1,6,-1
 186 163 l 1,7,-1
 43 150 l 1,8,-1
 43 228 l 1,9,-1
 186 215 l 1,10,-1
 166 341 l 1,11,-1
 186 459 l 1,12,-1
 43 446 l 1,13,-1
 43 525 l 1,14,-1
 186 511 l 1,15,-1
 163 674 l 1,16,-1
 257 674 l 1,17,-1
 233 511 l 1,18,-1
 376 525 l 1,19,-1
 376 446 l 1,20,-1
 233 459 l 1,21,-1
 254 341 l 1,0,-1
EndSplineSet
EndChar

StartChar: bullet
Encoding: 8226 8226 224
Width: 357
GlyphClass: 2
Flags: W
LayerCount: 2
Fore
SplineSet
62 314 m 128,-1,1
 62 364 62 364 95.5 397.5 c 128,-1,2
 129 431 129 431 178.5 431 c 128,-1,3
 228 431 228 431 261.5 397.5 c 128,-1,4
 295 364 295 364 295 314 c 128,-1,5
 295 264 295 264 261.5 230.5 c 128,-1,6
 228 197 228 197 178.5 197 c 128,-1,7
 129 197 129 197 95.5 230.5 c 128,-1,0
 62 264 62 264 62 314 c 128,-1,1
EndSplineSet
EndChar

StartChar: ellipsis
Encoding: 8230 8230 225
Width: 702
GlyphClass: 2
Flags: W
LayerCount: 2
Fore
SplineSet
63 134 m 128,-1,1
 87 158 87 158 121 158 c 128,-1,2
 155 158 155 158 179 134 c 128,-1,3
 203 110 203 110 203 76.5 c 128,-1,4
 203 43 203 43 179 18 c 128,-1,5
 155 -7 155 -7 121 -7 c 128,-1,6
 87 -7 87 -7 63 17.5 c 128,-1,7
 39 42 39 42 39 76 c 128,-1,0
 39 110 39 110 63 134 c 128,-1,1
294 134 m 128,-1,9
 318 158 318 158 352 158 c 128,-1,10
 386 158 386 158 410 134 c 128,-1,11
 434 110 434 110 434 76.5 c 128,-1,12
 434 43 434 43 410 18 c 128,-1,13
 386 -7 386 -7 352 -7 c 128,-1,14
 318 -7 318 -7 294 17.5 c 128,-1,15
 270 42 270 42 270 76 c 128,-1,8
 270 110 270 110 294 134 c 128,-1,9
524 134 m 128,-1,17
 548 158 548 158 582 158 c 128,-1,18
 616 158 616 158 640 134 c 128,-1,19
 664 110 664 110 664 76.5 c 128,-1,20
 664 43 664 43 640 18 c 128,-1,21
 616 -7 616 -7 582 -7 c 128,-1,22
 548 -7 548 -7 524 17.5 c 128,-1,23
 500 42 500 42 500 76 c 128,-1,16
 500 110 500 110 524 134 c 128,-1,17
EndSplineSet
EndChar

StartChar: perthousand
Encoding: 8240 8240 226
Width: 1158
GlyphClass: 2
Flags: W
LayerCount: 2
Fore
SplineSet
61.5 355 m 128,-1,1
 23 395 23 395 23 507 c 0,2,3
 23 623 23 623 75 666 c 0,4,5
 118 702 118 702 182.5 702 c 128,-1,6
 247 702 247 702 286 661 c 128,-1,7
 325 620 325 620 325 508 c 0,8,9
 325 393 325 393 274 350 c 0,10,11
 231 315 231 315 165.5 315 c 128,-1,0
 100 315 100 315 61.5 355 c 128,-1,1
174 635 m 128,-1,13
 146 635 146 635 131.5 608 c 128,-1,14
 117 581 117 581 117 507 c 128,-1,15
 117 433 117 433 131 407 c 128,-1,16
 145 381 145 381 173.5 381 c 128,-1,17
 202 381 202 381 216.5 407 c 128,-1,18
 231 433 231 433 231 506.5 c 128,-1,19
 231 580 231 580 216.5 607.5 c 128,-1,12
 202 635 202 635 174 635 c 128,-1,13
529.5 28 m 128,-1,21
 491 68 491 68 491 180 c 0,22,23
 491 296 491 296 543 339 c 0,24,25
 586 375 586 375 650.5 375 c 128,-1,26
 715 375 715 375 754 334 c 128,-1,27
 793 293 793 293 793 181 c 0,28,29
 793 66 793 66 742 24 c 0,30,31
 699 -12 699 -12 633.5 -12 c 128,-1,20
 568 -12 568 -12 529.5 28 c 128,-1,21
642 308 m 128,-1,33
 614 308 614 308 599.5 281 c 128,-1,34
 585 254 585 254 585 180 c 128,-1,35
 585 106 585 106 599 80 c 128,-1,36
 613 54 613 54 641.5 54 c 128,-1,37
 670 54 670 54 684.5 80 c 128,-1,38
 699 106 699 106 699 179.5 c 128,-1,39
 699 253 699 253 684.5 280.5 c 128,-1,32
 670 308 670 308 642 308 c 128,-1,33
871.5 28 m 128,-1,41
 833 68 833 68 833 180 c 0,42,43
 833 296 833 296 885 339 c 0,44,45
 928 375 928 375 992.5 375 c 128,-1,46
 1057 375 1057 375 1096 334 c 128,-1,47
 1135 293 1135 293 1135 181 c 0,48,49
 1135 66 1135 66 1084 24 c 0,50,51
 1041 -12 1041 -12 975.5 -12 c 128,-1,40
 910 -12 910 -12 871.5 28 c 128,-1,41
984 308 m 128,-1,53
 956 308 956 308 941.5 281 c 128,-1,54
 927 254 927 254 927 180 c 128,-1,55
 927 106 927 106 941 80 c 128,-1,56
 955 54 955 54 983.5 54 c 128,-1,57
 1012 54 1012 54 1026.5 80 c 128,-1,58
 1041 106 1041 106 1041 179.5 c 128,-1,59
 1041 253 1041 253 1026.5 280.5 c 128,-1,52
 1012 308 1012 308 984 308 c 128,-1,53
592 753 m 1,60,-1
 309 -96 l 1,61,-1
 202 -67 l 1,62,-1
 487 784 l 1,63,-1
 592 753 l 1,60,-1
EndSplineSet
EndChar

StartChar: guilsinglleft
Encoding: 8249 8249 227
Width: 330
GlyphClass: 2
Flags: W
LayerCount: 2
Fore
SplineSet
293 423 m 1,0,-1
 153 278 l 1,1,-1
 293 136 l 1,2,-1
 211 63 l 1,3,-1
 35 249 l 1,4,-1
 35 308 l 1,5,-1
 211 493 l 1,6,-1
 293 423 l 1,0,-1
EndSplineSet
EndChar

StartChar: guilsinglright
Encoding: 8250 8250 228
Width: 330
GlyphClass: 2
Flags: W
LayerCount: 2
Fore
SplineSet
177 278 m 1,0,-1
 37 423 l 1,1,-1
 119 493 l 1,2,-1
 295 308 l 1,3,-1
 295 249 l 1,4,-1
 119 63 l 1,5,-1
 37 136 l 1,6,-1
 177 278 l 1,0,-1
EndSplineSet
EndChar

StartChar: fraction
Encoding: 8260 8260 229
Width: 387
GlyphClass: 2
Flags: W
LayerCount: 2
Fore
SplineSet
388 765 m 1,0,-1
 105 -84 l 1,1,-1
 -2 -55 l 1,2,-1
 283 796 l 1,3,-1
 388 765 l 1,0,-1
EndSplineSet
EndChar

StartChar: Euro
Encoding: 8364 8364 230
Width: 581
GlyphClass: 2
Flags: W
LayerCount: 2
Fore
SplineSet
407 451 m 1,0,-1
 407 377 l 1,1,-1
 248 377 l 1,2,3
 247 365 247 365 247 339 c 128,-1,4
 247 313 247 313 248 301 c 1,5,-1
 407 301 l 1,6,-1
 407 227 l 1,7,-1
 260 227 l 1,8,9
 296 106 296 106 428 106 c 0,10,11
 487 106 487 106 535 114 c 1,12,-1
 544 5 l 1,13,14
 465 -13 465 -13 390 -13 c 0,15,16
 284 -13 284 -13 208.5 43.5 c 128,-1,17
 133 100 133 100 109 227 c 1,18,-1
 33 227 l 1,19,-1
 33 301 l 1,20,-1
 101 301 l 1,21,22
 100 312 100 312 100 338 c 128,-1,23
 100 364 100 364 101 377 c 1,24,-1
 33 377 l 1,25,-1
 33 451 l 1,26,-1
 112 451 l 1,27,28
 130 533 130 533 177 586 c 128,-1,29
 224 639 224 639 279 659 c 128,-1,30
 334 679 334 679 404.5 679 c 128,-1,31
 475 679 475 679 551 657 c 1,32,-1
 528 554 l 1,33,34
 471 565 471 565 422 565 c 0,35,36
 295 565 295 565 261 451 c 1,37,-1
 407 451 l 1,0,-1
EndSplineSet
EndChar

StartChar: trademark
Encoding: 8482 8482 231
Width: 795
GlyphClass: 2
Flags: W
LayerCount: 2
Fore
SplineSet
142 604 m 1,0,-1
 44 604 l 1,1,-1
 44 668 l 1,2,-1
 322 668 l 1,3,-1
 322 604 l 1,4,-1
 222 604 l 1,5,-1
 222 292 l 1,6,-1
 142 292 l 1,7,-1
 142 604 l 1,0,-1
523 339 m 1,8,-1
 445 561 l 1,9,-1
 436 292 l 1,10,-1
 361 292 l 1,11,-1
 382 668 l 1,12,-1
 470 668 l 1,13,-1
 552 426 l 1,14,-1
 633 668 l 1,15,-1
 721 668 l 1,16,-1
 743 292 l 1,17,-1
 668 292 l 1,18,-1
 658 561 l 1,19,-1
 581 339 l 1,20,-1
 523 339 l 1,8,-1
EndSplineSet
EndChar

StartChar: minus
Encoding: 8722 8722 232
Width: 522
GlyphClass: 2
Flags: W
LayerCount: 2
Fore
SplineSet
467 332 m 1,0,-1
 467 223 l 1,1,-1
 55 223 l 1,2,-1
 55 332 l 1,3,-1
 467 332 l 1,0,-1
EndSplineSet
EndChar

StartChar: fi
Encoding: 64257 64257 233
Width: 616
GlyphClass: 2
Flags: W
LayerCount: 2
Fore
SplineSet
564 0 m 1,0,-1
 424 0 l 1,1,-1
 424 416 l 1,2,-1
 249 416 l 1,3,-1
 249 -186 l 1,4,-1
 109 -172 l 1,5,-1
 109 416 l 1,6,-1
 15 422 l 1,7,-1
 15 504 l 1,8,-1
 110 511 l 1,9,-1
 110 540 l 2,10,11
 110 644 110 644 167 690.5 c 128,-1,12
 224 737 224 737 347 737 c 0,13,14
 422 737 422 737 496 713 c 1,15,-1
 467 613 l 1,16,17
 424 623 424 623 356.5 623 c 128,-1,18
 289 623 289 623 269 600.5 c 128,-1,19
 249 578 249 578 249 527 c 2,20,-1
 249 512 l 1,21,-1
 424 512 l 1,22,-1
 564 524 l 1,23,-1
 564 0 l 1,0,-1
EndSplineSet
EndChar

StartChar: fl
Encoding: 64258 64258 234
Width: 727
GlyphClass: 2
Flags: W
LayerCount: 2
Fore
SplineSet
731 9 m 1,0,1
 680 -13 680 -13 632 -13 c 128,-1,2
 584 -13 584 -13 553 -2 c 128,-1,3
 522 9 522 9 506.5 23 c 128,-1,4
 491 37 491 37 483 64 c 128,-1,5
 475 91 475 91 473.5 109.5 c 128,-1,6
 472 128 472 128 472 161 c 2,7,-1
 472 614 l 1,8,9
 433 629 433 629 362.5 629 c 128,-1,10
 292 629 292 629 270.5 606 c 128,-1,11
 249 583 249 583 249 527 c 2,12,-1
 249 512 l 1,13,-1
 392 512 l 1,14,-1
 383 416 l 1,15,-1
 249 416 l 1,16,-1
 249 -186 l 1,17,-1
 109 -172 l 1,18,-1
 109 416 l 1,19,-1
 15 422 l 1,20,-1
 15 504 l 1,21,-1
 110 511 l 1,22,-1
 110 540 l 2,23,24
 110 658 110 658 185 704 c 0,25,26
 252 745 252 745 364 745 c 128,-1,27
 476 745 476 745 613 700 c 1,28,-1
 613 153 l 2,29,30
 613 124 613 124 621.5 112 c 128,-1,31
 630 100 630 100 656 100 c 128,-1,32
 682 100 682 100 710 107 c 1,33,-1
 731 9 l 1,0,1
EndSplineSet
EndChar

StartChar: plus.001
Encoding: 65540 -1 236
Width: 479
GlyphClass: 2
Flags: W
LayerCount: 2
Fore
SplineSet
295 77 m 1,0,-1
 184 77 l 1,1,-1
 184 223 l 1,2,-1
 35 223 l 1,3,-1
 35 333 l 1,4,-1
 184 333 l 1,5,-1
 184 478 l 1,6,-1
 295 478 l 1,7,-1
 295 333 l 1,8,-1
 444 333 l 1,9,-1
 444 223 l 1,10,-1
 295 223 l 1,11,-1
 295 77 l 1,0,-1
EndSplineSet
EndChar

StartChar: percent
Encoding: 65541 -1 237
Width: 871
GlyphClass: 2
Flags: W
LayerCount: 2
Fore
SplineSet
310 0 m 1,0,-1
 180 0 l 1,1,-1
 533 691 l 1,2,-1
 662 691 l 1,3,-1
 310 0 l 1,0,-1
83 362.5 m 128,-1,5
 44 402 44 402 44 510 c 0,6,7
 44 622 44 622 96 664 c 0,8,9
 140 700 140 700 204 700 c 128,-1,10
 268 700 268 700 307 659.5 c 128,-1,11
 346 619 346 619 346 511 c 0,12,13
 346 400 346 400 294 358 c 0,14,15
 251 323 251 323 186.5 323 c 128,-1,4
 122 323 122 323 83 362.5 c 128,-1,5
195 633 m 128,-1,17
 167 633 167 633 152.5 606.5 c 128,-1,18
 138 580 138 580 138 509.5 c 128,-1,19
 138 439 138 439 152.5 414 c 128,-1,20
 167 389 167 389 195 389 c 128,-1,21
 223 389 223 389 237.5 414.5 c 128,-1,22
 252 440 252 440 252 510 c 128,-1,23
 252 580 252 580 237.5 606.5 c 128,-1,16
 223 633 223 633 195 633 c 128,-1,17
542 29.5 m 128,-1,25
 503 69 503 69 503 177 c 0,26,27
 503 289 503 289 555 332 c 1,28,29
 599 367 599 367 663 367 c 128,-1,30
 727 367 727 367 766 326.5 c 128,-1,31
 805 286 805 286 805 178 c 0,32,33
 805 67 805 67 754 25 c 0,34,35
 710 -10 710 -10 645.5 -10 c 128,-1,24
 581 -10 581 -10 542 29.5 c 128,-1,25
654 300 m 128,-1,37
 626 300 626 300 611.5 273.5 c 128,-1,38
 597 247 597 247 597 176.5 c 128,-1,39
 597 106 597 106 611.5 81 c 128,-1,40
 626 56 626 56 654 56 c 128,-1,41
 682 56 682 56 696.5 81.5 c 128,-1,42
 711 107 711 107 711 177 c 128,-1,43
 711 247 711 247 696.5 273.5 c 128,-1,36
 682 300 682 300 654 300 c 128,-1,37
EndSplineSet
EndChar

StartChar: a.alt
Encoding: 65552 -1 248
Width: 565
GlyphClass: 2
Flags: W
LayerCount: 2
Fore
SplineSet
355 31 m 1,0,1
 304 -12 304 -12 217 -12 c 128,-1,2
 130 -12 130 -12 82 56.5 c 128,-1,3
 34 125 34 125 34 252.5 c 128,-1,4
 34 380 34 380 89 447 c 128,-1,5
 144 514 144 514 235 514 c 0,6,7
 292 514 292 514 359 485 c 1,8,-1
 367 520 l 1,9,-1
 483 520 l 1,10,-1
 483 122 l 2,11,12
 483 94 483 94 506 94 c 0,13,14
 519 94 519 94 543 100 c 1,15,-1
 561 17 l 1,16,17
 510 -11 510 -11 445 -11 c 128,-1,18
 380 -11 380 -11 355 31 c 1,0,1
269 407 m 0,19,20
 172 407 172 407 172 245 c 128,-1,21
 172 83 172 83 262 83 c 0,22,23
 311 83 311 83 345 110 c 1,24,-1
 345 393 l 1,25,26
 312 407 312 407 269 407 c 0,19,20
EndSplineSet
EndChar
